<svg xmlns="http://www.w3.org/2000/svg" viewBox="0 0 860 532" width="860" height="532" role="img" aria-label="Review core components" font-family="-apple-system, BlinkMacSystemFont, &quot;Segoe UI&quot;, &quot;Noto Sans&quot;, Helvetica, Arial, sans-serif">
<title>Review core components</title>
<desc>Inside the review core: lens selection, prompt assembly, answer validation, quote verification and the reducer.</desc>
<defs><pattern id="dots" width="18" height="18" patternUnits="userSpaceOnUse"><circle cx="1.5" cy="1.5" r="1" fill="rgba(110,118,129,.22)"/></pattern><marker id="mk-added" viewBox="0 0 10 10" refX="8" refY="5" markerWidth="6.5" markerHeight="6.5" orient="auto-start-reverse"><path d="M0,0 L10,5 L0,10 z" fill="#3fb950"/></marker><marker id="mko-added" viewBox="0 0 10 10" refX="10" refY="5" markerWidth="6.5" markerHeight="6.5" orient="auto-start-reverse"><path d="M2,1 L10,5 L2,9" fill="none" stroke="#3fb950" stroke-width="1.6" stroke-linecap="round" stroke-linejoin="round"/></marker><marker id="mk-modified" viewBox="0 0 10 10" refX="8" refY="5" markerWidth="6.5" markerHeight="6.5" orient="auto-start-reverse"><path d="M0,0 L10,5 L0,10 z" fill="#d29922"/></marker><marker id="mko-modified" viewBox="0 0 10 10" refX="10" refY="5" markerWidth="6.5" markerHeight="6.5" orient="auto-start-reverse"><path d="M2,1 L10,5 L2,9" fill="none" stroke="#d29922" stroke-width="1.6" stroke-linecap="round" stroke-linejoin="round"/></marker><marker id="mk-removed" viewBox="0 0 10 10" refX="8" refY="5" markerWidth="6.5" markerHeight="6.5" orient="auto-start-reverse"><path d="M0,0 L10,5 L0,10 z" fill="#f85149"/></marker><marker id="mko-removed" viewBox="0 0 10 10" refX="10" refY="5" markerWidth="6.5" markerHeight="6.5" orient="auto-start-reverse"><path d="M2,1 L10,5 L2,9" fill="none" stroke="#f85149" stroke-width="1.6" stroke-linecap="round" stroke-linejoin="round"/></marker><marker id="mk-neutral" viewBox="0 0 10 10" refX="8" refY="5" markerWidth="6.5" markerHeight="6.5" orient="auto-start-reverse"><path d="M0,0 L10,5 L0,10 z" fill="#6e7681"/></marker><marker id="mko-neutral" viewBox="0 0 10 10" refX="10" refY="5" markerWidth="6.5" markerHeight="6.5" orient="auto-start-reverse"><path d="M2,1 L10,5 L2,9" fill="none" stroke="#6e7681" stroke-width="1.6" stroke-linecap="round" stroke-linejoin="round"/></marker></defs>
<rect x="0" y="0" width="860" height="532" rx="12" fill="#0d1117"/>
<rect x="0" y="0" width="860" height="532" rx="12" fill="url(#dots)"/>
<g><rect class="lanebox" x="16" y="44" width="404" height="472" rx="12" fill="rgba(110,118,129,.07)"/>
<text class="lanelabel" x="32" y="68" font-size="10" font-weight="700" letter-spacing=".12em" fill="#9198a1">REVIEW CORE · LENSES, PROMPTS, CONTEXT, ANSWERS</text>
<rect class="lanebox" x="440" y="44" width="404" height="472" rx="12" fill="rgba(110,118,129,.07)"/>
<text class="lanelabel" x="456" y="68" font-size="10" font-weight="700" letter-spacing=".12em" fill="#9198a1">DECIDE AND RECORD · REDUCER, JOURNAL, SARIF, POST</text></g>
<g><path class="edge edge-added" d="M456,106 L433,106 C420.3,106 410,116.3 410,129 L410,154 C410,172.78 394.78,188 376,188 L131,188 C126.03,188 122,192.03 122,197 L122,206" marker-end="url(#mk-added)" fill="none" stroke="#3fb950" stroke-width="1.5"/>
<path class="edge edge-added" d="M456,123 L443,123 C435.82,123 430,128.82 430,136 L430,260 C430,278.78 414.78,294 396,294 L135,294 C127.82,294 122,299.82 122,307 L122,320" marker-end="url(#mk-added)" fill="none" stroke="#3fb950" stroke-width="1.5"/>
<path class="edge edge-added" d="M456,114.5 L438,114.5 C428.06,114.5 420,122.56 420,132.5 L420,229 C420,233.42 416.42,237 412,237 L404,237" marker-end="url(#mk-added)" fill="none" stroke="#3fb950" stroke-width="1.5"/>
<path class="edge edge-added" d="M456,131.5 L448,131.5 C443.58,131.5 440,135.08 440,139.5 L440,333 C440,342.94 431.94,351 422,351 L404,351" marker-end="url(#mk-added)" fill="none" stroke="#3fb950" stroke-width="1.5"/>
<path class="edge edge-added" d="M456,140 L453,140 C451.34,140 450,141.34 450,143 L450,442 C450,454.7 439.7,465 427,465 L404,465" marker-end="url(#mk-added)" fill="none" stroke="#3fb950" stroke-width="1.5"/>
<path class="edge edge-added" d="M642,154 L642,206" marker-end="url(#mk-added)" fill="none" stroke="#3fb950" stroke-width="1.5"/></g>
<g><g class="cardsh" filter="drop-shadow(0 1px 2px rgba(0,0,0,.28))"><rect class="card card-added" x="32" y="206" width="180" height="62" rx="10" fill="#1c2128" stroke-width="1" stroke="#3fb950" stroke-opacity="0.55"/>
<rect class="chip" x="46" y="224" width="26" height="26" rx="7" fill="rgba(110,118,129,.18)"/><g><text class="glyph" x="59" y="241.5" text-anchor="middle" fill="#9198a1" font-size="11" font-family="ui-monospace, SFMono-Regular, &quot;SF Mono&quot;, Menlo, Consolas, monospace">{ }</text></g>
<text class="ntitle" x="82" y="233" font-size="11.5" font-weight="600" fill="#e6edf3">Lens catalogue</text>
<text class="nsub" x="82" y="251" font-size="9.5" fill="#9198a1" font-family="ui-monospace, SFMono-Regular, &quot;SF Mono&quot;, Menlo, Consolas, monospace">lenses.rs</text>
<g class="bdg bdg-added"><rect x="164.45" y="198" width="40.55" height="16" rx="8" fill="rgba(46,160,67,.15)" stroke="rgba(63,185,80,.4)" stroke-width="1"/><text x="184.73" y="209" text-anchor="middle" font-size="8.5" font-weight="700" letter-spacing=".06em" fill="#3fb950">NEW</text></g></g>
<g class="cardsh" filter="drop-shadow(0 1px 2px rgba(0,0,0,.28))"><rect class="card card-added" x="224" y="206" width="180" height="62" rx="10" fill="#1c2128" stroke-width="1" stroke="#3fb950" stroke-opacity="0.55"/>
<rect class="chip" x="238" y="224" width="26" height="26" rx="7" fill="rgba(110,118,129,.18)"/><g><text class="glyph" x="251" y="241.5" text-anchor="middle" fill="#9198a1" font-size="11" font-family="ui-monospace, SFMono-Regular, &quot;SF Mono&quot;, Menlo, Consolas, monospace">{ }</text></g>
<text class="ntitle" x="274" y="233" font-size="11.5" font-weight="600" fill="#e6edf3">Prompt renderer</text>
<text class="nsub" x="274" y="251" font-size="9.5" fill="#9198a1" font-family="ui-monospace, SFMono-Regular, &quot;SF Mono&quot;, Menlo, Consolas, monospace">review_prompt.rs</text>
<g class="bdg bdg-added"><rect x="356.45" y="198" width="40.55" height="16" rx="8" fill="rgba(46,160,67,.15)" stroke="rgba(63,185,80,.4)" stroke-width="1"/><text x="376.73" y="209" text-anchor="middle" font-size="8.5" font-weight="700" letter-spacing=".06em" fill="#3fb950">NEW</text></g></g>
<g class="cardsh" filter="drop-shadow(0 1px 2px rgba(0,0,0,.28))"><rect class="card card-added" x="32" y="320" width="180" height="62" rx="10" fill="#1c2128" stroke-width="1" stroke="#3fb950" stroke-opacity="0.55"/>
<rect class="chip" x="46" y="338" width="26" height="26" rx="7" fill="rgba(110,118,129,.18)"/><g><text class="glyph" x="59" y="355.5" text-anchor="middle" fill="#9198a1" font-size="11" font-family="ui-monospace, SFMono-Regular, &quot;SF Mono&quot;, Menlo, Consolas, monospace">{ }</text></g>
<text class="ntitle" x="82" y="347" font-size="11.5" font-weight="600" fill="#e6edf3">Prompt metadata</text>
<text class="nsub" x="82" y="365" font-size="9.5" fill="#9198a1" font-family="ui-monospace, SFMono-Regular, &quot;SF Mono&quot;, Menlo, Consolas, monospace">review_context.rs</text>
<g class="bdg bdg-added"><rect x="164.45" y="312" width="40.55" height="16" rx="8" fill="rgba(46,160,67,.15)" stroke="rgba(63,185,80,.4)" stroke-width="1"/><text x="184.73" y="323" text-anchor="middle" font-size="8.5" font-weight="700" letter-spacing=".06em" fill="#3fb950">NEW</text></g></g>
<g class="cardsh" filter="drop-shadow(0 1px 2px rgba(0,0,0,.28))"><rect class="card card-added" x="224" y="320" width="180" height="62" rx="10" fill="#1c2128" stroke-width="1" stroke="#3fb950" stroke-opacity="0.55"/>
<rect class="chip" x="238" y="338" width="26" height="26" rx="7" fill="rgba(110,118,129,.18)"/><g><text class="glyph" x="251" y="355.5" text-anchor="middle" fill="#9198a1" font-size="11" font-family="ui-monospace, SFMono-Regular, &quot;SF Mono&quot;, Menlo, Consolas, monospace">{ }</text></g>
<text class="ntitle" x="274" y="347" font-size="10.5" font-weight="600" fill="#e6edf3">Answer schema and…</text>
<text class="nsub" x="274" y="365" font-size="9.5" fill="#9198a1" font-family="ui-monospace, SFMono-Regular, &quot;SF Mono&quot;, Menlo, Consolas, monospace">answer.rs</text>
<g class="bdg bdg-added"><rect x="356.45" y="312" width="40.55" height="16" rx="8" fill="rgba(46,160,67,.15)" stroke="rgba(63,185,80,.4)" stroke-width="1"/><text x="376.73" y="323" text-anchor="middle" font-size="8.5" font-weight="700" letter-spacing=".06em" fill="#3fb950">NEW</text></g></g>
<g class="cardsh" filter="drop-shadow(0 1px 2px rgba(0,0,0,.28))"><rect class="card card-added" x="32" y="434" width="372" height="62" rx="10" fill="#1c2128" stroke-width="1" stroke="#3fb950" stroke-opacity="0.55"/>
<rect class="chip" x="46" y="452" width="26" height="26" rx="7" fill="rgba(110,118,129,.18)"/><g><text class="glyph" x="59" y="469.5" text-anchor="middle" fill="#9198a1" font-size="11" font-family="ui-monospace, SFMono-Regular, &quot;SF Mono&quot;, Menlo, Consolas, monospace">{ }</text></g>
<text class="ntitle" x="82" y="461" font-size="13" font-weight="600" fill="#e6edf3">Quote verification</text>
<text class="nsub" x="82" y="479" font-size="9.5" fill="#9198a1" font-family="ui-monospace, SFMono-Regular, &quot;SF Mono&quot;, Menlo, Consolas, monospace">quotes.rs</text>
<g class="bdg bdg-added"><rect x="356.45" y="426" width="40.55" height="16" rx="8" fill="rgba(46,160,67,.15)" stroke="rgba(63,185,80,.4)" stroke-width="1"/><text x="376.73" y="437" text-anchor="middle" font-size="8.5" font-weight="700" letter-spacing=".06em" fill="#3fb950">NEW</text></g></g>
<g class="cardsh" filter="drop-shadow(0 1px 2px rgba(0,0,0,.28))"><rect class="card card-added" x="456" y="92" width="372" height="62" rx="10" fill="#1c2128" stroke-width="1" stroke="#3fb950" stroke-opacity="0.55"/>
<rect class="chip" x="470" y="110" width="26" height="26" rx="7" fill="rgba(110,118,129,.18)"/><g><text class="glyph" x="483" y="127.5" text-anchor="middle" fill="#9198a1" font-size="11" font-family="ui-monospace, SFMono-Regular, &quot;SF Mono&quot;, Menlo, Consolas, monospace">{ }</text></g>
<text class="ntitle" x="506" y="119" font-size="13" font-weight="600" fill="#e6edf3">Review run orchestration</text>
<text class="nsub" x="506" y="137" font-size="9.5" fill="#9198a1" font-family="ui-monospace, SFMono-Regular, &quot;SF Mono&quot;, Menlo, Consolas, monospace">review_run.rs</text>
<g class="bdg bdg-added"><rect x="780.45" y="84" width="40.55" height="16" rx="8" fill="rgba(46,160,67,.15)" stroke="rgba(63,185,80,.4)" stroke-width="1"/><text x="800.73" y="95" text-anchor="middle" font-size="8.5" font-weight="700" letter-spacing=".06em" fill="#3fb950">NEW</text></g></g>
<g class="cardsh" filter="drop-shadow(0 1px 2px rgba(0,0,0,.28))"><rect class="card card-added" x="456" y="206" width="372" height="62" rx="10" fill="#1c2128" stroke-width="1" stroke="#3fb950" stroke-opacity="0.55"/>
<rect class="chip" x="470" y="224" width="26" height="26" rx="7" fill="rgba(110,118,129,.18)"/><g><text class="glyph" x="483" y="241.5" text-anchor="middle" fill="#9198a1" font-size="11" font-family="ui-monospace, SFMono-Regular, &quot;SF Mono&quot;, Menlo, Consolas, monospace">{ }</text></g>
<text class="ntitle" x="506" y="233" font-size="13" font-weight="600" fill="#e6edf3">Reducer</text>
<text class="nsub" x="506" y="251" font-size="9.5" fill="#9198a1" font-family="ui-monospace, SFMono-Regular, &quot;SF Mono&quot;, Menlo, Consolas, monospace">reducer.rs</text>
<g class="bdg bdg-added"><rect x="780.45" y="198" width="40.55" height="16" rx="8" fill="rgba(46,160,67,.15)" stroke="rgba(63,185,80,.4)" stroke-width="1"/><text x="800.73" y="209" text-anchor="middle" font-size="8.5" font-weight="700" letter-spacing=".06em" fill="#3fb950">NEW</text></g></g></g>
<g><g><rect class="lpill" x="220.04" y="180.5" width="66.93" height="15" rx="7.5" fill="#0d1117" stroke="#21262d" stroke-width="1"/><text class="ltext ltext-added" x="253.5" y="191.5" text-anchor="middle" font-size="9.5" font-weight="600" fill="#3fb950">load, select</text></g>
<g><rect class="lpill" x="212.17" y="286.5" width="106.67" height="15" rx="7.5" fill="#0d1117" stroke="#21262d" stroke-width="1"/><text class="ltext ltext-added" x="265.5" y="297.5" text-anchor="middle" font-size="9.5" font-weight="600" fill="#3fb950">build, ChangeFolder</text></g>
<g><rect class="lpill" x="360.27" y="171" width="69.73" height="15" rx="7.5" fill="#0d1117" stroke="#21262d" stroke-width="1"/><text class="ltext ltext-added" x="395.14" y="182" text-anchor="middle" font-size="9.5" font-weight="600" fill="#3fb950">load, render</text></g>
<g><rect class="lpill" x="405.54" y="293" width="108.92" height="15" rx="7.5" fill="#0d1117" stroke="#21262d" stroke-width="1"/><text class="ltext ltext-added" x="460" y="304" text-anchor="middle" font-size="9.5" font-weight="600" fill="#3fb950">extract_and_validate</text></g>
<g><rect class="lpill" x="440" y="318" width="42.3" height="15" rx="7.5" fill="#0d1117" stroke="#21262d" stroke-width="1"/><text class="ltext ltext-added" x="461.15" y="329" text-anchor="middle" font-size="9.5" font-weight="600" fill="#3fb950">check</text></g>
<g><rect class="lpill" x="589.5" y="172.5" width="105" height="15" rx="7.5" fill="#0d1117" stroke="#21262d" stroke-width="1"/><text class="ltext ltext-added" x="642" y="183.5" text-anchor="middle" font-size="9.5" font-weight="600" fill="#3fb950">decide_lens, decide</text></g></g>
</svg>