<svg xmlns="http://www.w3.org/2000/svg" viewBox="0 0 1284 418" width="1284" height="418" role="img" aria-label="Symlink test coverage" font-family="-apple-system, BlinkMacSystemFont, &quot;Segoe UI&quot;, &quot;Noto Sans&quot;, Helvetica, Arial, sans-serif">
<title>Symlink test coverage</title>
<desc>The five new integration cases and the shared `TempRepo::symlink` helper they rest on.</desc>
<defs><pattern id="dots" width="18" height="18" patternUnits="userSpaceOnUse"><circle cx="1.5" cy="1.5" r="1" fill="rgba(140,149,159,.5)"/></pattern><marker id="mk-added" viewBox="0 0 10 10" refX="8" refY="5" markerWidth="6.5" markerHeight="6.5" orient="auto-start-reverse"><path d="M0,0 L10,5 L0,10 z" fill="#1f883d"/></marker><marker id="mko-added" viewBox="0 0 10 10" refX="10" refY="5" markerWidth="6.5" markerHeight="6.5" orient="auto-start-reverse"><path d="M2,1 L10,5 L2,9" fill="none" stroke="#1f883d" stroke-width="1.6" stroke-linecap="round" stroke-linejoin="round"/></marker><marker id="mk-modified" viewBox="0 0 10 10" refX="8" refY="5" markerWidth="6.5" markerHeight="6.5" orient="auto-start-reverse"><path d="M0,0 L10,5 L0,10 z" fill="#bf8700"/></marker><marker id="mko-modified" viewBox="0 0 10 10" refX="10" refY="5" markerWidth="6.5" markerHeight="6.5" orient="auto-start-reverse"><path d="M2,1 L10,5 L2,9" fill="none" stroke="#bf8700" stroke-width="1.6" stroke-linecap="round" stroke-linejoin="round"/></marker><marker id="mk-removed" viewBox="0 0 10 10" refX="8" refY="5" markerWidth="6.5" markerHeight="6.5" orient="auto-start-reverse"><path d="M0,0 L10,5 L0,10 z" fill="#cf222e"/></marker><marker id="mko-removed" viewBox="0 0 10 10" refX="10" refY="5" markerWidth="6.5" markerHeight="6.5" orient="auto-start-reverse"><path d="M2,1 L10,5 L2,9" fill="none" stroke="#cf222e" stroke-width="1.6" stroke-linecap="round" stroke-linejoin="round"/></marker><marker id="mk-neutral" viewBox="0 0 10 10" refX="8" refY="5" markerWidth="6.5" markerHeight="6.5" orient="auto-start-reverse"><path d="M0,0 L10,5 L0,10 z" fill="#8c959f"/></marker><marker id="mko-neutral" viewBox="0 0 10 10" refX="10" refY="5" markerWidth="6.5" markerHeight="6.5" orient="auto-start-reverse"><path d="M2,1 L10,5 L2,9" fill="none" stroke="#8c959f" stroke-width="1.6" stroke-linecap="round" stroke-linejoin="round"/></marker></defs>
<rect x="0" y="0" width="1284" height="418" rx="12" fill="#f4f5f7"/>
<rect x="0" y="0" width="1284" height="418" rx="12" fill="url(#dots)"/>
<g><rect class="lanebox" x="16" y="44" width="404" height="358" rx="12" fill="rgba(255,255,255,.55)"/>
<text class="lanelabel" x="32" y="68" font-size="10" font-weight="700" letter-spacing=".12em" fill="#59636e">OSF ENGINE · CRATES/OSF</text>
<rect class="lanebox" x="440" y="44" width="404" height="358" rx="12" fill="rgba(255,255,255,.55)"/>
<text class="lanelabel" x="456" y="68" font-size="10" font-weight="700" letter-spacing=".12em" fill="#59636e">FILESYSTEM · WORKING TREE AND GIT INDEX</text>
<rect class="lanebox" x="864" y="44" width="404" height="358" rx="12" fill="rgba(255,255,255,.55)"/>
<text class="lanelabel" x="880" y="68" font-size="10" font-weight="700" letter-spacing=".12em" fill="#59636e">AGENT RULES · AGENTS.MD, SKILLS, CI CHECKS</text></g>
<g><path class="edge edge-added" d="M404,245 L421,245 C430.39,245 438,252.61 438,262 L438,342 C438,346.97 442.03,351 447,351 L456,351" marker-end="url(#mk-added)" fill="none" stroke="#1f883d" stroke-width="1.5"/>
<path class="edge edge-added" d="M880,123 L867,123 C859.82,123 854,128.82 854,136 L854,151.5 C854,167.24 841.24,180 825.5,180 L446.5,180 C432.97,180 422,190.97 422,204.5 L422,220 C422,224.97 417.97,229 413,229 L404,229" marker-end="url(#mk-added)" fill="none" stroke="#1f883d" stroke-width="1.5"/></g>
<g><g class="cardsh" filter="drop-shadow(0 1px 2px rgba(31,35,40,.14))"><rect class="card card-modified" x="32" y="206" width="372" height="62" rx="10" fill="#ffffff" stroke-width="1" stroke="#bf8700" stroke-opacity="0.5"/>
<rect class="chip" x="46" y="224" width="26" height="26" rx="7" fill="#f1f3f5"/><g><text class="glyph" x="59" y="241.5" text-anchor="middle" fill="#59636e" font-size="14" font-style="italic" font-family="Georgia,serif">ƒ</text></g>
<text class="ntitle" x="82" y="233" font-size="13" font-weight="600" fill="#1f2328">scan_paths</text>
<text class="nsub" x="82" y="251" font-size="9.5" fill="#59636e" font-family="ui-monospace, SFMono-Regular, &quot;SF Mono&quot;, Menlo, Consolas, monospace">pub fn scan_paths(dir, paths, rules, excluder)</text>
<g class="bdg bdg-modified"><rect x="330.38" y="198" width="66.62" height="16" rx="8" fill="#fae17d" stroke="rgba(154,103,0,.55)" stroke-width="1"/><text x="363.69" y="209" text-anchor="middle" font-size="8.5" font-weight="700" letter-spacing=".06em" fill="#7d4e00">CHANGED</text></g></g>
<g class="cardsh" filter="drop-shadow(0 1px 2px rgba(31,35,40,.14))"><rect class="card card-added" x="456" y="320" width="372" height="62" rx="10" fill="#ffffff" stroke-width="1" stroke="#1f883d" stroke-opacity="0.55"/>
<rect class="chip" x="470" y="338" width="26" height="26" rx="7" fill="#f1f3f5"/><g><circle class="glyph" fill="#59636e" cx="478" cy="351" r="1.8"/>
<circle class="glyph" fill="#59636e" cx="483" cy="351" r="1.8"/>
<circle class="glyph" fill="#59636e" cx="488" cy="351" r="1.8"/></g>
<text class="ntitle" x="506" y="347" font-size="13" font-weight="600" fill="#1f2328">Symlinks</text>
<text class="nsub" x="506" y="365" font-size="9.5" fill="#59636e" font-family="ui-monospace, SFMono-Regular, &quot;SF Mono&quot;, Menlo, Consolas, monospace">counted, never followed</text>
<g class="bdg bdg-added"><rect x="780.45" y="312" width="40.55" height="16" rx="8" fill="#b9f0c4" stroke="rgba(31,136,61,.55)" stroke-width="1"/><text x="800.73" y="323" text-anchor="middle" font-size="8.5" font-weight="700" letter-spacing=".06em" fill="#116329">NEW</text></g></g>
<g class="cardsh" filter="drop-shadow(0 1px 2px rgba(31,35,40,.14))"><rect class="card card-modified" x="880" y="92" width="372" height="62" rx="10" fill="#ffffff" stroke-width="1" stroke="#bf8700" stroke-opacity="0.5"/>
<rect class="chip" x="894" y="110" width="26" height="26" rx="7" fill="#f1f3f5"/><g><path class="glyph-stroke" d="M901,123 l4,4 l8,-8" stroke="#59636e" stroke-width="1.4" fill="none"/></g>
<text class="ntitle" x="930" y="119" font-size="13" font-weight="600" fill="#1f2328">scan.rs tests</text>
<text class="nsub" x="930" y="137" font-size="9.5" fill="#59636e" font-family="ui-monospace, SFMono-Regular, &quot;SF Mono&quot;, Menlo, Consolas, monospace">5 new symlink cases</text>
<g class="bdg bdg-modified"><rect x="1178.38" y="84" width="66.62" height="16" rx="8" fill="#fae17d" stroke="rgba(154,103,0,.55)" stroke-width="1"/><text x="1211.69" y="95" text-anchor="middle" font-size="8.5" font-weight="700" letter-spacing=".06em" fill="#7d4e00">CHANGED</text></g></g></g>
<g><g><rect class="lpill" x="383.82" y="293" width="108.36" height="15" rx="7.5" fill="#ffffff" stroke="#d8dee4" stroke-width="1"/><text class="ltext ltext-added" x="438" y="304" text-anchor="middle" font-size="9.5" font-weight="600" fill="#116329">counted as excluded</text></g>
<g><rect class="lpill" x="592.47" y="172.5" width="87.06" height="15" rx="7.5" fill="#ffffff" stroke="#d8dee4" stroke-width="1"/><text class="ltext ltext-added" x="636" y="183.5" text-anchor="middle" font-size="9.5" font-weight="600" fill="#116329">5 symlink cases</text></g></g>
</svg>