<svg xmlns="http://www.w3.org/2000/svg" viewBox="0 0 1748 650" width="1748" height="650" role="img" aria-label="Harness seam and the dsh adapter" font-family="-apple-system, BlinkMacSystemFont, &quot;Segoe UI&quot;, &quot;Noto Sans&quot;, Helvetica, Arial, sans-serif">
<title>Harness seam and the dsh adapter</title>
<desc>The neutral traits and data types, the dsh adapter that implements them, and the two external processes reached only through a CommandRunner.</desc>
<defs><pattern id="dots" width="18" height="18" patternUnits="userSpaceOnUse"><circle cx="1.5" cy="1.5" r="1" fill="rgba(110,118,129,.22)"/></pattern><marker id="mk-added" viewBox="0 0 10 10" refX="8" refY="5" markerWidth="6.5" markerHeight="6.5" orient="auto-start-reverse"><path d="M0,0 L10,5 L0,10 z" fill="#3fb950"/></marker><marker id="mko-added" viewBox="0 0 10 10" refX="10" refY="5" markerWidth="6.5" markerHeight="6.5" orient="auto-start-reverse"><path d="M2,1 L10,5 L2,9" fill="none" stroke="#3fb950" stroke-width="1.6" stroke-linecap="round" stroke-linejoin="round"/></marker><marker id="mk-modified" viewBox="0 0 10 10" refX="8" refY="5" markerWidth="6.5" markerHeight="6.5" orient="auto-start-reverse"><path d="M0,0 L10,5 L0,10 z" fill="#d29922"/></marker><marker id="mko-modified" viewBox="0 0 10 10" refX="10" refY="5" markerWidth="6.5" markerHeight="6.5" orient="auto-start-reverse"><path d="M2,1 L10,5 L2,9" fill="none" stroke="#d29922" stroke-width="1.6" stroke-linecap="round" stroke-linejoin="round"/></marker><marker id="mk-removed" viewBox="0 0 10 10" refX="8" refY="5" markerWidth="6.5" markerHeight="6.5" orient="auto-start-reverse"><path d="M0,0 L10,5 L0,10 z" fill="#f85149"/></marker><marker id="mko-removed" viewBox="0 0 10 10" refX="10" refY="5" markerWidth="6.5" markerHeight="6.5" orient="auto-start-reverse"><path d="M2,1 L10,5 L2,9" fill="none" stroke="#f85149" stroke-width="1.6" stroke-linecap="round" stroke-linejoin="round"/></marker><marker id="mk-neutral" viewBox="0 0 10 10" refX="8" refY="5" markerWidth="6.5" markerHeight="6.5" orient="auto-start-reverse"><path d="M0,0 L10,5 L0,10 z" fill="#6e7681"/></marker><marker id="mko-neutral" viewBox="0 0 10 10" refX="10" refY="5" markerWidth="6.5" markerHeight="6.5" orient="auto-start-reverse"><path d="M2,1 L10,5 L2,9" fill="none" stroke="#6e7681" stroke-width="1.6" stroke-linecap="round" stroke-linejoin="round"/></marker></defs>
<rect x="0" y="0" width="1748" height="650" rx="12" fill="#0d1117"/>
<rect x="0" y="0" width="1748" height="650" rx="12" fill="url(#dots)"/>
<g><rect class="lanebox" x="16" y="44" width="404" height="588" rx="12" fill="rgba(110,118,129,.07)"/>
<text class="lanelabel" x="32" y="68" font-size="10" font-weight="700" letter-spacing=".12em" fill="#9198a1">FACTORY CALLER · OSF CRATE</text>
<rect class="lanebox" x="440" y="44" width="404" height="588" rx="12" fill="rgba(110,118,129,.07)"/>
<text class="lanelabel" x="456" y="68" font-size="10" font-weight="700" letter-spacing=".12em" fill="#9198a1">NEUTRAL HARNESS SEAM · CRATES/OSF/SRC/HARNESS</text>
<rect class="lanebox" x="904" y="44" width="404" height="588" rx="12" fill="rgba(110,118,129,.07)"/>
<text class="lanelabel" x="920" y="68" font-size="10" font-weight="700" letter-spacing=".12em" fill="#9198a1">DSH ADAPTER · CRATES/OSF/SRC/DSH_HARNESS.RS</text>
<rect class="lanebox" x="1328" y="44" width="404" height="588" rx="12" fill="rgba(110,118,129,.07)"/>
<text class="lanelabel" x="1344" y="68" font-size="10" font-weight="700" letter-spacing=".12em" fill="#9198a1">EXTERNAL PROCESSES · DSH AND GIT</text></g>
<g><path class="edge edge-neutral context" d="M404,123 L417,123 C424.18,123 430,128.82 430,136 L430,330 C430,337.18 435.82,343 443,343 L456,343" marker-end="url(#mk-neutral)" fill="none" stroke="#6e7681" stroke-width="1.5" opacity="0.82"/>
<path class="glow" stroke="#3fb950" d="M456,359 L451,359 C448.24,359 446,361.24 446,364 L446,582 C446,584.76 448.24,587 451,587 L456,587" fill="none" stroke-width="7" opacity="0.14"/>
<path class="edge edge-added hero" d="M456,359 L451,359 C448.24,359 446,361.24 446,364 L446,582 C446,584.76 448.24,587 451,587 L456,587" marker-end="url(#mk-added)" fill="none" stroke="#3fb950" stroke-width="2.25"/>
<path class="edge edge-added" d="M920,220 L887,220 C868.77,220 854,234.77 854,253 L854,354 C854,361.18 848.18,367 841,367 L828,367" marker-end="url(#mk-added)" fill="none" stroke="#3fb950" stroke-width="1.5"/>
<path class="edge edge-added" d="M1106,268 L1106,320" marker-end="url(#mk-added)" fill="none" stroke="#3fb950" stroke-width="1.5"/>
<path class="edge edge-added" d="M920,237 L897,237 C884.3,237 874,247.3 874,260 L874,442 C874,454.7 884.3,465 897,465 L920,465" marker-end="url(#mk-added)" fill="none" stroke="#3fb950" stroke-width="1.5"/>
<path class="edge edge-added" d="M1292,237 L1297,237 C1299.76,237 1302,239.24 1302,242 L1302,460 C1302,462.76 1299.76,465 1297,465 L1292,465" marker-end="url(#mk-added)" fill="none" stroke="#3fb950" stroke-width="1.5"/>
<path class="edge edge-added" d="M920,254 L907,254 C899.82,254 894,259.82 894,267 L894,566 C894,573.18 899.82,579 907,579 L920,579" marker-end="url(#mk-added)" fill="none" stroke="#3fb950" stroke-width="1.5"/>
<path class="edge edge-added" d="M920,245.5 L902,245.5 C892.06,245.5 884,253.56 884,263.5 L884,437 C884,452.46 871.46,465 856,465 L828,465" marker-end="url(#mk-added)" fill="none" stroke="#3fb950" stroke-width="1.5"/>
<path class="edge edge-added" d="M920,228.5 L892,228.5 C876.54,228.5 864,241.04 864,256.5 L864,374 C864,392.78 848.78,408 830,408 L559,408 C551.82,408 546,413.82 546,421 L546,434" marker-end="url(#mk-added)" fill="none" stroke="#3fb950" stroke-width="1.5"/>
<path class="glow" stroke="#6e7681" d="M828,571 L881.5,571 C893.93,571 904,581.07 904,593.5 C904,605.93 914.07,616 926.5,616 L1315.5,616 C1325.72,616 1334,607.72 1334,597.5 L1334,584 C1334,581.24 1336.24,579 1339,579 L1344,579" fill="none" stroke-width="7" opacity="0.14"/>
<path class="edge edge-neutral hero context" d="M828,571 L881.5,571 C893.93,571 904,581.07 904,593.5 C904,605.93 914.07,616 926.5,616 L1315.5,616 C1325.72,616 1334,607.72 1334,597.5 L1334,584 C1334,581.24 1336.24,579 1339,579 L1344,579" marker-end="url(#mk-neutral)" fill="none" stroke="#6e7681" stroke-width="2.25" opacity="0.82"/>
<path class="edge edge-neutral context" d="M828,587 L894.5,587 C905.27,587 914,595.73 914,606.5 C914,617.27 922.73,626 933.5,626 L1284,626 C1302.78,626 1318,610.78 1318,592 L1318,556 C1318,537.22 1333.22,522 1352,522 L1613,522 C1620.18,522 1626,527.82 1626,535 L1626,548" marker-end="url(#mk-neutral)" fill="none" stroke="#6e7681" stroke-width="1.5" opacity="0.82"/>
<path class="edge edge-added" d="M456,123 L435,123 C423.4,123 414,132.4 414,144 L414,550 C414,561.6 423.4,571 435,571 L456,571" marker-end="url(#mk-added)" fill="none" stroke="#3fb950" stroke-width="1.5"/>
<path class="edge edge-added" d="M828,123 L831,123 C832.66,123 834,124.34 834,126 L834,332 C834,333.66 832.66,335 831,335 L828,335" marker-end="url(#mk-added)" fill="none" stroke="#3fb950" stroke-width="1.5"/>
<path class="edge edge-added" d="M920,123 L878,123 C859.22,123 844,138.22 844,157 L844,343 C844,347.42 840.42,351 836,351 L828,351" marker-end="url(#mk-added)" fill="none" stroke="#3fb950" stroke-width="1.5"/>
<path class="edge edge-added" d="M1154,154 L1154,206" marker-end="url(#mk-added)" fill="none" stroke="#3fb950" stroke-width="1.5"/></g>
<g><g class="cardsh context" filter="drop-shadow(0 1px 2px rgba(0,0,0,.28))" opacity="0.82"><rect class="card" x="32" y="92" width="372" height="62" rx="10" fill="#1c2128" stroke-width="1" stroke="#3d444d"/>
<rect class="chip" x="46" y="110" width="26" height="26" rx="7" fill="rgba(110,118,129,.18)"/><g><text class="glyph" x="59" y="127.5" text-anchor="middle" fill="#9198a1" font-size="11" font-family="ui-monospace, SFMono-Regular, &quot;SF Mono&quot;, Menlo, Consolas, monospace">{ }</text></g>
<text class="ntitle" x="82" y="119" font-size="13" font-weight="600" fill="#e6edf3">Factory caller</text>
<text class="nsub" x="82" y="137" font-size="9.5" fill="#9198a1" font-family="ui-monospace, SFMono-Regular, &quot;SF Mono&quot;, Menlo, Consolas, monospace">holds &amp;dyn Harness + &amp;dyn CommandRunner</text></g>
<g class="cardsh" filter="drop-shadow(0 1px 2px rgba(0,0,0,.28))"><rect class="card card-added" x="456" y="92" width="180" height="62" rx="10" fill="#1c2128" stroke-width="1" stroke="#3fb950" stroke-opacity="0.55"/>
<rect class="chip" x="470" y="110" width="26" height="26" rx="7" fill="rgba(110,118,129,.18)"/><g><path class="glyph-stroke" d="M477,123 l4,4 l8,-8" stroke="#9198a1" stroke-width="1.4" fill="none"/></g>
<text class="ntitle" x="506" y="119" font-size="11.5" font-weight="600" fill="#e6edf3">FakeRunner</text>
<text class="nsub" x="506" y="137" font-size="9.5" fill="#9198a1" font-family="ui-monospace, SFMono-Regular, &quot;SF Mono&quot;, Menlo, Consolas, monospace">replays scripted Co…</text>
<g class="bdg bdg-added"><rect x="588.45" y="84" width="40.55" height="16" rx="8" fill="rgba(46,160,67,.15)" stroke="rgba(63,185,80,.4)" stroke-width="1"/><text x="608.73" y="95" text-anchor="middle" font-size="8.5" font-weight="700" letter-spacing=".06em" fill="#3fb950">NEW</text></g></g>
<g class="cardsh" filter="drop-shadow(0 1px 2px rgba(0,0,0,.28))"><rect class="card card-added" x="648" y="92" width="180" height="62" rx="10" fill="#1c2128" stroke-width="1" stroke="#3fb950" stroke-opacity="0.55"/>
<rect class="chip" x="662" y="110" width="26" height="26" rx="7" fill="rgba(110,118,129,.18)"/><g><path class="glyph-stroke" d="M669,123 l4,4 l8,-8" stroke="#9198a1" stroke-width="1.4" fill="none"/></g>
<text class="ntitle" x="698" y="119" font-size="11.5" font-weight="600" fill="#e6edf3">FakeHarness</text>
<text class="nsub" x="698" y="137" font-size="9.5" fill="#9198a1" font-family="ui-monospace, SFMono-Regular, &quot;SF Mono&quot;, Menlo, Consolas, monospace">replays scripted Ha…</text>
<g class="bdg bdg-added"><rect x="780.45" y="84" width="40.55" height="16" rx="8" fill="rgba(46,160,67,.15)" stroke="rgba(63,185,80,.4)" stroke-width="1"/><text x="800.73" y="95" text-anchor="middle" font-size="8.5" font-weight="700" letter-spacing=".06em" fill="#3fb950">NEW</text></g></g>
<g class="cardsh" filter="drop-shadow(0 1px 2px rgba(0,0,0,.28))"><rect class="card card-added" x="456" y="320" width="372" height="62" rx="10" fill="#1c2128" stroke-width="1" stroke="#3fb950" stroke-opacity="0.55"/>
<rect class="chip" x="470" y="338" width="26" height="26" rx="7" fill="rgba(110,118,129,.18)"/><g><text class="glyph" x="483" y="355.5" text-anchor="middle" fill="#9198a1" font-size="11" font-family="ui-monospace, SFMono-Regular, &quot;SF Mono&quot;, Menlo, Consolas, monospace">{ }</text></g>
<text class="ntitle" x="506" y="347" font-size="13" font-weight="600" fill="#e6edf3">Harness trait</text>
<text class="nsub" x="506" y="365" font-size="9.5" fill="#9198a1" font-family="ui-monospace, SFMono-Regular, &quot;SF Mono&quot;, Menlo, Consolas, monospace">run(&amp;dyn CommandRunner, &amp;HarnessTask)</text>
<g class="bdg bdg-added"><rect x="780.45" y="312" width="40.55" height="16" rx="8" fill="rgba(46,160,67,.15)" stroke="rgba(63,185,80,.4)" stroke-width="1"/><text x="800.73" y="323" text-anchor="middle" font-size="8.5" font-weight="700" letter-spacing=".06em" fill="#3fb950">NEW</text></g></g>
<g class="cardsh" filter="drop-shadow(0 1px 2px rgba(0,0,0,.28))"><rect class="card card-added" x="456" y="434" width="180" height="62" rx="10" fill="#1c2128" stroke-width="1" stroke="#3fb950" stroke-opacity="0.55"/>
<rect class="chip" x="470" y="452" width="26" height="26" rx="7" fill="rgba(110,118,129,.18)"/><g><text class="glyph" x="483" y="469.5" text-anchor="middle" fill="#9198a1" font-size="11" font-family="ui-monospace, SFMono-Regular, &quot;SF Mono&quot;, Menlo, Consolas, monospace">{ }</text></g>
<text class="ntitle" x="506" y="461" font-size="10.5" font-weight="600" fill="#e6edf3">Result and capability t…</text>
<text class="nsub" x="506" y="479" font-size="9.5" fill="#9198a1" font-family="ui-monospace, SFMono-Regular, &quot;SF Mono&quot;, Menlo, Consolas, monospace">HarnessTask, Harnes…</text>
<g class="bdg bdg-added"><rect x="588.45" y="426" width="40.55" height="16" rx="8" fill="rgba(46,160,67,.15)" stroke="rgba(63,185,80,.4)" stroke-width="1"/><text x="608.73" y="437" text-anchor="middle" font-size="8.5" font-weight="700" letter-spacing=".06em" fill="#3fb950">NEW</text></g></g>
<g class="cardsh" filter="drop-shadow(0 1px 2px rgba(0,0,0,.28))"><rect class="card card-added" x="648" y="434" width="180" height="62" rx="10" fill="#1c2128" stroke-width="1" stroke="#3fb950" stroke-opacity="0.55"/>
<rect class="chip" x="662" y="452" width="26" height="26" rx="7" fill="rgba(110,118,129,.18)"/><g><text class="glyph" x="675" y="469.5" text-anchor="middle" fill="#9198a1" font-size="14" font-style="italic" font-family="Georgia,serif">ƒ</text></g>
<text class="ntitle" x="698" y="461" font-size="11.5" font-weight="600" fill="#e6edf3">build_prompt</text>
<text class="nsub" x="698" y="479" font-size="9.5" fill="#9198a1" font-family="ui-monospace, SFMono-Regular, &quot;SF Mono&quot;, Menlo, Consolas, monospace">task text + three r…</text>
<g class="bdg bdg-added"><rect x="780.45" y="426" width="40.55" height="16" rx="8" fill="rgba(46,160,67,.15)" stroke="rgba(63,185,80,.4)" stroke-width="1"/><text x="800.73" y="437" text-anchor="middle" font-size="8.5" font-weight="700" letter-spacing=".06em" fill="#3fb950">NEW</text></g></g>
<g class="cardsh" filter="drop-shadow(0 1px 2px rgba(0,0,0,.28))"><rect class="card card-added" x="456" y="548" width="372" height="62" rx="10" fill="#1c2128" stroke-width="1" stroke="#3fb950" stroke-opacity="0.55"/>
<rect class="chip" x="470" y="566" width="26" height="26" rx="7" fill="rgba(110,118,129,.18)"/><g><text class="glyph" x="483" y="583.5" text-anchor="middle" fill="#9198a1" font-size="11" font-family="ui-monospace, SFMono-Regular, &quot;SF Mono&quot;, Menlo, Consolas, monospace">{ }</text></g>
<text class="ntitle" x="506" y="575" font-size="13" font-weight="600" fill="#e6edf3">CommandRunner trait</text>
<text class="nsub" x="506" y="593" font-size="9.5" fill="#9198a1" font-family="ui-monospace, SFMono-Regular, &quot;SF Mono&quot;, Menlo, Consolas, monospace">run(&amp;CommandSpec) -&gt; CommandOutput</text>
<g class="bdg bdg-added"><rect x="780.45" y="540" width="40.55" height="16" rx="8" fill="rgba(46,160,67,.15)" stroke="rgba(63,185,80,.4)" stroke-width="1"/><text x="800.73" y="551" text-anchor="middle" font-size="8.5" font-weight="700" letter-spacing=".06em" fill="#3fb950">NEW</text></g></g>
<g class="cardsh" filter="drop-shadow(0 1px 2px rgba(0,0,0,.28))"><rect class="card card-added" x="920" y="92" width="180" height="62" rx="10" fill="#1c2128" stroke-width="1" stroke="#3fb950" stroke-opacity="0.55"/>
<rect class="chip" x="934" y="110" width="26" height="26" rx="7" fill="rgba(110,118,129,.18)"/><g><path class="glyph-stroke" d="M941,123 l4,4 l8,-8" stroke="#9198a1" stroke-width="1.4" fill="none"/></g>
<text class="ntitle" x="970" y="119" font-size="11.5" font-weight="600" fill="#e6edf3">Neutrality scanner</text>
<text class="nsub" x="970" y="137" font-size="9.5" fill="#9198a1" font-family="ui-monospace, SFMono-Regular, &quot;SF Mono&quot;, Menlo, Consolas, monospace">harness_neutral.rs</text>
<g class="bdg bdg-added"><rect x="1052.45" y="84" width="40.55" height="16" rx="8" fill="rgba(46,160,67,.15)" stroke="rgba(63,185,80,.4)" stroke-width="1"/><text x="1072.73" y="95" text-anchor="middle" font-size="8.5" font-weight="700" letter-spacing=".06em" fill="#3fb950">NEW</text></g></g>
<g class="cardsh" filter="drop-shadow(0 1px 2px rgba(0,0,0,.28))"><rect class="card card-added" x="1112" y="92" width="180" height="62" rx="10" fill="#1c2128" stroke-width="1" stroke="#3fb950" stroke-opacity="0.55"/>
<rect class="chip" x="1126" y="110" width="26" height="26" rx="7" fill="rgba(110,118,129,.18)"/><g><path class="glyph-stroke" d="M1133,123 l4,4 l8,-8" stroke="#9198a1" stroke-width="1.4" fill="none"/></g>
<text class="ntitle" x="1162" y="119" font-size="10.5" font-weight="600" fill="#e6edf3">End-to-end fake run t…</text>
<text class="nsub" x="1162" y="137" font-size="9.5" fill="#9198a1" font-family="ui-monospace, SFMono-Regular, &quot;SF Mono&quot;, Menlo, Consolas, monospace">harness_fake_run.rs</text>
<g class="bdg bdg-added"><rect x="1244.45" y="84" width="40.55" height="16" rx="8" fill="rgba(46,160,67,.15)" stroke="rgba(63,185,80,.4)" stroke-width="1"/><text x="1264.73" y="95" text-anchor="middle" font-size="8.5" font-weight="700" letter-spacing=".06em" fill="#3fb950">NEW</text></g></g>
<g class="cardsh" filter="drop-shadow(0 1px 2px rgba(0,0,0,.28))"><rect class="card card-added" x="920" y="206" width="372" height="62" rx="10" fill="#1c2128" stroke-width="1" stroke="#3fb950" stroke-opacity="0.55"/>
<rect class="chip" x="934" y="224" width="26" height="26" rx="7" fill="rgba(110,118,129,.18)"/><g><rect class="glyph-stroke" x="940.5" y="230.5" width="13" height="13" rx="3" stroke="#9198a1" stroke-width="1.4" fill="none"/>
<circle class="glyph" fill="#9198a1" cx="947" cy="237" r="2"/></g>
<text class="ntitle" x="970" y="233" font-size="13" font-weight="600" fill="#e6edf3">DshHarness</text>
<text class="nsub" x="970" y="251" font-size="9.5" fill="#9198a1" font-family="ui-monospace, SFMono-Regular, &quot;SF Mono&quot;, Menlo, Consolas, monospace">impl Harness for dsh</text>
<g class="bdg bdg-added"><rect x="1244.45" y="198" width="40.55" height="16" rx="8" fill="rgba(46,160,67,.15)" stroke="rgba(63,185,80,.4)" stroke-width="1"/><text x="1264.73" y="209" text-anchor="middle" font-size="8.5" font-weight="700" letter-spacing=".06em" fill="#3fb950">NEW</text></g></g>
<g class="cardsh" filter="drop-shadow(0 1px 2px rgba(0,0,0,.28))"><rect class="card card-added" x="920" y="320" width="372" height="62" rx="10" fill="#1c2128" stroke-width="1" stroke="#3fb950" stroke-opacity="0.55"/>
<rect class="chip" x="934" y="338" width="26" height="26" rx="7" fill="rgba(110,118,129,.18)"/><g><text class="glyph" x="947" y="355.5" text-anchor="middle" fill="#9198a1" font-size="14" font-style="italic" font-family="Georgia,serif">ƒ</text></g>
<text class="ntitle" x="970" y="347" font-size="13" font-weight="600" fill="#e6edf3">Command builders</text>
<text class="nsub" x="970" y="365" font-size="9.5" fill="#9198a1" font-family="ui-monospace, SFMono-Regular, &quot;SF Mono&quot;, Menlo, Consolas, monospace">build_command, status_command, probe_command</text>
<g class="bdg bdg-added"><rect x="1244.45" y="312" width="40.55" height="16" rx="8" fill="rgba(46,160,67,.15)" stroke="rgba(63,185,80,.4)" stroke-width="1"/><text x="1264.73" y="323" text-anchor="middle" font-size="8.5" font-weight="700" letter-spacing=".06em" fill="#3fb950">NEW</text></g></g>
<g class="cardsh" filter="drop-shadow(0 1px 2px rgba(0,0,0,.28))"><rect class="card card-added" x="920" y="434" width="180" height="62" rx="10" fill="#1c2128" stroke-width="1" stroke="#3fb950" stroke-opacity="0.55"/>
<rect class="chip" x="934" y="452" width="26" height="26" rx="7" fill="rgba(110,118,129,.18)"/><g><text class="glyph" x="947" y="469.5" text-anchor="middle" fill="#9198a1" font-size="14" font-style="italic" font-family="Georgia,serif">ƒ</text></g>
<text class="ntitle" x="970" y="461" font-size="11.5" font-weight="600" fill="#e6edf3">parse_events</text>
<text class="nsub" x="970" y="479" font-size="9.5" fill="#9198a1" font-family="ui-monospace, SFMono-Regular, &quot;SF Mono&quot;, Menlo, Consolas, monospace">JSONL -&gt; session, f…</text>
<g class="bdg bdg-added"><rect x="1052.45" y="426" width="40.55" height="16" rx="8" fill="rgba(46,160,67,.15)" stroke="rgba(63,185,80,.4)" stroke-width="1"/><text x="1072.73" y="437" text-anchor="middle" font-size="8.5" font-weight="700" letter-spacing=".06em" fill="#3fb950">NEW</text></g></g>
<g class="cardsh" filter="drop-shadow(0 1px 2px rgba(0,0,0,.28))"><rect class="card card-added" x="1112" y="434" width="180" height="62" rx="10" fill="#1c2128" stroke-width="1" stroke="#3fb950" stroke-opacity="0.55"/>
<rect class="chip" x="1126" y="452" width="26" height="26" rx="7" fill="rgba(110,118,129,.18)"/><g><text class="glyph" x="1139" y="469.5" text-anchor="middle" fill="#9198a1" font-size="14" font-style="italic" font-family="Georgia,serif">ƒ</text></g>
<text class="ntitle" x="1162" y="461" font-size="11.5" font-weight="600" fill="#e6edf3">parse_changed_files</text>
<text class="nsub" x="1162" y="479" font-size="9.5" fill="#9198a1" font-family="ui-monospace, SFMono-Regular, &quot;SF Mono&quot;, Menlo, Consolas, monospace">porcelain -z -&gt; sor…</text>
<g class="bdg bdg-added"><rect x="1244.45" y="426" width="40.55" height="16" rx="8" fill="rgba(46,160,67,.15)" stroke="rgba(63,185,80,.4)" stroke-width="1"/><text x="1264.73" y="437" text-anchor="middle" font-size="8.5" font-weight="700" letter-spacing=".06em" fill="#3fb950">NEW</text></g></g>
<g class="cardsh" filter="drop-shadow(0 1px 2px rgba(0,0,0,.28))"><rect class="card card-added" x="920" y="548" width="372" height="62" rx="10" fill="#1c2128" stroke-width="1" stroke="#3fb950" stroke-opacity="0.55"/>
<rect class="chip" x="934" y="566" width="26" height="26" rx="7" fill="rgba(110,118,129,.18)"/><g><text class="glyph" x="947" y="583.5" text-anchor="middle" fill="#9198a1" font-size="14" font-style="italic" font-family="Georgia,serif">ƒ</text></g>
<text class="ntitle" x="970" y="575" font-size="13" font-weight="600" fill="#e6edf3">Capability probes</text>
<text class="nsub" x="970" y="593" font-size="9.5" fill="#9198a1" font-family="ui-monospace, SFMono-Regular, &quot;SF Mono&quot;, Menlo, Consolas, monospace">probe_version, probe_headless</text>
<g class="bdg bdg-added"><rect x="1244.45" y="540" width="40.55" height="16" rx="8" fill="rgba(46,160,67,.15)" stroke="rgba(63,185,80,.4)" stroke-width="1"/><text x="1264.73" y="551" text-anchor="middle" font-size="8.5" font-weight="700" letter-spacing=".06em" fill="#3fb950">NEW</text></g></g>
<g class="cardsh context" filter="drop-shadow(0 1px 2px rgba(0,0,0,.28))" opacity="0.82"><rect class="card" x="1344" y="548" width="180" height="62" rx="10" fill="#1c2128" stroke-width="1" stroke="#3d444d"/>
<rect class="chip" x="1358" y="566" width="26" height="26" rx="7" fill="rgba(110,118,129,.18)"/><g><rect class="glyph-stroke" x="1363" y="573" width="16" height="12" rx="2" stroke="#9198a1" stroke-width="1.4" fill="none"/>
<path class="glyph-stroke" d="M1363,575 l8,6 8,-6" stroke="#9198a1" stroke-width="1.4" fill="none"/></g>
<text class="ntitle" x="1394" y="575" font-size="11.5" font-weight="600" fill="#e6edf3">dsh binary</text>
<text class="nsub" x="1394" y="593" font-size="9.5" fill="#9198a1" font-family="ui-monospace, SFMono-Regular, &quot;SF Mono&quot;, Menlo, Consolas, monospace">pinned 0.2.0-rc.2</text></g>
<g class="cardsh context" filter="drop-shadow(0 1px 2px rgba(0,0,0,.28))" opacity="0.82"><rect class="card" x="1536" y="548" width="180" height="62" rx="10" fill="#1c2128" stroke-width="1" stroke="#3d444d"/>
<rect class="chip" x="1550" y="566" width="26" height="26" rx="7" fill="rgba(110,118,129,.18)"/><g><rect class="glyph-stroke" x="1555" y="573" width="16" height="12" rx="2" stroke="#9198a1" stroke-width="1.4" fill="none"/>
<path class="glyph-stroke" d="M1555,575 l8,6 8,-6" stroke="#9198a1" stroke-width="1.4" fill="none"/></g>
<text class="ntitle" x="1586" y="575" font-size="11.5" font-weight="600" fill="#e6edf3">git</text>
<text class="nsub" x="1586" y="593" font-size="9.5" fill="#9198a1" font-family="ui-monospace, SFMono-Regular, &quot;SF Mono&quot;, Menlo, Consolas, monospace">status --porcelain=…</text></g></g>
<g><g><rect class="lpill" x="420" y="225.5" width="79.24" height="15" rx="7.5" fill="#0d1117" stroke="#21262d" stroke-width="1"/><text class="ltext" x="459.62" y="236.5" text-anchor="middle" font-size="9.5" font-weight="600" fill="#9198a1">&amp;dyn Harness</text></g>
<g><rect class="lpill" x="422.73" y="508" width="166.54" height="15" rx="7.5" fill="#0d1117" stroke="#21262d" stroke-width="1"/><text class="ltext ltext-added" x="506" y="519" text-anchor="middle" font-size="9.5" font-weight="600" fill="#3fb950">run(&amp;dyn CommandRunner, task)</text></g>
<g><rect class="lpill" x="789.25" y="285" width="74.75" height="15" rx="7.5" fill="#0d1117" stroke="#21262d" stroke-width="1"/><text class="ltext ltext-added" x="826.63" y="296" text-anchor="middle" font-size="9.5" font-weight="600" fill="#3fb950">impl Harness</text></g>
<g><rect class="lpill" x="1019.93" y="286.5" width="172.15" height="15" rx="7.5" fill="#0d1117" stroke="#21262d" stroke-width="1"/><text class="ltext ltext-added" x="1106" y="297.5" text-anchor="middle" font-size="9.5" font-weight="600" fill="#3fb950">build_command / status_command</text></g>
<g><rect class="lpill" x="773.41" y="394" width="110.59" height="15" rx="7.5" fill="#0d1117" stroke="#21262d" stroke-width="1"/><text class="ltext ltext-added" x="828.71" y="405" text-anchor="middle" font-size="9.5" font-weight="600" fill="#3fb950">parse_events(stdout)</text></g>
<g><rect class="lpill" x="1230.47" y="394" width="143.05" height="15" rx="7.5" fill="#0d1117" stroke="#21262d" stroke-width="1"/><text class="ltext ltext-added" x="1302" y="405" text-anchor="middle" font-size="9.5" font-weight="600" fill="#3fb950">parse_changed_files(stdout)</text></g>
<g><rect class="lpill" x="843.19" y="508" width="101.62" height="15" rx="7.5" fill="#0d1117" stroke="#21262d" stroke-width="1"/><text class="ltext ltext-added" x="894" y="519" text-anchor="middle" font-size="9.5" font-weight="600" fill="#3fb950">capabilities(runner)</text></g>
<g><rect class="lpill" x="874" y="293" width="118.41" height="15" rx="7.5" fill="#0d1117" stroke="#21262d" stroke-width="1"/><text class="ltext ltext-added" x="933.21" y="304" text-anchor="middle" font-size="9.5" font-weight="600" fill="#3fb950">build_prompt(task.text)</text></g>
<g><rect class="lpill" x="653.49" y="400.5" width="82.03" height="15" rx="7.5" fill="#0d1117" stroke="#21262d" stroke-width="1"/><text class="ltext ltext-added" x="694.5" y="411.5" text-anchor="middle" font-size="9.5" font-weight="600" fill="#3fb950">HarnessResult</text></g>
<g><rect class="lpill" x="1047.81" y="619" width="146.39" height="15" rx="7.5" fill="#0d1117" stroke="#21262d" stroke-width="1"/><text class="ltext" x="1121" y="630" text-anchor="middle" font-size="9.5" font-weight="600" fill="#9198a1">dsh --profile headless --json -</text></g>
<g><rect class="lpill" x="903.45" y="618.5" width="134.36" height="15" rx="7.5" fill="#0d1117" stroke="#21262d" stroke-width="1"/><text class="ltext" x="970.63" y="629.5" text-anchor="middle" font-size="9.5" font-weight="600" fill="#9198a1">git status --porcelain=v1 -z</text></g>
<g><rect class="lpill" x="325.64" y="344" width="116.72" height="15" rx="7.5" fill="#0d1117" stroke="#21262d" stroke-width="1"/><text class="ltext ltext-added" x="384" y="355" text-anchor="middle" font-size="9.5" font-weight="600" fill="#3fb950">impl CommandRunner</text></g>
<g><rect class="lpill" x="769.25" y="221.5" width="74.75" height="15" rx="7.5" fill="#0d1117" stroke="#21262d" stroke-width="1"/><text class="ltext ltext-added" x="806.63" y="232.5" text-anchor="middle" font-size="9.5" font-weight="600" fill="#3fb950">impl Harness</text></g>
<g><rect class="lpill" x="834" y="179" width="97.14" height="15" rx="7.5" fill="#0d1117" stroke="#21262d" stroke-width="1"/><text class="ltext ltext-added" x="882.57" y="190" text-anchor="middle" font-size="9.5" font-weight="600" fill="#3fb950">scans src/harness</text></g>
<g><rect class="lpill" x="1100.24" y="172.5" width="107.51" height="15" rx="7.5" fill="#0d1117" stroke="#21262d" stroke-width="1"/><text class="ltext ltext-added" x="1154" y="183.5" text-anchor="middle" font-size="9.5" font-weight="600" fill="#3fb950">full run + capabilities</text></g></g>
</svg>