<svg xmlns="http://www.w3.org/2000/svg" viewBox="0 0 900 646" width="900" height="646" role="img" aria-label="Agent hook wiring" font-family="-apple-system, BlinkMacSystemFont, &quot;Segoe UI&quot;, &quot;Noto Sans&quot;, Helvetica, Arial, sans-serif">
<title>Agent hook wiring</title>
<desc>The four coding agents and the one osf hook command each of them reaches, through hook files that are root-owned and read-only.</desc>
<defs><pattern id="dots" width="18" height="18" patternUnits="userSpaceOnUse"><circle cx="1.5" cy="1.5" r="1" fill="rgba(110,118,129,.22)"/></pattern><marker id="mk-added" viewBox="0 0 10 10" refX="8" refY="5" markerWidth="6.5" markerHeight="6.5" orient="auto-start-reverse"><path d="M0,0 L10,5 L0,10 z" fill="#3fb950"/></marker><marker id="mko-added" viewBox="0 0 10 10" refX="10" refY="5" markerWidth="6.5" markerHeight="6.5" orient="auto-start-reverse"><path d="M2,1 L10,5 L2,9" fill="none" stroke="#3fb950" stroke-width="1.6" stroke-linecap="round" stroke-linejoin="round"/></marker><marker id="mk-modified" viewBox="0 0 10 10" refX="8" refY="5" markerWidth="6.5" markerHeight="6.5" orient="auto-start-reverse"><path d="M0,0 L10,5 L0,10 z" fill="#d29922"/></marker><marker id="mko-modified" viewBox="0 0 10 10" refX="10" refY="5" markerWidth="6.5" markerHeight="6.5" orient="auto-start-reverse"><path d="M2,1 L10,5 L2,9" fill="none" stroke="#d29922" stroke-width="1.6" stroke-linecap="round" stroke-linejoin="round"/></marker><marker id="mk-removed" viewBox="0 0 10 10" refX="8" refY="5" markerWidth="6.5" markerHeight="6.5" orient="auto-start-reverse"><path d="M0,0 L10,5 L0,10 z" fill="#f85149"/></marker><marker id="mko-removed" viewBox="0 0 10 10" refX="10" refY="5" markerWidth="6.5" markerHeight="6.5" orient="auto-start-reverse"><path d="M2,1 L10,5 L2,9" fill="none" stroke="#f85149" stroke-width="1.6" stroke-linecap="round" stroke-linejoin="round"/></marker><marker id="mk-neutral" viewBox="0 0 10 10" refX="8" refY="5" markerWidth="6.5" markerHeight="6.5" orient="auto-start-reverse"><path d="M0,0 L10,5 L0,10 z" fill="#6e7681"/></marker><marker id="mko-neutral" viewBox="0 0 10 10" refX="10" refY="5" markerWidth="6.5" markerHeight="6.5" orient="auto-start-reverse"><path d="M2,1 L10,5 L2,9" fill="none" stroke="#6e7681" stroke-width="1.6" stroke-linecap="round" stroke-linejoin="round"/></marker></defs>
<rect x="0" y="0" width="900" height="646" rx="12" fill="#0d1117"/>
<rect x="0" y="0" width="900" height="646" rx="12" fill="url(#dots)"/>
<g><rect class="lanebox" x="16" y="44" width="404" height="586" rx="12" fill="rgba(110,118,129,.07)"/>
<text class="lanelabel" x="32" y="68" font-size="10" font-weight="700" letter-spacing=".12em" fill="#9198a1">CODING AGENTS · BUILDER AND REVIEWER ROLES</text>
<rect class="lanebox" x="480" y="44" width="404" height="586" rx="12" fill="rgba(110,118,129,.07)"/>
<text class="lanelabel" x="496" y="68" font-size="10" font-weight="700" letter-spacing=".12em" fill="#9198a1">FACTORY CHECKS · OSF, GIT WRAPPER, HOOKS</text></g>
<g><path class="glow" stroke="#3fb950" d="M122,154 L122,163 C122,167.97 126.03,172 131,172 L416,172 C434.78,172 450,187.22 450,206 L450,431.8 C450,444.5 460.3,454.8 473,454.8 L496,454.8" fill="none" stroke-width="7" opacity="0.14"/>
<path class="edge edge-added hero" d="M122,154 L122,163 C122,167.97 126.03,172 131,172 L416,172 C434.78,172 450,187.22 450,206 L450,431.8 C450,444.5 460.3,454.8 473,454.8 L496,454.8" marker-end="url(#mk-added)" fill="none" stroke="#3fb950" stroke-width="2.25"/>
<path class="glow" stroke="#3fb950" d="M404,123 L412,123 C416.42,123 420,126.58 420,131 L420,414 C420,432.78 435.22,448 454,448 L496,448" fill="none" stroke-width="7" opacity="0.14"/>
<path class="edge edge-added hero" d="M404,123 L412,123 C416.42,123 420,126.58 420,131 L420,414 C420,432.78 435.22,448 454,448 L496,448" marker-end="url(#mk-added)" fill="none" stroke="#3fb950" stroke-width="2.25"/>
<path class="edge edge-added" d="M122,268 L122,273 C122,275.76 124.24,278 127,278 L446,278 C464.78,278 480,293.22 480,312 L480,460.4 C480,464.82 483.58,468.4 488,468.4 L496,468.4" marker-end="url(#mk-added)" fill="none" stroke="#3fb950" stroke-width="1.5"/>
<path class="edge edge-added" d="M404,245 L432,245 C447.46,245 460,257.54 460,273 L460,443.6 C460,453.54 468.06,461.6 478,461.6 L496,461.6" marker-end="url(#mk-added)" fill="none" stroke="#3fb950" stroke-width="1.5"/>
<path class="edge edge-added" d="M404,359 L456,359 C474.78,359 490,374.22 490,393 L490,479 C490,480.66 491.34,482 493,482 L496,482" marker-end="url(#mk-added)" fill="none" stroke="#3fb950" stroke-width="1.5"/>
<path class="glow" stroke="#d29922" d="M730,382 L730,434" fill="none" stroke-width="7" opacity="0.14"/>
<path class="edge edge-modified hero" d="M730,382 L730,434" marker-end="url(#mk-modified)" fill="none" stroke="#d29922" stroke-width="2.25"/>
<path class="edge edge-neutral context" d="M730,496 L730,548" marker-end="url(#mk-neutral)" fill="none" stroke="#6e7681" stroke-width="1.5" opacity="0.82"/>
<path class="edge edge-added" d="M496,139 L468,139 C452.54,139 440,151.54 440,167 L440,325 C440,334.94 431.94,343 422,343 L404,343" marker-end="url(#mk-added)" fill="none" stroke="#3fb950" stroke-width="1.5"/>
<path class="edge edge-added faded" d="M496,107 L444,107 C425.22,107 410,122.22 410,141 L410,154 C410,172.78 394.78,188 376,188 L131,188 C126.03,188 122,192.03 122,197 L122,206" marker-end="url(#mk-added)" fill="none" stroke="#3fb950" stroke-width="1.5" opacity="0.45"/>
<path class="edge edge-added faded" d="M496,123 L463,123 C444.77,123 430,137.77 430,156 L430,216 C430,223.18 424.18,229 417,229 L404,229" marker-end="url(#mk-added)" fill="none" stroke="#3fb950" stroke-width="1.5" opacity="0.45"/>
<path class="edge edge-added" d="M682,268 L682,320" marker-end="url(#mk-added)" fill="none" stroke="#3fb950" stroke-width="1.5"/>
<path class="edge edge-added" d="M682,268 L682,289 C682,300.6 672.6,310 661,310 L504,310 C485.22,310 470,325.22 470,344 L470,462.2 C470,469.38 475.82,475.2 483,475.2 L496,475.2" marker-end="url(#mk-added)" fill="none" stroke="#3fb950" stroke-width="1.5"/></g>
<g><g class="cardsh" filter="drop-shadow(0 1px 2px rgba(0,0,0,.28))"><rect class="card card-added" x="32" y="92" width="180" height="62" rx="10" fill="#1c2128" stroke-width="1" stroke="#3fb950" stroke-opacity="0.55"/>
<rect class="chip" x="46" y="110" width="26" height="26" rx="7" fill="rgba(110,118,129,.18)"/><g><rect class="glyph-stroke" x="52" y="117" width="14" height="12" rx="2" stroke="#9198a1" stroke-width="1.4" fill="none"/>
<path class="glyph-stroke" d="M52,121 h14" stroke="#9198a1" stroke-width="1.4" fill="none"/></g>
<text class="ntitle" x="82" y="119" font-size="11.5" font-weight="600" fill="#e6edf3">codex</text>
<text class="nsub" x="82" y="137" font-size="9.5" fill="#9198a1" font-family="ui-monospace, SFMono-Regular, &quot;SF Mono&quot;, Menlo, Consolas, monospace">0.161.0</text>
<g class="bdg bdg-added"><rect x="164.45" y="84" width="40.55" height="16" rx="8" fill="rgba(46,160,67,.15)" stroke="rgba(63,185,80,.4)" stroke-width="1"/><text x="184.73" y="95" text-anchor="middle" font-size="8.5" font-weight="700" letter-spacing=".06em" fill="#3fb950">NEW</text></g></g>
<g class="cardsh" filter="drop-shadow(0 1px 2px rgba(0,0,0,.28))"><rect class="card card-added" x="224" y="92" width="180" height="62" rx="10" fill="#1c2128" stroke-width="1" stroke="#3fb950" stroke-opacity="0.55"/>
<rect class="chip" x="238" y="110" width="26" height="26" rx="7" fill="rgba(110,118,129,.18)"/><g><rect class="glyph-stroke" x="244" y="117" width="14" height="12" rx="2" stroke="#9198a1" stroke-width="1.4" fill="none"/>
<path class="glyph-stroke" d="M244,121 h14" stroke="#9198a1" stroke-width="1.4" fill="none"/></g>
<text class="ntitle" x="274" y="119" font-size="11.5" font-weight="600" fill="#e6edf3">claude-code</text>
<text class="nsub" x="274" y="137" font-size="9.5" fill="#9198a1" font-family="ui-monospace, SFMono-Regular, &quot;SF Mono&quot;, Menlo, Consolas, monospace">2.1.293</text>
<g class="bdg bdg-added"><rect x="356.45" y="84" width="40.55" height="16" rx="8" fill="rgba(46,160,67,.15)" stroke="rgba(63,185,80,.4)" stroke-width="1"/><text x="376.73" y="95" text-anchor="middle" font-size="8.5" font-weight="700" letter-spacing=".06em" fill="#3fb950">NEW</text></g></g>
<g class="cardsh" filter="drop-shadow(0 1px 2px rgba(0,0,0,.28))"><rect class="card card-added" x="32" y="206" width="180" height="62" rx="10" fill="#1c2128" stroke-width="1" stroke="#3fb950" stroke-opacity="0.55"/>
<rect class="chip" x="46" y="224" width="26" height="26" rx="7" fill="rgba(110,118,129,.18)"/><g><rect class="glyph-stroke" x="52" y="231" width="14" height="12" rx="2" stroke="#9198a1" stroke-width="1.4" fill="none"/>
<path class="glyph-stroke" d="M52,235 h14" stroke="#9198a1" stroke-width="1.4" fill="none"/></g>
<text class="ntitle" x="82" y="233" font-size="11.5" font-weight="600" fill="#e6edf3">opencode</text>
<text class="nsub" x="82" y="251" font-size="9.5" fill="#9198a1" font-family="ui-monospace, SFMono-Regular, &quot;SF Mono&quot;, Menlo, Consolas, monospace">1.18.35</text>
<g class="bdg bdg-added"><rect x="164.45" y="198" width="40.55" height="16" rx="8" fill="rgba(46,160,67,.15)" stroke="rgba(63,185,80,.4)" stroke-width="1"/><text x="184.73" y="209" text-anchor="middle" font-size="8.5" font-weight="700" letter-spacing=".06em" fill="#3fb950">NEW</text></g></g>
<g class="cardsh" filter="drop-shadow(0 1px 2px rgba(0,0,0,.28))"><rect class="card card-added" x="224" y="206" width="180" height="62" rx="10" fill="#1c2128" stroke-width="1" stroke="#3fb950" stroke-opacity="0.55"/>
<rect class="chip" x="238" y="224" width="26" height="26" rx="7" fill="rgba(110,118,129,.18)"/><g><rect class="glyph-stroke" x="244" y="231" width="14" height="12" rx="2" stroke="#9198a1" stroke-width="1.4" fill="none"/>
<path class="glyph-stroke" d="M244,235 h14" stroke="#9198a1" stroke-width="1.4" fill="none"/></g>
<text class="ntitle" x="274" y="233" font-size="11.5" font-weight="600" fill="#e6edf3">omp</text>
<text class="nsub" x="274" y="251" font-size="9.5" fill="#9198a1" font-family="ui-monospace, SFMono-Regular, &quot;SF Mono&quot;, Menlo, Consolas, monospace">18.2.8</text>
<g class="bdg bdg-added"><rect x="356.45" y="198" width="40.55" height="16" rx="8" fill="rgba(46,160,67,.15)" stroke="rgba(63,185,80,.4)" stroke-width="1"/><text x="376.73" y="209" text-anchor="middle" font-size="8.5" font-weight="700" letter-spacing=".06em" fill="#3fb950">NEW</text></g></g>
<g class="cardsh" filter="drop-shadow(0 1px 2px rgba(0,0,0,.28))"><rect class="card card-added" x="32" y="320" width="372" height="62" rx="10" fill="#1c2128" stroke-width="1" stroke="#3fb950" stroke-opacity="0.55"/>
<rect class="chip" x="46" y="338" width="26" height="26" rx="7" fill="rgba(110,118,129,.18)"/><g><rect class="glyph-stroke" x="52" y="345" width="14" height="12" rx="2" stroke="#9198a1" stroke-width="1.4" fill="none"/>
<path class="glyph-stroke" d="M52,349 h14" stroke="#9198a1" stroke-width="1.4" fill="none"/></g>
<text class="ntitle" x="82" y="347" font-size="13" font-weight="600" fill="#e6edf3">dsh</text>
<text class="nsub" x="82" y="365" font-size="9.5" fill="#9198a1" font-family="ui-monospace, SFMono-Regular, &quot;SF Mono&quot;, Menlo, Consolas, monospace">0.2.0-rc.2</text>
<g class="bdg bdg-added"><rect x="356.45" y="312" width="40.55" height="16" rx="8" fill="rgba(46,160,67,.15)" stroke="rgba(63,185,80,.4)" stroke-width="1"/><text x="376.73" y="323" text-anchor="middle" font-size="8.5" font-weight="700" letter-spacing=".06em" fill="#3fb950">NEW</text></g></g>
<g class="cardsh" filter="drop-shadow(0 1px 2px rgba(0,0,0,.28))"><rect class="card card-added" x="496" y="92" width="180" height="62" rx="10" fill="#1c2128" stroke-width="1" stroke="#3fb950" stroke-opacity="0.55"/>
<rect class="chip" x="510" y="110" width="26" height="26" rx="7" fill="rgba(110,118,129,.18)"/><g><circle class="glyph-stroke" stroke="#9198a1" stroke-width="1.4" fill="none" cx="523" cy="123" r="6.5"/>
<path class="glyph-stroke" d="M523,119.5 V123 H526" stroke="#9198a1" stroke-width="1.4" fill="none"/></g>
<text class="ntitle" x="546" y="119" font-size="11.5" font-weight="600" fill="#e6edf3">plugin build</text>
<text class="nsub" x="546" y="137" font-size="9.5" fill="#9198a1" font-family="ui-monospace, SFMono-Regular, &quot;SF Mono&quot;, Menlo, Consolas, monospace">pnpm --filter</text>
<g class="bdg bdg-added"><rect x="628.45" y="84" width="40.55" height="16" rx="8" fill="rgba(46,160,67,.15)" stroke="rgba(63,185,80,.4)" stroke-width="1"/><text x="648.73" y="95" text-anchor="middle" font-size="8.5" font-weight="700" letter-spacing=".06em" fill="#3fb950">NEW</text></g></g>
<g class="cardsh" filter="drop-shadow(0 1px 2px rgba(0,0,0,.28))"><rect class="card card-added" x="688" y="92" width="180" height="62" rx="10" fill="#1c2128" stroke-width="1" stroke="#3fb950" stroke-opacity="0.55"/>
<rect class="chip" x="702" y="110" width="26" height="26" rx="7" fill="rgba(110,118,129,.18)"/><g><circle class="glyph-stroke" stroke="#9198a1" stroke-width="1.4" fill="none" cx="715" cy="123" r="6.5"/>
<path class="glyph-stroke" d="M715,119.5 V123 H718" stroke="#9198a1" stroke-width="1.4" fill="none"/></g>
<text class="ntitle" x="738" y="119" font-size="10.5" font-weight="600" fill="#e6edf3">devcontainer-image.y…</text>
<text class="nsub" x="738" y="137" font-size="9.5" fill="#9198a1" font-family="ui-monospace, SFMono-Regular, &quot;SF Mono&quot;, Menlo, Consolas, monospace">GitHub Actions</text>
<g class="bdg bdg-added"><rect x="820.45" y="84" width="40.55" height="16" rx="8" fill="rgba(46,160,67,.15)" stroke="rgba(63,185,80,.4)" stroke-width="1"/><text x="840.73" y="95" text-anchor="middle" font-size="8.5" font-weight="700" letter-spacing=".06em" fill="#3fb950">NEW</text></g></g>
<g class="cardsh" filter="drop-shadow(0 1px 2px rgba(0,0,0,.28))"><rect class="card card-added" x="496" y="206" width="372" height="62" rx="10" fill="#1c2128" stroke-width="1" stroke="#3fb950" stroke-opacity="0.55"/>
<rect class="chip" x="510" y="224" width="26" height="26" rx="7" fill="rgba(110,118,129,.18)"/><g><path class="glyph-stroke" d="M517,237 l4,4 l8,-8" stroke="#9198a1" stroke-width="1.4" fill="none"/></g>
<text class="ntitle" x="546" y="233" font-size="13" font-weight="600" fill="#e6edf3">build-time tests</text>
<text class="nsub" x="546" y="251" font-size="9.5" fill="#9198a1" font-family="ui-monospace, SFMono-Regular, &quot;SF Mono&quot;, Menlo, Consolas, monospace">8 scripts</text>
<g class="bdg bdg-added"><rect x="820.45" y="198" width="40.55" height="16" rx="8" fill="rgba(46,160,67,.15)" stroke="rgba(63,185,80,.4)" stroke-width="1"/><text x="840.73" y="209" text-anchor="middle" font-size="8.5" font-weight="700" letter-spacing=".06em" fill="#3fb950">NEW</text></g></g>
<g class="cardsh" filter="drop-shadow(0 1px 2px rgba(0,0,0,.28))"><rect class="card card-modified" x="496" y="320" width="372" height="62" rx="10" fill="#1c2128" stroke-width="1" stroke="#d29922" stroke-opacity="0.5"/>
<rect class="chip" x="510" y="338" width="26" height="26" rx="7" fill="rgba(110,118,129,.18)"/><g><text class="glyph" x="523" y="355.5" text-anchor="middle" fill="#9198a1" font-size="14" font-style="italic" font-family="Georgia,serif">ƒ</text></g>
<text class="ntitle" x="546" y="347" font-size="13" font-weight="600" fill="#e6edf3">git wrapper</text>
<text class="nsub" x="546" y="365" font-size="9.5" fill="#9198a1" font-family="ui-monospace, SFMono-Regular, &quot;SF Mono&quot;, Menlo, Consolas, monospace">/opt/factory/bin/git</text>
<g class="bdg bdg-modified"><rect x="794.38" y="312" width="66.62" height="16" rx="8" fill="rgba(187,128,9,.15)" stroke="rgba(210,153,34,.4)" stroke-width="1"/><text x="827.69" y="323" text-anchor="middle" font-size="8.5" font-weight="700" letter-spacing=".06em" fill="#d29922">CHANGED</text></g></g>
<g class="cardsh context" filter="drop-shadow(0 1px 2px rgba(0,0,0,.28))" opacity="0.82"><rect class="card" x="496" y="434" width="180" height="62" rx="10" fill="#1c2128" stroke-width="1" stroke="#3d444d"/>
<rect class="chip" x="510" y="452" width="26" height="26" rx="7" fill="rgba(110,118,129,.18)"/><g><path class="glyph" fill="#9198a1" d="M516,459 L530,465 L516,471 Z"/></g>
<text class="ntitle" x="546" y="461" font-size="11.5" font-weight="600" fill="#e6edf3">osf hook</text>
<text class="nsub" x="546" y="479" font-size="9.5" fill="#9198a1" font-family="ui-monospace, SFMono-Regular, &quot;SF Mono&quot;, Menlo, Consolas, monospace">prompt, stop</text></g>
<g class="cardsh context" filter="drop-shadow(0 1px 2px rgba(0,0,0,.28))" opacity="0.82"><rect class="card" x="688" y="434" width="180" height="62" rx="10" fill="#1c2128" stroke-width="1" stroke="#3d444d"/>
<rect class="chip" x="702" y="452" width="26" height="26" rx="7" fill="rgba(110,118,129,.18)"/><g><path class="glyph-stroke" d="M708,461 h14" stroke="#9198a1" stroke-width="1.4" fill="none"/>
<path class="glyph-stroke" d="M708,469 h14" stroke="#9198a1" stroke-width="1.4" fill="none"/>
<circle class="glyph" fill="#9198a1" cx="713" cy="461" r="2.2"/>
<circle class="glyph" fill="#9198a1" cx="718" cy="469" r="2.2"/></g>
<text class="ntitle" x="738" y="461" font-size="11.5" font-weight="600" fill="#e6edf3">git hooks</text>
<text class="nsub" x="738" y="479" font-size="9.5" fill="#9198a1" font-family="ui-monospace, SFMono-Regular, &quot;SF Mono&quot;, Menlo, Consolas, monospace">pre-commit, commit-…</text></g>
<g class="cardsh" filter="drop-shadow(0 1px 2px rgba(0,0,0,.28))"><rect class="card card-modified" x="496" y="548" width="372" height="62" rx="10" fill="#1c2128" stroke-width="1" stroke="#d29922" stroke-opacity="0.5"/>
<rect class="chip" x="510" y="566" width="26" height="26" rx="7" fill="rgba(110,118,129,.18)"/><g><rect class="glyph-stroke" x="516.5" y="572.5" width="13" height="13" rx="3" stroke="#9198a1" stroke-width="1.4" fill="none"/>
<circle class="glyph" fill="#9198a1" cx="523" cy="579" r="2"/></g>
<text class="ntitle" x="546" y="575" font-size="13" font-weight="600" fill="#e6edf3">osf</text>
<text class="nsub" x="546" y="593" font-size="9.5" fill="#9198a1" font-family="ui-monospace, SFMono-Regular, &quot;SF Mono&quot;, Menlo, Consolas, monospace">/opt/factory/bin/osf</text>
<g class="bdg bdg-modified"><rect x="794.38" y="540" width="66.62" height="16" rx="8" fill="rgba(187,128,9,.15)" stroke="rgba(210,153,34,.4)" stroke-width="1"/><text x="827.69" y="551" text-anchor="middle" font-size="8.5" font-weight="700" letter-spacing=".06em" fill="#d29922">CHANGED</text></g></g></g>
<g><g><rect class="lpill" x="236.12" y="164.5" width="74.77" height="15" rx="7.5" fill="#0d1117" stroke="#21262d" stroke-width="1"/><text class="ltext ltext-added" x="273.5" y="175.5" text-anchor="middle" font-size="9.5" font-weight="600" fill="#3fb950">prompt event</text></g>
<g><rect class="lpill" x="339.48" y="280" width="101.05" height="15" rx="7.5" fill="#0d1117" stroke="#21262d" stroke-width="1"/><text class="ltext ltext-added" x="390" y="291" text-anchor="middle" font-size="9.5" font-weight="600" fill="#3fb950">UserPromptSubmit</text></g>
<g><rect class="lpill" x="480" y="407" width="110.58" height="15" rx="7.5" fill="#0d1117" stroke="#21262d" stroke-width="1"/><text class="ltext ltext-added" x="535.29" y="418" text-anchor="middle" font-size="9.5" font-weight="600" fill="#3fb950">Claude-format bridge</text></g>
<g><rect class="lpill" x="639.02" y="400.5" width="181.96" height="15" rx="7.5" fill="#0d1117" stroke="#21262d" stroke-width="1"/><text class="ltext ltext-modified" x="730" y="411.5" text-anchor="middle" font-size="9.5" font-weight="600" fill="#d29922">core.hooksPath=/opt/factory/githooks</text></g>
<g><rect class="lpill" x="700.73" y="514.5" width="58.54" height="15" rx="7.5" fill="#0d1117" stroke="#21262d" stroke-width="1"/><text class="ltext" x="730" y="525.5" text-anchor="middle" font-size="9.5" font-weight="600" fill="#9198a1">osf check</text></g>
<g><rect class="lpill" x="430" y="160" width="113.39" height="15" rx="7.5" fill="#0d1117" stroke="#21262d" stroke-width="1"/><text class="ltext ltext-added" x="486.7" y="171" text-anchor="middle" font-size="9.5" font-weight="600" fill="#3fb950">dist copied into profile</text></g>
<g><rect class="lpill" x="594.73" y="286.5" width="84.27" height="15" rx="7.5" fill="#0d1117" stroke="#21262d" stroke-width="1"/><text class="ltext ltext-added" x="636.87" y="297.5" text-anchor="middle" font-size="9.5" font-weight="600" fill="#3fb950">proves refusals</text></g>
<g><rect class="lpill" x="685" y="281.5" width="131.3" height="15" rx="7.5" fill="#0d1117" stroke="#21262d" stroke-width="1"/><text class="ltext ltext-added" x="750.65" y="292.5" text-anchor="middle" font-size="9.5" font-weight="600" fill="#3fb950">sample payload per event</text></g></g>
</svg>