<svg xmlns="http://www.w3.org/2000/svg" viewBox="0 0 855 277" width="855" height="277" role="img" aria-label="Manifest bump to lockfile" font-family="-apple-system, BlinkMacSystemFont, &quot;Segoe UI&quot;, &quot;Noto Sans&quot;, Helvetica, Arial, sans-serif">
<title>Manifest bump to lockfile</title>
<desc>The ordered steps that turn the sha2 requirement change into a rewritten lockfile.</desc>
<defs><pattern id="dots" width="18" height="18" patternUnits="userSpaceOnUse"><circle cx="1.5" cy="1.5" r="1" fill="rgba(110,118,129,.22)"/></pattern><marker id="mk-added" viewBox="0 0 10 10" refX="8" refY="5" markerWidth="6.5" markerHeight="6.5" orient="auto-start-reverse"><path d="M0,0 L10,5 L0,10 z" fill="#3fb950"/></marker><marker id="mko-added" viewBox="0 0 10 10" refX="10" refY="5" markerWidth="6.5" markerHeight="6.5" orient="auto-start-reverse"><path d="M2,1 L10,5 L2,9" fill="none" stroke="#3fb950" stroke-width="1.6" stroke-linecap="round" stroke-linejoin="round"/></marker><marker id="mk-modified" viewBox="0 0 10 10" refX="8" refY="5" markerWidth="6.5" markerHeight="6.5" orient="auto-start-reverse"><path d="M0,0 L10,5 L0,10 z" fill="#d29922"/></marker><marker id="mko-modified" viewBox="0 0 10 10" refX="10" refY="5" markerWidth="6.5" markerHeight="6.5" orient="auto-start-reverse"><path d="M2,1 L10,5 L2,9" fill="none" stroke="#d29922" stroke-width="1.6" stroke-linecap="round" stroke-linejoin="round"/></marker><marker id="mk-removed" viewBox="0 0 10 10" refX="8" refY="5" markerWidth="6.5" markerHeight="6.5" orient="auto-start-reverse"><path d="M0,0 L10,5 L0,10 z" fill="#f85149"/></marker><marker id="mko-removed" viewBox="0 0 10 10" refX="10" refY="5" markerWidth="6.5" markerHeight="6.5" orient="auto-start-reverse"><path d="M2,1 L10,5 L2,9" fill="none" stroke="#f85149" stroke-width="1.6" stroke-linecap="round" stroke-linejoin="round"/></marker><marker id="mk-neutral" viewBox="0 0 10 10" refX="8" refY="5" markerWidth="6.5" markerHeight="6.5" orient="auto-start-reverse"><path d="M0,0 L10,5 L0,10 z" fill="#6e7681"/></marker><marker id="mko-neutral" viewBox="0 0 10 10" refX="10" refY="5" markerWidth="6.5" markerHeight="6.5" orient="auto-start-reverse"><path d="M2,1 L10,5 L2,9" fill="none" stroke="#6e7681" stroke-width="1.6" stroke-linecap="round" stroke-linejoin="round"/></marker></defs>
<rect x="0" y="0" width="855" height="277" rx="12" fill="#0d1117"/>
<rect x="0" y="0" width="855" height="277" rx="12" fill="url(#dots)"/>
<g transform="translate(12,10)"><g><rect class="lanebox" x="4" y="6" width="237" height="245" rx="12" fill="rgba(110,118,129,.07)"/>
<rect class="lanebox" x="297" y="6" width="237" height="245" rx="12" fill="rgba(110,118,129,.07)"/>
<rect class="lanebox" x="590" y="6" width="237" height="245" rx="12" fill="rgba(110,118,129,.07)"/></g>
<g><line class="lifeline" x1="122.5" y1="82" x2="122.5" y2="239" stroke="#30363d" stroke-width="1" stroke-dasharray="3 4"/>
<line class="lifeline" x1="415.5" y1="82" x2="415.5" y2="239" stroke="#30363d" stroke-width="1" stroke-dasharray="3 4"/>
<rect class="actbar" x="409.5" y="123" width="12" height="104.67" rx="4" fill="rgba(46,160,67,.15)" stroke="rgba(63,185,80,.4)"/>
<line class="lifeline" x1="708.5" y1="82" x2="708.5" y2="239" stroke="#30363d" stroke-width="1" stroke-dasharray="3 4"/>
<rect class="actbar" x="702.5" y="215" width="12" height="12.67" rx="4" fill="rgba(46,160,67,.15)" stroke="rgba(63,185,80,.4)"/></g>
<g><g class="cardsh" filter="drop-shadow(0 1px 2px rgba(0,0,0,.28))"><rect class="card card-modified" x="16" y="18" width="213" height="62" rx="10" fill="#1c2128" stroke-width="1" stroke="#d29922" stroke-opacity="0.5"/>
<rect class="chip" x="30" y="36" width="26" height="26" rx="7" fill="rgba(110,118,129,.18)"/><g><path class="glyph-stroke" d="M43,42 l6.5,3.5 v7 l-6.5,3.5 l-6.5,-3.5 v-7 Z" stroke="#9198a1" stroke-width="1.4" fill="none"/>
<path class="glyph-stroke" d="M36.5,45.5 l6.5,3.5 l6.5,-3.5" stroke="#9198a1" stroke-width="1.4" fill="none"/>
<path class="glyph-stroke" d="M43,49 v7" stroke="#9198a1" stroke-width="1.4" fill="none"/></g>
<text class="ntitle" x="66" y="45" font-size="13" font-weight="600" fill="#e6edf3">osf Cargo.toml</text>
<text class="nsub" x="66" y="63" font-size="9.5" fill="#9198a1" font-family="ui-monospace, SFMono-Regular, &quot;SF Mono&quot;, Menlo, Consolas, monospace">crates/osf</text>
<g class="bdg bdg-modified"><rect x="155.38" y="10" width="66.62" height="16" rx="8" fill="rgba(187,128,9,.15)" stroke="rgba(210,153,34,.4)" stroke-width="1"/><text x="188.69" y="21" text-anchor="middle" font-size="8.5" font-weight="700" letter-spacing=".06em" fill="#d29922">CHANGED</text></g></g>
<g class="cardsh context" filter="drop-shadow(0 1px 2px rgba(0,0,0,.28))" opacity="0.82"><rect class="card" x="309" y="18" width="213" height="62" rx="10" fill="#1c2128" stroke-width="1" stroke="#3d444d"/>
<rect class="chip" x="323" y="36" width="26" height="26" rx="7" fill="rgba(110,118,129,.18)"/><g><circle class="glyph" fill="#9198a1" cx="331" cy="49" r="1.8"/>
<circle class="glyph" fill="#9198a1" cx="336" cy="49" r="1.8"/>
<circle class="glyph" fill="#9198a1" cx="341" cy="49" r="1.8"/></g>
<text class="ntitle" x="359" y="45" font-size="13" font-weight="600" fill="#e6edf3">Cargo resolver</text>
<text class="nsub" x="359" y="63" font-size="9.5" fill="#9198a1" font-family="ui-monospace, SFMono-Regular, &quot;SF Mono&quot;, Menlo, Consolas, monospace">cargo build / cargo update</text></g>
<g class="cardsh" filter="drop-shadow(0 1px 2px rgba(0,0,0,.28))"><rect class="card card-modified" x="602" y="18" width="213" height="62" rx="10" fill="#1c2128" stroke-width="1" stroke="#d29922" stroke-opacity="0.5"/>
<rect class="chip" x="616" y="36" width="26" height="26" rx="7" fill="rgba(110,118,129,.18)"/><g><ellipse class="glyph-stroke" stroke="#9198a1" stroke-width="1.4" fill="none" cx="629" cy="44.5" rx="6.5" ry="2.6"/>
<path class="glyph-stroke" d="M622.5,44.5 v9 a6.5,2.6 0 0 0 13 0 v-9" stroke="#9198a1" stroke-width="1.4" fill="none"/></g>
<text class="ntitle" x="652" y="45" font-size="13" font-weight="600" fill="#e6edf3">Cargo.lock</text>
<text class="nsub" x="652" y="63" font-size="9.5" fill="#9198a1" font-family="ui-monospace, SFMono-Regular, &quot;SF Mono&quot;, Menlo, Consolas, monospace">resolved dependency graph</text>
<g class="bdg bdg-modified"><rect x="741.38" y="10" width="66.62" height="16" rx="8" fill="rgba(187,128,9,.15)" stroke="rgba(210,153,34,.4)" stroke-width="1"/><text x="774.69" y="21" text-anchor="middle" font-size="8.5" font-weight="700" letter-spacing=".06em" fill="#d29922">CHANGED</text></g></g></g>
<g><path class="msg edge-modified" d="M122.5,123 L404.5,123" marker-end="url(#mk-modified)" fill="none" stroke="#d29922" stroke-width="1.5"/>
<circle r="2.6" fill="#d29922" opacity="0"><animateMotion dur="4.2s" repeatCount="indefinite" keyPoints="0;0;1;1" keyTimes="0;0;0.3333;1" calcMode="linear" path="M122.5,123 L404.5,123"/><animate attributeName="opacity" dur="4.2s" repeatCount="indefinite" values="0;0;1;1;0;0" keyTimes="0;0;0.0267;0.3067;0.3333;1"/></circle>
<path class="msg edge-modified" d="M421.5,161 h52 a7,7 0 0 1 7,7 v6 a7,7 0 0 1 -7,7 h-47" marker-end="url(#mk-modified)" fill="none" stroke="#d29922" stroke-width="1.5"/>
<circle r="2.6" fill="#d29922" opacity="0"><animateMotion dur="4.2s" repeatCount="indefinite" keyPoints="0;0;1;1" keyTimes="0;0.3333;0.6667;1" calcMode="linear" path="M421.5,161 h52 a7,7 0 0 1 7,7 v6 a7,7 0 0 1 -7,7 h-47"/><animate attributeName="opacity" dur="4.2s" repeatCount="indefinite" values="0;0;1;1;0;0" keyTimes="0;0.3333;0.36;0.64;0.6667;1"/></circle>
<path class="msg edge-modified" d="M421.5,215 L697.5,215" marker-end="url(#mk-modified)" fill="none" stroke="#d29922" stroke-width="1.5"/>
<circle r="2.6" fill="#d29922" opacity="0"><animateMotion dur="4.2s" repeatCount="indefinite" keyPoints="0;0;1;1" keyTimes="0;0.6667;1;1" calcMode="linear" path="M421.5,215 L697.5,215"/><animate attributeName="opacity" dur="4.2s" repeatCount="indefinite" values="0;0;1;1;0;0" keyTimes="0;0.6667;0.6933;0.9733;1;1"/></circle></g>
<g><g><rect class="lpill" x="225.47" y="115.5" width="76.06" height="15" rx="7.5" fill="#0d1117" stroke="#21262d" stroke-width="1"/><text class="ltext ltext-modified" x="263.5" y="126.5" text-anchor="middle" font-size="9.5" font-weight="600" fill="#d29922">sha2 = &quot;0.11&quot;</text></g>
<g><rect class="lpill" x="488.5" y="163.5" width="123.46" height="15" rx="7.5" fill="#0d1117" stroke="#21262d" stroke-width="1"/><text class="ltext ltext-modified" x="550.23" y="174.5" text-anchor="middle" font-size="9.5" font-weight="600" fill="#d29922">select digest 0.11 family</text></g>
<g><rect class="lpill" x="506.17" y="207.5" width="106.66" height="15" rx="7.5" fill="#0d1117" stroke="#21262d" stroke-width="1"/><text class="ltext ltext-modified" x="559.5" y="218.5" text-anchor="middle" font-size="9.5" font-weight="600" fill="#d29922">write resolved graph</text></g></g></g>
</svg>