<svg xmlns="http://www.w3.org/2000/svg" viewBox="0 0 860 532" width="860" height="532" role="img" aria-label="Reviewer selection and mode" font-family="-apple-system, BlinkMacSystemFont, &quot;Segoe UI&quot;, &quot;Noto Sans&quot;, Helvetica, Arial, sans-serif">
<title>Reviewer selection and mode</title>
<desc>How a repository's osf.toml becomes a Reviewer, and how the container-detection and sandbox-check steps were cut out of that path.</desc>
<defs><pattern id="dots" width="18" height="18" patternUnits="userSpaceOnUse"><circle cx="1.5" cy="1.5" r="1" fill="rgba(140,149,159,.5)"/></pattern><marker id="mk-added" viewBox="0 0 10 10" refX="8" refY="5" markerWidth="6.5" markerHeight="6.5" orient="auto-start-reverse"><path d="M0,0 L10,5 L0,10 z" fill="#1f883d"/></marker><marker id="mko-added" viewBox="0 0 10 10" refX="10" refY="5" markerWidth="6.5" markerHeight="6.5" orient="auto-start-reverse"><path d="M2,1 L10,5 L2,9" fill="none" stroke="#1f883d" stroke-width="1.6" stroke-linecap="round" stroke-linejoin="round"/></marker><marker id="mk-modified" viewBox="0 0 10 10" refX="8" refY="5" markerWidth="6.5" markerHeight="6.5" orient="auto-start-reverse"><path d="M0,0 L10,5 L0,10 z" fill="#bf8700"/></marker><marker id="mko-modified" viewBox="0 0 10 10" refX="10" refY="5" markerWidth="6.5" markerHeight="6.5" orient="auto-start-reverse"><path d="M2,1 L10,5 L2,9" fill="none" stroke="#bf8700" stroke-width="1.6" stroke-linecap="round" stroke-linejoin="round"/></marker><marker id="mk-removed" viewBox="0 0 10 10" refX="8" refY="5" markerWidth="6.5" markerHeight="6.5" orient="auto-start-reverse"><path d="M0,0 L10,5 L0,10 z" fill="#cf222e"/></marker><marker id="mko-removed" viewBox="0 0 10 10" refX="10" refY="5" markerWidth="6.5" markerHeight="6.5" orient="auto-start-reverse"><path d="M2,1 L10,5 L2,9" fill="none" stroke="#cf222e" stroke-width="1.6" stroke-linecap="round" stroke-linejoin="round"/></marker><marker id="mk-neutral" viewBox="0 0 10 10" refX="8" refY="5" markerWidth="6.5" markerHeight="6.5" orient="auto-start-reverse"><path d="M0,0 L10,5 L0,10 z" fill="#8c959f"/></marker><marker id="mko-neutral" viewBox="0 0 10 10" refX="10" refY="5" markerWidth="6.5" markerHeight="6.5" orient="auto-start-reverse"><path d="M2,1 L10,5 L2,9" fill="none" stroke="#8c959f" stroke-width="1.6" stroke-linecap="round" stroke-linejoin="round"/></marker></defs>
<rect x="0" y="0" width="860" height="532" rx="12" fill="#f4f5f7"/>
<rect x="0" y="0" width="860" height="532" rx="12" fill="url(#dots)"/>
<g><rect class="lanebox" x="16" y="44" width="404" height="472" rx="12" fill="rgba(255,255,255,.55)"/>
<text class="lanelabel" x="32" y="68" font-size="10" font-weight="700" letter-spacing=".12em" fill="#59636e">OSF CLI · CRATES/OSF</text>
<rect class="lanebox" x="440" y="44" width="404" height="472" rx="12" fill="rgba(255,255,255,.55)"/>
<text class="lanelabel" x="456" y="68" font-size="10" font-weight="700" letter-spacing=".12em" fill="#59636e">REVIEWER AGENTS · CODEX / CLAUDE / OPENCODE</text></g>
<g><path class="edge edge-modified" d="M218,154 L218,206" marker-end="url(#mk-modified)" fill="none" stroke="#bf8700" stroke-width="1.5"/>
<path class="edge edge-modified" d="M404,237 L421,237 C430.39,237 438,244.61 438,254 L438,342 C438,346.97 442.03,351 447,351 L456,351" marker-end="url(#mk-modified)" fill="none" stroke="#bf8700" stroke-width="1.5"/>
<path class="edge edge-removed" d="M404,123 L413,123 C417.97,123 422,127.03 422,132 L422,456 C422,460.97 417.97,465 413,465 L404,465" marker-end="url(#mk-removed)" fill="none" stroke="#cf222e" stroke-width="1.5" stroke-dasharray="5 4" opacity="0.7"/></g>
<g><g class="cardsh" filter="drop-shadow(0 1px 2px rgba(31,35,40,.14))"><rect class="card card-modified" x="32" y="92" width="372" height="62" rx="10" fill="#ffffff" stroke-width="1" stroke="#bf8700" stroke-opacity="0.5"/>
<rect class="chip" x="46" y="110" width="26" height="26" rx="7" fill="#f1f3f5"/><g><text class="glyph" x="59" y="127.5" text-anchor="middle" fill="#59636e" font-size="14" font-style="italic" font-family="Georgia,serif">ƒ</text></g>
<text class="ntitle" x="82" y="119" font-size="13" font-weight="600" fill="#1f2328">roster()</text>
<text class="nsub" x="82" y="137" font-size="9.5" fill="#59636e" font-family="ui-monospace, SFMono-Regular, &quot;SF Mono&quot;, Menlo, Consolas, monospace">reviewers::roster</text>
<g class="bdg bdg-modified"><rect x="330.38" y="84" width="66.62" height="16" rx="8" fill="#fae17d" stroke="rgba(154,103,0,.55)" stroke-width="1"/><text x="363.69" y="95" text-anchor="middle" font-size="8.5" font-weight="700" letter-spacing=".06em" fill="#7d4e00">CHANGED</text></g></g>
<g class="cardsh" filter="drop-shadow(0 1px 2px rgba(31,35,40,.14))"><rect class="card card-modified" x="32" y="206" width="372" height="62" rx="10" fill="#ffffff" stroke-width="1" stroke="#bf8700" stroke-opacity="0.5"/>
<rect class="chip" x="46" y="224" width="26" height="26" rx="7" fill="#f1f3f5"/><g><text class="glyph" x="59" y="241.5" text-anchor="middle" fill="#59636e" font-size="14" font-style="italic" font-family="Georgia,serif">ƒ</text></g>
<text class="ntitle" x="82" y="233" font-size="13" font-weight="600" fill="#1f2328">Reviewer::from_agent</text>
<text class="nsub" x="82" y="251" font-size="9.5" fill="#59636e" font-family="ui-monospace, SFMono-Regular, &quot;SF Mono&quot;, Menlo, Consolas, monospace">mode selection</text>
<g class="bdg bdg-modified"><rect x="330.38" y="198" width="66.62" height="16" rx="8" fill="#fae17d" stroke="rgba(154,103,0,.55)" stroke-width="1"/><text x="363.69" y="209" text-anchor="middle" font-size="8.5" font-weight="700" letter-spacing=".06em" fill="#7d4e00">CHANGED</text></g></g>
<g class="cardsh ghost" filter="drop-shadow(0 1px 2px rgba(31,35,40,.14))" opacity="0.55"><rect class="card" x="32" y="434" width="180" height="62" rx="10" fill="#ffffff" stroke-width="1" stroke="#cf222e" stroke-dasharray="4 3" stroke-opacity="0.6"/>
<rect class="chip" x="46" y="452" width="26" height="26" rx="7" fill="#f1f3f5"/><g><text class="glyph" x="59" y="469.5" text-anchor="middle" fill="#59636e" font-size="14" font-style="italic" font-family="Georgia,serif">ƒ</text></g>
<text class="ntitle strike" x="82" y="461" font-size="11.5" font-weight="600" fill="#1f2328" text-decoration="line-through">check_sandbox</text>
<text class="nsub" x="82" y="479" font-size="9.5" fill="#59636e" font-family="ui-monospace, SFMono-Regular, &quot;SF Mono&quot;, Menlo, Consolas, monospace">pre-flight probe</text>
<g class="bdg bdg-removed"><rect x="137.88" y="426" width="67.12" height="16" rx="8" fill="#ffcecb" stroke="rgba(207,34,46,.5)" stroke-width="1"/><text x="171.44" y="437" text-anchor="middle" font-size="8.5" font-weight="700" letter-spacing=".06em" fill="#a40e26">REMOVED</text></g></g>
<g class="cardsh ghost" filter="drop-shadow(0 1px 2px rgba(31,35,40,.14))" opacity="0.55"><rect class="card" x="224" y="434" width="180" height="62" rx="10" fill="#ffffff" stroke-width="1" stroke="#cf222e" stroke-dasharray="4 3" stroke-opacity="0.6"/>
<rect class="chip" x="238" y="452" width="26" height="26" rx="7" fill="#f1f3f5"/><g><text class="glyph" x="251" y="469.5" text-anchor="middle" fill="#59636e" font-size="14" font-style="italic" font-family="Georgia,serif">ƒ</text></g>
<text class="ntitle strike" x="274" y="461" font-size="11.5" font-weight="600" fill="#1f2328" text-decoration="line-through">in_factory_container</text>
<text class="nsub" x="274" y="479" font-size="9.5" fill="#59636e" font-family="ui-monospace, SFMono-Regular, &quot;SF Mono&quot;, Menlo, Consolas, monospace">marker trust logic</text>
<g class="bdg bdg-removed"><rect x="329.88" y="426" width="67.12" height="16" rx="8" fill="#ffcecb" stroke="rgba(207,34,46,.5)" stroke-width="1"/><text x="363.44" y="437" text-anchor="middle" font-size="8.5" font-weight="700" letter-spacing=".06em" fill="#a40e26">REMOVED</text></g></g>
<g class="cardsh" filter="drop-shadow(0 1px 2px rgba(31,35,40,.14))"><rect class="card card-modified" x="456" y="92" width="180" height="62" rx="10" fill="#ffffff" stroke-width="1" stroke="#bf8700" stroke-opacity="0.5"/>
<rect class="chip" x="470" y="110" width="26" height="26" rx="7" fill="#f1f3f5"/><g><rect class="glyph-stroke" x="475" y="117" width="16" height="12" rx="2" stroke="#59636e" stroke-width="1.4" fill="none"/>
<path class="glyph-stroke" d="M475,119 l8,6 8,-6" stroke="#59636e" stroke-width="1.4" fill="none"/></g>
<text class="ntitle" x="506" y="119" font-size="11.5" font-weight="600" fill="#1f2328">codex</text>
<text class="nsub" x="506" y="137" font-size="9.5" fill="#59636e" font-family="ui-monospace, SFMono-Regular, &quot;SF Mono&quot;, Menlo, Consolas, monospace">--dangerously-bypas…</text>
<g class="bdg bdg-modified"><rect x="562.38" y="84" width="66.62" height="16" rx="8" fill="#fae17d" stroke="rgba(154,103,0,.55)" stroke-width="1"/><text x="595.69" y="95" text-anchor="middle" font-size="8.5" font-weight="700" letter-spacing=".06em" fill="#7d4e00">CHANGED</text></g></g>
<g class="cardsh context" filter="drop-shadow(0 1px 2px rgba(31,35,40,.14))" opacity="0.82"><rect class="card" x="648" y="92" width="180" height="62" rx="10" fill="#ffffff" stroke-width="1" stroke="#d1d9e0"/>
<rect class="chip" x="662" y="110" width="26" height="26" rx="7" fill="#f1f3f5"/><g><rect class="glyph-stroke" x="667" y="117" width="16" height="12" rx="2" stroke="#59636e" stroke-width="1.4" fill="none"/>
<path class="glyph-stroke" d="M667,119 l8,6 8,-6" stroke="#59636e" stroke-width="1.4" fill="none"/></g>
<text class="ntitle" x="698" y="119" font-size="11.5" font-weight="600" fill="#1f2328">claude</text>
<text class="nsub" x="698" y="137" font-size="9.5" fill="#59636e" font-family="ui-monospace, SFMono-Regular, &quot;SF Mono&quot;, Menlo, Consolas, monospace">file tools, no shell</text></g>
<g class="cardsh context" filter="drop-shadow(0 1px 2px rgba(31,35,40,.14))" opacity="0.82"><rect class="card" x="456" y="206" width="372" height="62" rx="10" fill="#ffffff" stroke-width="1" stroke="#d1d9e0"/>
<rect class="chip" x="470" y="224" width="26" height="26" rx="7" fill="#f1f3f5"/><g><rect class="glyph-stroke" x="475" y="231" width="16" height="12" rx="2" stroke="#59636e" stroke-width="1.4" fill="none"/>
<path class="glyph-stroke" d="M475,233 l8,6 8,-6" stroke="#59636e" stroke-width="1.4" fill="none"/></g>
<text class="ntitle" x="506" y="233" font-size="13" font-weight="600" fill="#1f2328">opencode</text>
<text class="nsub" x="506" y="251" font-size="9.5" fill="#59636e" font-family="ui-monospace, SFMono-Regular, &quot;SF Mono&quot;, Menlo, Consolas, monospace">OPENROUTER_API_KEY</text></g>
<g class="cardsh" filter="drop-shadow(0 1px 2px rgba(31,35,40,.14))"><rect class="card card-modified" x="456" y="320" width="372" height="62" rx="10" fill="#ffffff" stroke-width="1" stroke="#bf8700" stroke-opacity="0.5"/>
<rect class="chip" x="470" y="338" width="26" height="26" rx="7" fill="#f1f3f5"/><g><text class="glyph" x="483" y="355.5" text-anchor="middle" fill="#59636e" font-size="11" font-family="ui-monospace, SFMono-Regular, &quot;SF Mono&quot;, Menlo, Consolas, monospace">{ }</text></g>
<text class="ntitle" x="506" y="347" font-size="13" font-weight="600" fill="#1f2328">AGENTS registry</text>
<text class="nsub" x="506" y="365" font-size="9.5" fill="#59636e" font-family="ui-monospace, SFMono-Regular, &quot;SF Mono&quot;, Menlo, Consolas, monospace">crates/osf/src/agents.rs</text>
<g class="bdg bdg-modified"><rect x="754.38" y="312" width="66.62" height="16" rx="8" fill="#fae17d" stroke="rgba(154,103,0,.55)" stroke-width="1"/><text x="787.69" y="323" text-anchor="middle" font-size="8.5" font-weight="700" letter-spacing=".06em" fill="#7d4e00">CHANGED</text></g></g></g>
<g><g><rect class="lpill" x="424.75" y="290.5" width="86.51" height="15" rx="7.5" fill="#ffffff" stroke="#d8dee4" stroke-width="1"/><text class="ltext ltext-modified" x="468" y="301.5" text-anchor="middle" font-size="9.5" font-weight="600" fill="#7d4e00">Review settings</text></g>
<g><rect class="lpill" x="325.31" y="315.5" width="113.38" height="15" rx="7.5" fill="#ffffff" stroke="#d8dee4" stroke-width="1"/><text class="ltext ltext-removed" x="382" y="326.5" text-anchor="middle" font-size="9.5" font-weight="600" fill="#a40e26">in_factory_container()</text></g></g>
</svg>