<svg xmlns="http://www.w3.org/2000/svg" viewBox="0 0 516 874" width="516" height="874" role="img" aria-label="osf review internals" font-family="-apple-system, BlinkMacSystemFont, &quot;Segoe UI&quot;, &quot;Noto Sans&quot;, Helvetica, Arial, sans-serif">
<title>osf review internals</title>
<desc>The modules the review command family is built from: lens selection, agent registry, clean copy, answer validation, quote verification and the reducer.</desc>
<defs><pattern id="dots" width="18" height="18" patternUnits="userSpaceOnUse"><circle cx="1.5" cy="1.5" r="1" fill="rgba(140,149,159,.5)"/></pattern><marker id="mk-added" viewBox="0 0 10 10" refX="8" refY="5" markerWidth="6.5" markerHeight="6.5" orient="auto-start-reverse"><path d="M0,0 L10,5 L0,10 z" fill="#1f883d"/></marker><marker id="mko-added" viewBox="0 0 10 10" refX="10" refY="5" markerWidth="6.5" markerHeight="6.5" orient="auto-start-reverse"><path d="M2,1 L10,5 L2,9" fill="none" stroke="#1f883d" stroke-width="1.6" stroke-linecap="round" stroke-linejoin="round"/></marker><marker id="mk-modified" viewBox="0 0 10 10" refX="8" refY="5" markerWidth="6.5" markerHeight="6.5" orient="auto-start-reverse"><path d="M0,0 L10,5 L0,10 z" fill="#bf8700"/></marker><marker id="mko-modified" viewBox="0 0 10 10" refX="10" refY="5" markerWidth="6.5" markerHeight="6.5" orient="auto-start-reverse"><path d="M2,1 L10,5 L2,9" fill="none" stroke="#bf8700" stroke-width="1.6" stroke-linecap="round" stroke-linejoin="round"/></marker><marker id="mk-removed" viewBox="0 0 10 10" refX="8" refY="5" markerWidth="6.5" markerHeight="6.5" orient="auto-start-reverse"><path d="M0,0 L10,5 L0,10 z" fill="#cf222e"/></marker><marker id="mko-removed" viewBox="0 0 10 10" refX="10" refY="5" markerWidth="6.5" markerHeight="6.5" orient="auto-start-reverse"><path d="M2,1 L10,5 L2,9" fill="none" stroke="#cf222e" stroke-width="1.6" stroke-linecap="round" stroke-linejoin="round"/></marker><marker id="mk-neutral" viewBox="0 0 10 10" refX="8" refY="5" markerWidth="6.5" markerHeight="6.5" orient="auto-start-reverse"><path d="M0,0 L10,5 L0,10 z" fill="#8c959f"/></marker><marker id="mko-neutral" viewBox="0 0 10 10" refX="10" refY="5" markerWidth="6.5" markerHeight="6.5" orient="auto-start-reverse"><path d="M2,1 L10,5 L2,9" fill="none" stroke="#8c959f" stroke-width="1.6" stroke-linecap="round" stroke-linejoin="round"/></marker></defs>
<rect x="0" y="0" width="516" height="874" rx="12" fill="#f4f5f7"/>
<rect x="0" y="0" width="516" height="874" rx="12" fill="url(#dots)"/>
<g transform="translate(30,0)"><g><rect class="lanebox" x="36" y="44" width="404" height="814" rx="12" fill="rgba(255,255,255,.55)"/>
<text class="lanelabel" x="52" y="68" font-size="10" font-weight="700" letter-spacing=".12em" fill="#59636e">OSF CLI · CRATES/OSF</text></g>
<g><path class="edge edge-added" d="M52,111.67 L24,111.67 C8.54,111.67 -4,124.2 -4,139.67 L-4,323 C-4,338.46 8.54,351 24,351 L52,351" marker-end="url(#mk-added)" fill="none" stroke="#1f883d" stroke-width="1.5"/>
<path class="edge edge-added" d="M52,106 L19,106 C0.77,106 -14,120.77 -14,139 L-14,244 C-14,262.78 1.22,278 20,278 L313,278 C324.6,278 334,287.4 334,299 L334,320" marker-end="url(#mk-added)" fill="none" stroke="#1f883d" stroke-width="1.5"/>
<path class="edge edge-added" d="M52,123 L34,123 C24.06,123 16,131.06 16,141 L16,480 C16,498.78 31.22,514 50,514 L317,514 C326.39,514 334,521.61 334,531 L334,548" marker-end="url(#mk-added)" fill="none" stroke="#1f883d" stroke-width="1.5"/>
<path class="edge edge-added" d="M52,128.67 L39,128.67 C31.82,128.67 26,134.49 26,141.67 L26,602 C26,620.78 41.22,636 60,636 L321,636 C328.18,636 334,641.82 334,649 L334,662" marker-end="url(#mk-added)" fill="none" stroke="#1f883d" stroke-width="1.5"/>
<path class="edge edge-added" d="M52,134.33 L44,134.33 C39.58,134.33 36,137.91 36,142.33 L36,685 C36,689.42 39.58,693 44,693 L52,693" marker-end="url(#mk-added)" fill="none" stroke="#1f883d" stroke-width="1.5"/>
<path class="glow" stroke="#1f883d" d="M52,140 L49,140 C47.34,140 46,141.34 46,143 L46,804 C46,805.66 47.34,807 49,807 L52,807" fill="none" stroke-width="7" opacity="0.14"/>
<path class="edge edge-added hero" d="M52,140 L49,140 C47.34,140 46,141.34 46,143 L46,804 C46,805.66 47.34,807 49,807 L52,807" marker-end="url(#mk-added)" fill="none" stroke="#1f883d" stroke-width="2.25"/>
<path class="edge edge-added" d="M52,117.33 L29,117.33 C16.3,117.33 6,127.63 6,140.33 L6,442 C6,454.7 16.3,465 29,465 L52,465" marker-end="url(#mk-added)" fill="none" stroke="#1f883d" stroke-width="1.5"/>
<path class="glow" stroke="#1f883d" d="M424,128.67 L440.33,128.67 C449.35,128.67 456.67,135.98 456.67,145 L456.67,448.67 C456.67,457.69 449.35,465 440.33,465 L424,465" fill="none" stroke-width="7" opacity="0.14"/>
<path class="edge edge-added hero" d="M424,128.67 L440.33,128.67 C449.35,128.67 456.67,135.98 456.67,145 L456.67,448.67 C456.67,457.69 449.35,465 440.33,465 L424,465" marker-end="url(#mk-added)" fill="none" stroke="#1f883d" stroke-width="2.25"/>
<path class="edge edge-added" d="M424,140 L447,140 C459.7,140 470,150.3 470,163 L470,496 C470,514.78 454.78,530 436,530 L151,530 C146.03,530 142,534.03 142,539 L142,548" marker-end="url(#mk-added)" fill="none" stroke="#1f883d" stroke-width="1.5"/>
<path class="edge edge-added" d="M424,117.33 L433.67,117.33 C439.01,117.33 443.33,121.66 443.33,127 L443.33,374 C443.33,392.78 428.11,408 409.33,408 L155,408 C147.82,408 142,413.82 142,421 L142,434" marker-end="url(#mk-added)" fill="none" stroke="#1f883d" stroke-width="1.5"/>
<path class="edge edge-added" d="M424,106 L427,106 C428.66,106 430,107.34 430,109 L430,276 C430,294.78 414.78,310 396,310 L155,310 C152.24,310 150,312.24 150,315 L150,320" marker-end="url(#mk-added)" fill="none" stroke="#1f883d" stroke-width="1.5"/>
<path class="edge edge-added" d="M186,268 L186,320" marker-end="url(#mk-added)" fill="none" stroke="#1f883d" stroke-width="1.5"/></g>
<g><g class="cardsh" filter="drop-shadow(0 1px 2px rgba(31,35,40,.14))"><rect class="card card-added" x="52" y="92" width="180" height="62" rx="10" fill="#ffffff" stroke-width="1" stroke="#1f883d" stroke-opacity="0.55"/>
<rect class="chip" x="66" y="110" width="26" height="26" rx="7" fill="#f1f3f5"/><g><text class="glyph" x="79" y="127.5" text-anchor="middle" fill="#59636e" font-size="14" font-style="italic" font-family="Georgia,serif">ƒ</text></g>
<text class="ntitle" x="102" y="119" font-size="11.5" font-weight="600" fill="#1f2328">review run</text>
<text class="nsub" x="102" y="137" font-size="9.5" fill="#59636e" font-family="ui-monospace, SFMono-Regular, &quot;SF Mono&quot;, Menlo, Consolas, monospace">review_run.rs</text>
<g class="bdg bdg-added"><rect x="184.45" y="84" width="40.55" height="16" rx="8" fill="#b9f0c4" stroke="rgba(31,136,61,.55)" stroke-width="1"/><text x="204.73" y="95" text-anchor="middle" font-size="8.5" font-weight="700" letter-spacing=".06em" fill="#116329">NEW</text></g></g>
<g class="cardsh" filter="drop-shadow(0 1px 2px rgba(31,35,40,.14))"><rect class="card card-added" x="244" y="92" width="180" height="62" rx="10" fill="#ffffff" stroke-width="1" stroke="#1f883d" stroke-opacity="0.55"/>
<rect class="chip" x="258" y="110" width="26" height="26" rx="7" fill="#f1f3f5"/><g><text class="glyph" x="271" y="127.5" text-anchor="middle" fill="#59636e" font-size="14" font-style="italic" font-family="Georgia,serif">ƒ</text></g>
<text class="ntitle" x="294" y="119" font-size="11.5" font-weight="600" fill="#1f2328">review reduce</text>
<text class="nsub" x="294" y="137" font-size="9.5" fill="#59636e" font-family="ui-monospace, SFMono-Regular, &quot;SF Mono&quot;, Menlo, Consolas, monospace">decide from saved r…</text>
<g class="bdg bdg-added"><rect x="376.45" y="84" width="40.55" height="16" rx="8" fill="#b9f0c4" stroke="rgba(31,136,61,.55)" stroke-width="1"/><text x="396.73" y="95" text-anchor="middle" font-size="8.5" font-weight="700" letter-spacing=".06em" fill="#116329">NEW</text></g></g>
<g class="cardsh" filter="drop-shadow(0 1px 2px rgba(31,35,40,.14))"><rect class="card card-modified" x="52" y="206" width="372" height="62" rx="10" fill="#ffffff" stroke-width="1" stroke="#bf8700" stroke-opacity="0.5"/>
<rect class="chip" x="66" y="224" width="26" height="26" rx="7" fill="#f1f3f5"/><g><text class="glyph" x="79" y="241.5" text-anchor="middle" fill="#59636e" font-size="11" font-family="ui-monospace, SFMono-Regular, &quot;SF Mono&quot;, Menlo, Consolas, monospace">{ }</text></g>
<text class="ntitle" x="102" y="233" font-size="13" font-weight="600" fill="#1f2328">Changeset risk</text>
<text class="nsub" x="102" y="251" font-size="9.5" fill="#59636e" font-family="ui-monospace, SFMono-Regular, &quot;SF Mono&quot;, Menlo, Consolas, monospace">changeset_risk.rs</text>
<g class="bdg bdg-modified"><rect x="350.38" y="198" width="66.62" height="16" rx="8" fill="#fae17d" stroke="rgba(154,103,0,.55)" stroke-width="1"/><text x="383.69" y="209" text-anchor="middle" font-size="8.5" font-weight="700" letter-spacing=".06em" fill="#7d4e00">CHANGED</text></g></g>
<g class="cardsh" filter="drop-shadow(0 1px 2px rgba(31,35,40,.14))"><rect class="card card-added" x="52" y="320" width="180" height="62" rx="10" fill="#ffffff" stroke-width="1" stroke="#1f883d" stroke-opacity="0.55"/>
<rect class="chip" x="66" y="338" width="26" height="26" rx="7" fill="#f1f3f5"/><g><text class="glyph" x="79" y="355.5" text-anchor="middle" fill="#59636e" font-size="11" font-family="ui-monospace, SFMono-Regular, &quot;SF Mono&quot;, Menlo, Consolas, monospace">{ }</text></g>
<text class="ntitle" x="102" y="347" font-size="11.5" font-weight="600" fill="#1f2328">Lens catalogue</text>
<text class="nsub" x="102" y="365" font-size="9.5" fill="#59636e" font-family="ui-monospace, SFMono-Regular, &quot;SF Mono&quot;, Menlo, Consolas, monospace">20 shipped lenses</text>
<g class="bdg bdg-added"><rect x="184.45" y="312" width="40.55" height="16" rx="8" fill="#b9f0c4" stroke="rgba(31,136,61,.55)" stroke-width="1"/><text x="204.73" y="323" text-anchor="middle" font-size="8.5" font-weight="700" letter-spacing=".06em" fill="#116329">NEW</text></g></g>
<g class="cardsh" filter="drop-shadow(0 1px 2px rgba(31,35,40,.14))"><rect class="card card-modified" x="244" y="320" width="180" height="62" rx="10" fill="#ffffff" stroke-width="1" stroke="#bf8700" stroke-opacity="0.5"/>
<rect class="chip" x="258" y="338" width="26" height="26" rx="7" fill="#f1f3f5"/><g><text class="glyph" x="271" y="355.5" text-anchor="middle" fill="#59636e" font-size="11" font-family="ui-monospace, SFMono-Regular, &quot;SF Mono&quot;, Menlo, Consolas, monospace">{ }</text></g>
<text class="ntitle" x="294" y="347" font-size="11.5" font-weight="600" fill="#1f2328">Agent registry</text>
<text class="nsub" x="294" y="365" font-size="9.5" fill="#59636e" font-family="ui-monospace, SFMono-Regular, &quot;SF Mono&quot;, Menlo, Consolas, monospace">agents.rs</text>
<g class="bdg bdg-modified"><rect x="350.38" y="312" width="66.62" height="16" rx="8" fill="#fae17d" stroke="rgba(154,103,0,.55)" stroke-width="1"/><text x="383.69" y="323" text-anchor="middle" font-size="8.5" font-weight="700" letter-spacing=".06em" fill="#7d4e00">CHANGED</text></g></g>
<g class="cardsh" filter="drop-shadow(0 1px 2px rgba(31,35,40,.14))"><rect class="card card-added" x="52" y="434" width="180" height="62" rx="10" fill="#ffffff" stroke-width="1" stroke="#1f883d" stroke-opacity="0.55"/>
<rect class="chip" x="66" y="452" width="26" height="26" rx="7" fill="#f1f3f5"/><g><text class="glyph" x="79" y="469.5" text-anchor="middle" fill="#59636e" font-size="11" font-family="ui-monospace, SFMono-Regular, &quot;SF Mono&quot;, Menlo, Consolas, monospace">{ }</text></g>
<text class="ntitle" x="102" y="461" font-size="11.5" font-weight="600" fill="#1f2328">Answer validation</text>
<text class="nsub" x="102" y="479" font-size="9.5" fill="#59636e" font-family="ui-monospace, SFMono-Regular, &quot;SF Mono&quot;, Menlo, Consolas, monospace">answer.rs</text>
<g class="bdg bdg-added"><rect x="184.45" y="426" width="40.55" height="16" rx="8" fill="#b9f0c4" stroke="rgba(31,136,61,.55)" stroke-width="1"/><text x="204.73" y="437" text-anchor="middle" font-size="8.5" font-weight="700" letter-spacing=".06em" fill="#116329">NEW</text></g></g>
<g class="cardsh" filter="drop-shadow(0 1px 2px rgba(31,35,40,.14))"><rect class="card card-added" x="244" y="434" width="180" height="62" rx="10" fill="#ffffff" stroke-width="1" stroke="#1f883d" stroke-opacity="0.55"/>
<rect class="chip" x="258" y="452" width="26" height="26" rx="7" fill="#f1f3f5"/><g><text class="glyph" x="271" y="469.5" text-anchor="middle" fill="#59636e" font-size="11" font-family="ui-monospace, SFMono-Regular, &quot;SF Mono&quot;, Menlo, Consolas, monospace">{ }</text></g>
<text class="ntitle" x="294" y="461" font-size="11.5" font-weight="600" fill="#1f2328">Quote verification</text>
<text class="nsub" x="294" y="479" font-size="9.5" fill="#59636e" font-family="ui-monospace, SFMono-Regular, &quot;SF Mono&quot;, Menlo, Consolas, monospace">quotes.rs</text>
<g class="bdg bdg-added"><rect x="376.45" y="426" width="40.55" height="16" rx="8" fill="#b9f0c4" stroke="rgba(31,136,61,.55)" stroke-width="1"/><text x="396.73" y="437" text-anchor="middle" font-size="8.5" font-weight="700" letter-spacing=".06em" fill="#116329">NEW</text></g></g>
<g class="cardsh" filter="drop-shadow(0 1px 2px rgba(31,35,40,.14))"><rect class="card card-added" x="52" y="548" width="180" height="62" rx="10" fill="#ffffff" stroke-width="1" stroke="#1f883d" stroke-opacity="0.55"/>
<rect class="chip" x="66" y="566" width="26" height="26" rx="7" fill="#f1f3f5"/><g><text class="glyph" x="79" y="583.5" text-anchor="middle" fill="#59636e" font-size="11" font-family="ui-monospace, SFMono-Regular, &quot;SF Mono&quot;, Menlo, Consolas, monospace">{ }</text></g>
<text class="ntitle" x="102" y="575" font-size="11.5" font-weight="600" fill="#1f2328">Reducer</text>
<text class="nsub" x="102" y="593" font-size="9.5" fill="#59636e" font-family="ui-monospace, SFMono-Regular, &quot;SF Mono&quot;, Menlo, Consolas, monospace">reducer.rs</text>
<g class="bdg bdg-added"><rect x="184.45" y="540" width="40.55" height="16" rx="8" fill="#b9f0c4" stroke="rgba(31,136,61,.55)" stroke-width="1"/><text x="204.73" y="551" text-anchor="middle" font-size="8.5" font-weight="700" letter-spacing=".06em" fill="#116329">NEW</text></g></g>
<g class="cardsh" filter="drop-shadow(0 1px 2px rgba(31,35,40,.14))"><rect class="card card-added" x="244" y="548" width="180" height="62" rx="10" fill="#ffffff" stroke-width="1" stroke="#1f883d" stroke-opacity="0.55"/>
<rect class="chip" x="258" y="566" width="26" height="26" rx="7" fill="#f1f3f5"/><g><text class="glyph" x="271" y="583.5" text-anchor="middle" fill="#59636e" font-size="11" font-family="ui-monospace, SFMono-Regular, &quot;SF Mono&quot;, Menlo, Consolas, monospace">{ }</text></g>
<text class="ntitle" x="294" y="575" font-size="11.5" font-weight="600" fill="#1f2328">Builder family</text>
<text class="nsub" x="294" y="593" font-size="9.5" fill="#59636e" font-family="ui-monospace, SFMono-Regular, &quot;SF Mono&quot;, Menlo, Consolas, monospace">builder.rs</text>
<g class="bdg bdg-added"><rect x="376.45" y="540" width="40.55" height="16" rx="8" fill="#b9f0c4" stroke="rgba(31,136,61,.55)" stroke-width="1"/><text x="396.73" y="551" text-anchor="middle" font-size="8.5" font-weight="700" letter-spacing=".06em" fill="#116329">NEW</text></g></g>
<g class="cardsh" filter="drop-shadow(0 1px 2px rgba(31,35,40,.14))"><rect class="card card-added" x="52" y="662" width="180" height="62" rx="10" fill="#ffffff" stroke-width="1" stroke="#1f883d" stroke-opacity="0.55"/>
<rect class="chip" x="66" y="680" width="26" height="26" rx="7" fill="#f1f3f5"/><g><text class="glyph" x="79" y="697.5" text-anchor="middle" fill="#59636e" font-size="11" font-family="ui-monospace, SFMono-Regular, &quot;SF Mono&quot;, Menlo, Consolas, monospace">{ }</text></g>
<text class="ntitle" x="102" y="689" font-size="11.5" font-weight="600" fill="#1f2328">Clean copy</text>
<text class="nsub" x="102" y="707" font-size="9.5" fill="#59636e" font-family="ui-monospace, SFMono-Regular, &quot;SF Mono&quot;, Menlo, Consolas, monospace">clean_copy.rs</text>
<g class="bdg bdg-added"><rect x="184.45" y="654" width="40.55" height="16" rx="8" fill="#b9f0c4" stroke="rgba(31,136,61,.55)" stroke-width="1"/><text x="204.73" y="665" text-anchor="middle" font-size="8.5" font-weight="700" letter-spacing=".06em" fill="#116329">NEW</text></g></g>
<g class="cardsh" filter="drop-shadow(0 1px 2px rgba(31,35,40,.14))"><rect class="card card-added" x="244" y="662" width="180" height="62" rx="10" fill="#ffffff" stroke-width="1" stroke="#1f883d" stroke-opacity="0.55"/>
<rect class="chip" x="258" y="680" width="26" height="26" rx="7" fill="#f1f3f5"/><g><text class="glyph" x="271" y="697.5" text-anchor="middle" fill="#59636e" font-size="11" font-family="ui-monospace, SFMono-Regular, &quot;SF Mono&quot;, Menlo, Consolas, monospace">{ }</text></g>
<text class="ntitle" x="294" y="689" font-size="11.5" font-weight="600" fill="#1f2328">Review context</text>
<text class="nsub" x="294" y="707" font-size="9.5" fill="#59636e" font-family="ui-monospace, SFMono-Regular, &quot;SF Mono&quot;, Menlo, Consolas, monospace">review_context.rs</text>
<g class="bdg bdg-added"><rect x="376.45" y="654" width="40.55" height="16" rx="8" fill="#b9f0c4" stroke="rgba(31,136,61,.55)" stroke-width="1"/><text x="396.73" y="665" text-anchor="middle" font-size="8.5" font-weight="700" letter-spacing=".06em" fill="#116329">NEW</text></g></g>
<g class="cardsh" filter="drop-shadow(0 1px 2px rgba(31,35,40,.14))"><rect class="card card-added" x="52" y="776" width="372" height="62" rx="10" fill="#ffffff" stroke-width="1" stroke="#1f883d" stroke-opacity="0.55"/>
<rect class="chip" x="66" y="794" width="26" height="26" rx="7" fill="#f1f3f5"/><g><text class="glyph" x="79" y="811.5" text-anchor="middle" fill="#59636e" font-size="11" font-family="ui-monospace, SFMono-Regular, &quot;SF Mono&quot;, Menlo, Consolas, monospace">{ }</text></g>
<text class="ntitle" x="102" y="803" font-size="13" font-weight="600" fill="#1f2328">Reviewer harness</text>
<text class="nsub" x="102" y="821" font-size="9.5" fill="#59636e" font-family="ui-monospace, SFMono-Regular, &quot;SF Mono&quot;, Menlo, Consolas, monospace">reviewers.rs</text>
<g class="bdg bdg-added"><rect x="376.45" y="768" width="40.55" height="16" rx="8" fill="#b9f0c4" stroke="rgba(31,136,61,.55)" stroke-width="1"/><text x="396.73" y="779" text-anchor="middle" font-size="8.5" font-weight="700" letter-spacing=".06em" fill="#116329">NEW</text></g></g></g>
<g><g><rect class="lpill" x="149.6" y="285" width="72.8" height="15" rx="7.5" fill="#ffffff" stroke="#d8dee4" stroke-width="1"/><text class="ltext ltext-added" x="186" y="296" text-anchor="middle" font-size="9.5" font-weight="600" fill="#116329">signals + tier</text></g></g></g>
</svg>