<svg xmlns="http://www.w3.org/2000/svg" viewBox="0 0 1304 646" width="1304" height="646" role="img" aria-label="Documentation set and its consumers" font-family="-apple-system, BlinkMacSystemFont, &quot;Segoe UI&quot;, &quot;Noto Sans&quot;, Helvetica, Arial, sans-serif">
<title>Documentation set and its consumers</title>
<desc>The documentation set as three lanes: the prose corpus, the osf crate whose test comments changed, and the lint tooling that reads both. The links between prose documents are the substance of the change.</desc>
<defs><pattern id="dots" width="18" height="18" patternUnits="userSpaceOnUse"><circle cx="1.5" cy="1.5" r="1" fill="rgba(110,118,129,.22)"/></pattern><marker id="mk-added" viewBox="0 0 10 10" refX="8" refY="5" markerWidth="6.5" markerHeight="6.5" orient="auto-start-reverse"><path d="M0,0 L10,5 L0,10 z" fill="#3fb950"/></marker><marker id="mko-added" viewBox="0 0 10 10" refX="10" refY="5" markerWidth="6.5" markerHeight="6.5" orient="auto-start-reverse"><path d="M2,1 L10,5 L2,9" fill="none" stroke="#3fb950" stroke-width="1.6" stroke-linecap="round" stroke-linejoin="round"/></marker><marker id="mk-modified" viewBox="0 0 10 10" refX="8" refY="5" markerWidth="6.5" markerHeight="6.5" orient="auto-start-reverse"><path d="M0,0 L10,5 L0,10 z" fill="#d29922"/></marker><marker id="mko-modified" viewBox="0 0 10 10" refX="10" refY="5" markerWidth="6.5" markerHeight="6.5" orient="auto-start-reverse"><path d="M2,1 L10,5 L2,9" fill="none" stroke="#d29922" stroke-width="1.6" stroke-linecap="round" stroke-linejoin="round"/></marker><marker id="mk-removed" viewBox="0 0 10 10" refX="8" refY="5" markerWidth="6.5" markerHeight="6.5" orient="auto-start-reverse"><path d="M0,0 L10,5 L0,10 z" fill="#f85149"/></marker><marker id="mko-removed" viewBox="0 0 10 10" refX="10" refY="5" markerWidth="6.5" markerHeight="6.5" orient="auto-start-reverse"><path d="M2,1 L10,5 L2,9" fill="none" stroke="#f85149" stroke-width="1.6" stroke-linecap="round" stroke-linejoin="round"/></marker><marker id="mk-neutral" viewBox="0 0 10 10" refX="8" refY="5" markerWidth="6.5" markerHeight="6.5" orient="auto-start-reverse"><path d="M0,0 L10,5 L0,10 z" fill="#6e7681"/></marker><marker id="mko-neutral" viewBox="0 0 10 10" refX="10" refY="5" markerWidth="6.5" markerHeight="6.5" orient="auto-start-reverse"><path d="M2,1 L10,5 L2,9" fill="none" stroke="#6e7681" stroke-width="1.6" stroke-linecap="round" stroke-linejoin="round"/></marker></defs>
<rect x="0" y="0" width="1304" height="646" rx="12" fill="#0d1117"/>
<rect x="0" y="0" width="1304" height="646" rx="12" fill="url(#dots)"/>
<g transform="translate(20,0)"><g><rect class="lanebox" x="16" y="44" width="404" height="586" rx="12" fill="rgba(110,118,129,.07)"/>
<text class="lanelabel" x="32" y="68" font-size="10" font-weight="700" letter-spacing=".12em" fill="#9198a1">DOCUMENTATION SET · MARKDOWN, REPOSITORY-RELAT…</text>
<rect class="lanebox" x="440" y="44" width="404" height="586" rx="12" fill="rgba(110,118,129,.07)"/>
<text class="lanelabel" x="456" y="68" font-size="10" font-weight="700" letter-spacing=".12em" fill="#9198a1">OSF CRATE · RUST CLI AND ITS TESTS</text>
<rect class="lanebox" x="864" y="44" width="404" height="586" rx="12" fill="rgba(110,118,129,.07)"/>
<text class="lanelabel" x="880" y="68" font-size="10" font-weight="700" letter-spacing=".12em" fill="#9198a1">LINT AND LINK TOOLING · OSF LINT, SKILL LINT, LINK CH…</text></g>
<g><path class="glow" stroke="#3fb950" d="M404,351 L409,351 C411.76,351 414,353.24 414,356 L414,566 C414,568.76 411.76,571 409,571 L404,571" fill="none" stroke-width="7" opacity="0.14"/>
<path class="edge edge-added hero" d="M404,351 L409,351 C411.76,351 414,353.24 414,356 L414,566 C414,568.76 411.76,571 409,571 L404,571" marker-end="url(#mk-added)" fill="none" stroke="#3fb950" stroke-width="2.25"/>
<path class="edge edge-modified" d="M404,568.67 C434,557.67 434,600.33 404,589.33" marker-end="url(#mk-modified)" fill="none" stroke="#d29922" stroke-width="1.5"/>
<path class="edge edge-modified" d="M218,496 L218,548" marker-end="url(#mk-modified)" fill="none" stroke="#d29922" stroke-width="1.5"/>
<path class="edge edge-added" d="M32,351 L19,351 C11.82,351 6,356.82 6,364 L6,566 C6,573.18 11.82,579 19,579 L32,579" marker-end="url(#mk-added)" fill="none" stroke="#3fb950" stroke-width="1.5"/>
<path class="edge edge-modified" d="M212,112.67 C242,101.67 242,144.33 212,133.33" marker-end="url(#mk-modified)" fill="none" stroke="#d29922" stroke-width="1.5"/>
<path class="edge edge-neutral faded context" d="M880,253 L877,253 C875.34,253 874,254.34 874,256 L874,374 C874,392.78 858.78,408 840,408 L458.5,408 C442.76,408 430,420.76 430,436.5 L430,452 C430,459.18 424.18,465 417,465 L404,465" marker-end="url(#mk-neutral)" fill="none" stroke="#6e7681" stroke-width="1.5" opacity="0.45"/>
<path class="edge edge-neutral faded context" d="M880,123 L863.67,123 C854.65,123 847.33,130.31 847.33,139.33 L847.33,496 C847.33,514.78 832.11,530 813.33,530 L474.5,530 C458.76,530 446,542.76 446,558.5 L446,566 C446,577.6 436.6,587 425,587 L404,587" marker-end="url(#mk-neutral)" fill="none" stroke="#6e7681" stroke-width="1.5" opacity="0.45"/>
<path class="edge edge-neutral faded context" d="M546,154 L546,167 C546,174.18 551.82,180 559,180 L832.17,180 C847.91,180 860.67,192.76 860.67,208.5 L860.67,227.33 C860.67,232.67 864.99,237 870.33,237 L880,237" marker-end="url(#mk-neutral)" fill="none" stroke="#6e7681" stroke-width="1.5" opacity="0.45"/>
<path class="edge edge-neutral faded context" d="M828,123 L831,123 C832.66,123 834,124.34 834,126 L834,198 C834,210.7 844.3,221 857,221 L880,221" marker-end="url(#mk-neutral)" fill="none" stroke="#6e7681" stroke-width="1.5" opacity="0.45"/></g>
<g><g class="cardsh" filter="drop-shadow(0 1px 2px rgba(0,0,0,.28))"><rect class="card card-modified" x="32" y="92" width="180" height="62" rx="10" fill="#1c2128" stroke-width="1" stroke="#d29922" stroke-opacity="0.5"/>
<rect class="chip" x="46" y="110" width="26" height="26" rx="7" fill="rgba(110,118,129,.18)"/><g><text class="glyph" x="59" y="127.5" text-anchor="middle" fill="#9198a1" font-size="11" font-family="ui-monospace, SFMono-Regular, &quot;SF Mono&quot;, Menlo, Consolas, monospace">{ }</text></g>
<text class="ntitle" x="82" y="119" font-size="11.5" font-weight="600" fill="#e6edf3">Vision docs</text>
<text class="nsub" x="82" y="137" font-size="9.5" fill="#9198a1" font-family="ui-monospace, SFMono-Regular, &quot;SF Mono&quot;, Menlo, Consolas, monospace">docs/vision/*.md</text>
<g class="bdg bdg-modified"><rect x="138.38" y="84" width="66.62" height="16" rx="8" fill="rgba(187,128,9,.15)" stroke="rgba(210,153,34,.4)" stroke-width="1"/><text x="171.69" y="95" text-anchor="middle" font-size="8.5" font-weight="700" letter-spacing=".06em" fill="#d29922">CHANGED</text></g></g>
<g class="cardsh" filter="drop-shadow(0 1px 2px rgba(0,0,0,.28))"><rect class="card card-modified" x="224" y="92" width="180" height="62" rx="10" fill="#1c2128" stroke-width="1" stroke="#d29922" stroke-opacity="0.5"/>
<rect class="chip" x="238" y="110" width="26" height="26" rx="7" fill="rgba(110,118,129,.18)"/><g><text class="glyph" x="251" y="127.5" text-anchor="middle" fill="#9198a1" font-size="11" font-family="ui-monospace, SFMono-Regular, &quot;SF Mono&quot;, Menlo, Consolas, monospace">{ }</text></g>
<text class="ntitle" x="274" y="119" font-size="11.5" font-weight="600" fill="#e6edf3">Design system docs</text>
<text class="nsub" x="274" y="137" font-size="9.5" fill="#9198a1" font-family="ui-monospace, SFMono-Regular, &quot;SF Mono&quot;, Menlo, Consolas, monospace">docs/design/**</text>
<g class="bdg bdg-modified"><rect x="330.38" y="84" width="66.62" height="16" rx="8" fill="rgba(187,128,9,.15)" stroke="rgba(210,153,34,.4)" stroke-width="1"/><text x="363.69" y="95" text-anchor="middle" font-size="8.5" font-weight="700" letter-spacing=".06em" fill="#d29922">CHANGED</text></g></g>
<g class="cardsh" filter="drop-shadow(0 1px 2px rgba(0,0,0,.28))"><rect class="card card-modified" x="32" y="206" width="180" height="62" rx="10" fill="#1c2128" stroke-width="1" stroke="#d29922" stroke-opacity="0.5"/>
<rect class="chip" x="46" y="224" width="26" height="26" rx="7" fill="rgba(110,118,129,.18)"/><g><text class="glyph" x="59" y="241.5" text-anchor="middle" fill="#9198a1" font-size="11" font-family="ui-monospace, SFMono-Regular, &quot;SF Mono&quot;, Menlo, Consolas, monospace">{ }</text></g>
<text class="ntitle" x="82" y="233" font-size="11.5" font-weight="600" fill="#e6edf3">Research notes</text>
<text class="nsub" x="82" y="251" font-size="9.5" fill="#9198a1" font-family="ui-monospace, SFMono-Regular, &quot;SF Mono&quot;, Menlo, Consolas, monospace">docs/research/**</text>
<g class="bdg bdg-modified"><rect x="138.38" y="198" width="66.62" height="16" rx="8" fill="rgba(187,128,9,.15)" stroke="rgba(210,153,34,.4)" stroke-width="1"/><text x="171.69" y="209" text-anchor="middle" font-size="8.5" font-weight="700" letter-spacing=".06em" fill="#d29922">CHANGED</text></g></g>
<g class="cardsh" filter="drop-shadow(0 1px 2px rgba(0,0,0,.28))"><rect class="card card-modified" x="224" y="206" width="180" height="62" rx="10" fill="#1c2128" stroke-width="1" stroke="#d29922" stroke-opacity="0.5"/>
<rect class="chip" x="238" y="224" width="26" height="26" rx="7" fill="rgba(110,118,129,.18)"/><g><text class="glyph" x="251" y="241.5" text-anchor="middle" fill="#9198a1" font-size="11" font-family="ui-monospace, SFMono-Regular, &quot;SF Mono&quot;, Menlo, Consolas, monospace">{ }</text></g>
<text class="ntitle" x="274" y="233" font-size="11.5" font-weight="600" fill="#e6edf3">Skill files</text>
<text class="nsub" x="274" y="251" font-size="9.5" fill="#9198a1" font-family="ui-monospace, SFMono-Regular, &quot;SF Mono&quot;, Menlo, Consolas, monospace">skills/pr-outline/S…</text>
<g class="bdg bdg-modified"><rect x="330.38" y="198" width="66.62" height="16" rx="8" fill="rgba(187,128,9,.15)" stroke="rgba(210,153,34,.4)" stroke-width="1"/><text x="363.69" y="209" text-anchor="middle" font-size="8.5" font-weight="700" letter-spacing=".06em" fill="#d29922">CHANGED</text></g></g>
<g class="cardsh" filter="drop-shadow(0 1px 2px rgba(0,0,0,.28))"><rect class="card card-modified" x="32" y="320" width="180" height="62" rx="10" fill="#1c2128" stroke-width="1" stroke="#d29922" stroke-opacity="0.5"/>
<rect class="chip" x="46" y="338" width="26" height="26" rx="7" fill="rgba(110,118,129,.18)"/><g><text class="glyph" x="59" y="355.5" text-anchor="middle" fill="#9198a1" font-size="11" font-family="ui-monospace, SFMono-Regular, &quot;SF Mono&quot;, Menlo, Consolas, monospace">{ }</text></g>
<text class="ntitle" x="82" y="347" font-size="11.5" font-weight="600" fill="#e6edf3">Product docs</text>
<text class="nsub" x="82" y="365" font-size="9.5" fill="#9198a1" font-family="ui-monospace, SFMono-Regular, &quot;SF Mono&quot;, Menlo, Consolas, monospace">docs/product/**</text>
<g class="bdg bdg-modified"><rect x="138.38" y="312" width="66.62" height="16" rx="8" fill="rgba(187,128,9,.15)" stroke="rgba(210,153,34,.4)" stroke-width="1"/><text x="171.69" y="323" text-anchor="middle" font-size="8.5" font-weight="700" letter-spacing=".06em" fill="#d29922">CHANGED</text></g></g>
<g class="cardsh" filter="drop-shadow(0 1px 2px rgba(0,0,0,.28))"><rect class="card card-modified" x="224" y="320" width="180" height="62" rx="10" fill="#1c2128" stroke-width="1" stroke="#d29922" stroke-opacity="0.5"/>
<rect class="chip" x="238" y="338" width="26" height="26" rx="7" fill="rgba(110,118,129,.18)"/><g><text class="glyph" x="251" y="355.5" text-anchor="middle" fill="#9198a1" font-size="11" font-family="ui-monospace, SFMono-Regular, &quot;SF Mono&quot;, Menlo, Consolas, monospace">{ }</text></g>
<text class="ntitle" x="274" y="347" font-size="11.5" font-weight="600" fill="#e6edf3">Root documents</text>
<text class="nsub" x="274" y="365" font-size="9.5" fill="#9198a1" font-family="ui-monospace, SFMono-Regular, &quot;SF Mono&quot;, Menlo, Consolas, monospace">README, CONTRIBUTIN…</text>
<g class="bdg bdg-modified"><rect x="330.38" y="312" width="66.62" height="16" rx="8" fill="rgba(187,128,9,.15)" stroke="rgba(210,153,34,.4)" stroke-width="1"/><text x="363.69" y="323" text-anchor="middle" font-size="8.5" font-weight="700" letter-spacing=".06em" fill="#d29922">CHANGED</text></g></g>
<g class="cardsh" filter="drop-shadow(0 1px 2px rgba(0,0,0,.28))"><rect class="card card-modified" x="32" y="434" width="372" height="62" rx="10" fill="#1c2128" stroke-width="1" stroke="#d29922" stroke-opacity="0.5"/>
<rect class="chip" x="46" y="452" width="26" height="26" rx="7" fill="rgba(110,118,129,.18)"/><g><text class="glyph" x="59" y="469.5" text-anchor="middle" fill="#9198a1" font-size="11" font-family="ui-monospace, SFMono-Regular, &quot;SF Mono&quot;, Menlo, Consolas, monospace">{ }</text></g>
<text class="ntitle" x="82" y="461" font-size="13" font-weight="600" fill="#e6edf3">Architecture prose</text>
<text class="nsub" x="82" y="479" font-size="9.5" fill="#9198a1" font-family="ui-monospace, SFMono-Regular, &quot;SF Mono&quot;, Menlo, Consolas, monospace">docs/architecture/*.md</text>
<g class="bdg bdg-modified"><rect x="330.38" y="426" width="66.62" height="16" rx="8" fill="rgba(187,128,9,.15)" stroke="rgba(210,153,34,.4)" stroke-width="1"/><text x="363.69" y="437" text-anchor="middle" font-size="8.5" font-weight="700" letter-spacing=".06em" fill="#d29922">CHANGED</text></g></g>
<g class="cardsh" filter="drop-shadow(0 1px 2px rgba(0,0,0,.28))"><rect class="card card-modified" x="32" y="548" width="372" height="62" rx="10" fill="#1c2128" stroke-width="1" stroke="#d29922" stroke-opacity="0.5"/>
<rect class="chip" x="46" y="566" width="26" height="26" rx="7" fill="rgba(110,118,129,.18)"/><g><text class="glyph" x="59" y="583.5" text-anchor="middle" fill="#9198a1" font-size="11" font-family="ui-monospace, SFMono-Regular, &quot;SF Mono&quot;, Menlo, Consolas, monospace">{ }</text></g>
<text class="ntitle" x="82" y="575" font-size="13" font-weight="600" fill="#e6edf3">Architecture decision records</text>
<text class="nsub" x="82" y="593" font-size="9.5" fill="#9198a1" font-family="ui-monospace, SFMono-Regular, &quot;SF Mono&quot;, Menlo, Consolas, monospace">docs/architecture/decisions/*.md</text>
<g class="bdg bdg-modified"><rect x="330.38" y="540" width="66.62" height="16" rx="8" fill="rgba(187,128,9,.15)" stroke="rgba(210,153,34,.4)" stroke-width="1"/><text x="363.69" y="551" text-anchor="middle" font-size="8.5" font-weight="700" letter-spacing=".06em" fill="#d29922">CHANGED</text></g></g>
<g class="cardsh" filter="drop-shadow(0 1px 2px rgba(0,0,0,.28))"><rect class="card card-modified" x="456" y="92" width="180" height="62" rx="10" fill="#1c2128" stroke-width="1" stroke="#d29922" stroke-opacity="0.5"/>
<rect class="chip" x="470" y="110" width="26" height="26" rx="7" fill="rgba(110,118,129,.18)"/><g><path class="glyph-stroke" d="M477,123 l4,4 l8,-8" stroke="#9198a1" stroke-width="1.4" fill="none"/></g>
<text class="ntitle" x="506" y="119" font-size="11.5" font-weight="600" fill="#e6edf3">hook.rs test module</text>
<text class="nsub" x="506" y="137" font-size="9.5" fill="#9198a1" font-family="ui-monospace, SFMono-Regular, &quot;SF Mono&quot;, Menlo, Consolas, monospace">crates/osf/src/hook…</text>
<g class="bdg bdg-modified"><rect x="562.38" y="84" width="66.62" height="16" rx="8" fill="rgba(187,128,9,.15)" stroke="rgba(210,153,34,.4)" stroke-width="1"/><text x="595.69" y="95" text-anchor="middle" font-size="8.5" font-weight="700" letter-spacing=".06em" fill="#d29922">CHANGED</text></g></g>
<g class="cardsh" filter="drop-shadow(0 1px 2px rgba(0,0,0,.28))"><rect class="card card-modified" x="648" y="92" width="180" height="62" rx="10" fill="#1c2128" stroke-width="1" stroke="#d29922" stroke-opacity="0.5"/>
<rect class="chip" x="662" y="110" width="26" height="26" rx="7" fill="rgba(110,118,129,.18)"/><g><path class="glyph-stroke" d="M669,123 l4,4 l8,-8" stroke="#9198a1" stroke-width="1.4" fill="none"/></g>
<text class="ntitle" x="698" y="119" font-size="10.5" font-weight="600" fill="#e6edf3">skill_lint.rs integration…</text>
<text class="nsub" x="698" y="137" font-size="9.5" fill="#9198a1" font-family="ui-monospace, SFMono-Regular, &quot;SF Mono&quot;, Menlo, Consolas, monospace">crates/osf/tests/sk…</text>
<g class="bdg bdg-modified"><rect x="754.38" y="84" width="66.62" height="16" rx="8" fill="rgba(187,128,9,.15)" stroke="rgba(210,153,34,.4)" stroke-width="1"/><text x="787.69" y="95" text-anchor="middle" font-size="8.5" font-weight="700" letter-spacing=".06em" fill="#d29922">CHANGED</text></g></g>
<g class="cardsh context" filter="drop-shadow(0 1px 2px rgba(0,0,0,.28))" opacity="0.82"><rect class="card" x="880" y="92" width="372" height="62" rx="10" fill="#1c2128" stroke-width="1" stroke="#3d444d"/>
<rect class="chip" x="894" y="110" width="26" height="26" rx="7" fill="rgba(110,118,129,.18)"/><g><text class="glyph" x="907" y="127.5" text-anchor="middle" fill="#9198a1" font-size="14" font-style="italic" font-family="Georgia,serif">ƒ</text></g>
<text class="ntitle" x="930" y="119" font-size="13" font-weight="600" fill="#e6edf3">Relative link resolution</text>
<text class="nsub" x="930" y="137" font-size="9.5" fill="#9198a1" font-family="ui-monospace, SFMono-Regular, &quot;SF Mono&quot;, Menlo, Consolas, monospace">markdown link targets</text></g>
<g class="cardsh context" filter="drop-shadow(0 1px 2px rgba(0,0,0,.28))" opacity="0.82"><rect class="card" x="880" y="206" width="372" height="62" rx="10" fill="#1c2128" stroke-width="1" stroke="#3d444d"/>
<rect class="chip" x="894" y="224" width="26" height="26" rx="7" fill="rgba(110,118,129,.18)"/><g><text class="glyph" x="907" y="241.5" text-anchor="middle" fill="#9198a1" font-size="14" font-style="italic" font-family="Georgia,serif">ƒ</text></g>
<text class="ntitle" x="930" y="233" font-size="13" font-weight="600" fill="#e6edf3">osf lint</text>
<text class="nsub" x="930" y="251" font-size="9.5" fill="#9198a1" font-family="ui-monospace, SFMono-Regular, &quot;SF Mono&quot;, Menlo, Consolas, monospace">prose and skill linting</text></g></g>
<g><g><rect class="lpill" x="387.26" y="508" width="53.49" height="15" rx="7.5" fill="#0d1117" stroke="#21262d" stroke-width="1"/><text class="ltext ltext-added" x="414" y="519" text-anchor="middle" font-size="9.5" font-weight="600" fill="#3fb950">CLA link</text></g>
<g><rect class="lpill" x="416.5" y="571.5" width="94.89" height="15" rx="7.5" fill="#0d1117" stroke="#21262d" stroke-width="1"/><text class="ltext ltext-modified" x="463.95" y="582.5" text-anchor="middle" font-size="9.5" font-weight="600" fill="#d29922">cross-record links</text></g>
<g><rect class="lpill" x="180.06" y="514.5" width="75.88" height="15" rx="7.5" fill="#0d1117" stroke="#21262d" stroke-width="1"/><text class="ltext ltext-modified" x="218" y="525.5" text-anchor="middle" font-size="9.5" font-weight="600" fill="#d29922">decision links</text></g>
<g><rect class="lpill" x="-4" y="407" width="97.7" height="15" rx="7.5" fill="#0d1117" stroke="#21262d" stroke-width="1"/><text class="ltext ltext-added" x="44.85" y="418" text-anchor="middle" font-size="9.5" font-weight="600" fill="#3fb950">domain-model link</text></g>
<g><rect class="lpill" x="187.6" y="64.5" width="93.8" height="15" rx="7.5" fill="#0d1117" stroke="#21262d" stroke-width="1"/><text class="ltext ltext-modified" x="234.5" y="75.5" text-anchor="middle" font-size="9.5" font-weight="600" fill="#d29922">phase references</text></g>
<g><rect class="lpill" x="592.56" y="400.5" width="113.38" height="15" rx="7.5" fill="#0d1117" stroke="#21262d" stroke-width="1"/><text class="ltext" x="649.25" y="411.5" text-anchor="middle" font-size="9.5" font-weight="600" fill="#9198a1">reads prose and skills</text></g>
<g><rect class="lpill" x="783.8" y="310.17" width="87.07" height="15" rx="7.5" fill="#0d1117" stroke="#21262d" stroke-width="1"/><text class="ltext" x="827.33" y="321.17" text-anchor="middle" font-size="9.5" font-weight="600" fill="#9198a1">resolves targets</text></g>
<g><rect class="lpill" x="643.09" y="172.5" width="104.99" height="15" rx="7.5" fill="#0d1117" stroke="#21262d" stroke-width="1"/><text class="ltext" x="695.58" y="183.5" text-anchor="middle" font-size="9.5" font-weight="600" fill="#9198a1">exercises stop hook</text></g>
<g><rect class="lpill" x="750.23" y="166" width="93.77" height="15" rx="7.5" fill="#0d1117" stroke="#21262d" stroke-width="1"/><text class="ltext" x="797.12" y="177" text-anchor="middle" font-size="9.5" font-weight="600" fill="#9198a1">exercises skill lint</text></g></g></g>
</svg>