<svg xmlns="http://www.w3.org/2000/svg" viewBox="0 0 1756 532" width="1756" height="532" role="img" aria-label="Hook wiring per agent" font-family="-apple-system, BlinkMacSystemFont, &quot;Segoe UI&quot;, &quot;Noto Sans&quot;, Helvetica, Arial, sans-serif">
<title>Hook wiring per agent</title>
<desc>Each agent's own hook mechanism and the path it is wired through, all converging on osf hook.</desc>
<defs><pattern id="dots" width="18" height="18" patternUnits="userSpaceOnUse"><circle cx="1.5" cy="1.5" r="1" fill="rgba(110,118,129,.22)"/></pattern><marker id="mk-added" viewBox="0 0 10 10" refX="8" refY="5" markerWidth="6.5" markerHeight="6.5" orient="auto-start-reverse"><path d="M0,0 L10,5 L0,10 z" fill="#3fb950"/></marker><marker id="mko-added" viewBox="0 0 10 10" refX="10" refY="5" markerWidth="6.5" markerHeight="6.5" orient="auto-start-reverse"><path d="M2,1 L10,5 L2,9" fill="none" stroke="#3fb950" stroke-width="1.6" stroke-linecap="round" stroke-linejoin="round"/></marker><marker id="mk-modified" viewBox="0 0 10 10" refX="8" refY="5" markerWidth="6.5" markerHeight="6.5" orient="auto-start-reverse"><path d="M0,0 L10,5 L0,10 z" fill="#d29922"/></marker><marker id="mko-modified" viewBox="0 0 10 10" refX="10" refY="5" markerWidth="6.5" markerHeight="6.5" orient="auto-start-reverse"><path d="M2,1 L10,5 L2,9" fill="none" stroke="#d29922" stroke-width="1.6" stroke-linecap="round" stroke-linejoin="round"/></marker><marker id="mk-removed" viewBox="0 0 10 10" refX="8" refY="5" markerWidth="6.5" markerHeight="6.5" orient="auto-start-reverse"><path d="M0,0 L10,5 L0,10 z" fill="#f85149"/></marker><marker id="mko-removed" viewBox="0 0 10 10" refX="10" refY="5" markerWidth="6.5" markerHeight="6.5" orient="auto-start-reverse"><path d="M2,1 L10,5 L2,9" fill="none" stroke="#f85149" stroke-width="1.6" stroke-linecap="round" stroke-linejoin="round"/></marker><marker id="mk-neutral" viewBox="0 0 10 10" refX="8" refY="5" markerWidth="6.5" markerHeight="6.5" orient="auto-start-reverse"><path d="M0,0 L10,5 L0,10 z" fill="#6e7681"/></marker><marker id="mko-neutral" viewBox="0 0 10 10" refX="10" refY="5" markerWidth="6.5" markerHeight="6.5" orient="auto-start-reverse"><path d="M2,1 L10,5 L2,9" fill="none" stroke="#6e7681" stroke-width="1.6" stroke-linecap="round" stroke-linejoin="round"/></marker></defs>
<rect x="0" y="0" width="1756" height="532" rx="12" fill="#0d1117"/>
<rect x="0" y="0" width="1756" height="532" rx="12" fill="url(#dots)"/>
<g><rect class="lanebox" x="16" y="44" width="404" height="472" rx="12" fill="rgba(110,118,129,.07)"/>
<text class="lanelabel" x="32" y="68" font-size="10" font-weight="700" letter-spacing=".12em" fill="#9198a1">IMAGE BUILD · DOCKERFILE LAYERS</text>
<rect class="lanebox" x="440" y="44" width="404" height="472" rx="12" fill="rgba(110,118,129,.07)"/>
<text class="lanelabel" x="456" y="68" font-size="10" font-weight="700" letter-spacing=".12em" fill="#9198a1">CODING AGENTS · DEV USER, /WORKSPACE</text>
<rect class="lanebox" x="911.9" y="44" width="404" height="472" rx="12" fill="rgba(110,118,129,.07)"/>
<text class="lanelabel" x="927.9" y="68" font-size="10" font-weight="700" letter-spacing=".12em" fill="#9198a1">OSF TOOLING · /OPT/FACTORY/BIN</text>
<rect class="lanebox" x="1335.9" y="44" width="404" height="472" rx="12" fill="rgba(110,118,129,.07)"/>
<text class="lanelabel" x="1351.9" y="68" font-size="10" font-weight="700" letter-spacing=".12em" fill="#9198a1">REPOSITORY WORKSPACE · BIND-MOUNTED AT /WORKSP…</text></g>
<g><path class="edge edge-added" d="M828,449 L860.3,449 C878.14,449 892.6,434.54 892.6,416.7 L892.6,385.65 C892.6,375.9 900.5,368 910.25,368 L927.9,368" marker-end="url(#mk-added)" fill="none" stroke="#3fb950" stroke-width="1.5"/>
<path class="edge edge-added" d="M546,268 L546,285 C546,294.39 553.61,302 563,302 L828.4,302 C839.58,302 848.65,311.07 848.65,322.25 C848.65,333.43 857.72,342.5 868.9,342.5 L927.9,342.5" marker-end="url(#mk-added)" fill="none" stroke="#3fb950" stroke-width="1.5"/>
<path class="edge edge-added" d="M828,237 L831,237 C832.66,237 834,238.34 834,240 L834,300 C834,318.78 849.22,334 868,334 L927.9,334" marker-end="url(#mk-added)" fill="none" stroke="#3fb950" stroke-width="1.5"/>
<path class="edge edge-added" d="M546,382 L546,385 C546,386.66 547.34,388 549,388 L863.7,388 C871.57,388 877.95,381.62 877.95,373.75 C877.95,365.88 884.33,359.5 892.2,359.5 L927.9,359.5" marker-end="url(#mk-added)" fill="none" stroke="#3fb950" stroke-width="1.5"/>
<path class="edge edge-added" d="M828,351 L927.9,351" marker-end="url(#mk-added)" fill="none" stroke="#3fb950" stroke-width="1.5"/>
<path class="edge edge-added" d="M828,465 L875.42,465 C893,465 907.25,450.75 907.25,433.17 C907.25,415.59 921.5,401.33 939.08,401.33 L1308.73,401.33 C1322.63,401.33 1333.9,390.07 1333.9,376.17 L1333.9,360 C1333.9,355.03 1337.93,351 1342.9,351 L1351.9,351" marker-end="url(#mk-added)" fill="none" stroke="#3fb950" stroke-width="1.5"/>
<path class="edge edge-added" d="M828,481 L888.73,481 C907.05,481 921.9,466.15 921.9,447.83 C921.9,429.52 936.75,414.67 955.07,414.67 L1311.23,414.67 C1314.92,414.67 1317.9,417.65 1317.9,421.33 C1317.9,425.02 1320.88,428 1324.57,428 L1610.9,428 C1623.6,428 1633.9,417.7 1633.9,405 L1633.9,382" marker-end="url(#mk-added)" fill="none" stroke="#3fb950" stroke-width="1.5"/>
<path class="edge edge-added" d="M404,140 L427,140 C439.7,140 450,150.3 450,163 L450,462 C450,463.66 451.34,465 453,465 L456,465" marker-end="url(#mk-added)" fill="none" stroke="#3fb950" stroke-width="1.5"/>
<path class="edge edge-added" d="M404,114.5 L412,114.5 C416.42,114.5 420,118.08 420,122.5 L420,219 C420,228.94 428.06,237 438,237 L456,237" marker-end="url(#mk-added)" fill="none" stroke="#3fb950" stroke-width="1.5"/>
<path class="edge edge-added" d="M404,106 L407,106 C408.66,106 410,107.34 410,109 L410,146 C410,164.78 425.22,180 444,180 L725,180 C732.18,180 738,185.82 738,193 L738,206" marker-end="url(#mk-added)" fill="none" stroke="#3fb950" stroke-width="1.5"/>
<path class="edge edge-added" d="M404,131.5 L422,131.5 C431.94,131.5 440,139.56 440,149.5 L440,343 C440,347.42 443.58,351 448,351 L456,351" marker-end="url(#mk-added)" fill="none" stroke="#3fb950" stroke-width="1.5"/>
<path class="edge edge-added" d="M404,123 L417,123 C424.18,123 430,128.82 430,136 L430,252 C430,270.78 445.22,286 464,286 L721,286 C730.39,286 738,293.61 738,303 L738,320" marker-end="url(#mk-added)" fill="none" stroke="#3fb950" stroke-width="1.5"/></g>
<g><g class="cardsh" filter="drop-shadow(0 1px 2px rgba(0,0,0,.28))"><rect class="card card-added" x="32" y="92" width="372" height="62" rx="10" fill="#1c2128" stroke-width="1" stroke="#3fb950" stroke-opacity="0.55"/>
<rect class="chip" x="46" y="110" width="26" height="26" rx="7" fill="rgba(110,118,129,.18)"/><g><path class="glyph-stroke" d="M52,119 h14" stroke="#9198a1" stroke-width="1.4" fill="none"/>
<path class="glyph-stroke" d="M52,127 h14" stroke="#9198a1" stroke-width="1.4" fill="none"/>
<circle class="glyph" fill="#9198a1" cx="57" cy="119" r="2.2"/>
<circle class="glyph" fill="#9198a1" cx="62" cy="127" r="2.2"/></g>
<text class="ntitle" x="82" y="119" font-size="13" font-weight="600" fill="#e6edf3">agents.json</text>
<text class="nsub" x="82" y="137" font-size="9.5" fill="#9198a1" font-family="ui-monospace, SFMono-Regular, &quot;SF Mono&quot;, Menlo, Consolas, monospace">one list of agents and hooks</text>
<g class="bdg bdg-added"><rect x="356.45" y="84" width="40.55" height="16" rx="8" fill="rgba(46,160,67,.15)" stroke="rgba(63,185,80,.4)" stroke-width="1"/><text x="376.73" y="95" text-anchor="middle" font-size="8.5" font-weight="700" letter-spacing=".06em" fill="#3fb950">NEW</text></g></g>
<g class="cardsh" filter="drop-shadow(0 1px 2px rgba(0,0,0,.28))"><rect class="card card-added" x="456" y="206" width="180" height="62" rx="10" fill="#1c2128" stroke-width="1" stroke="#3fb950" stroke-opacity="0.55"/>
<rect class="chip" x="470" y="224" width="26" height="26" rx="7" fill="rgba(110,118,129,.18)"/><g><rect class="glyph-stroke" x="476" y="231" width="14" height="12" rx="2" stroke="#9198a1" stroke-width="1.4" fill="none"/>
<path class="glyph-stroke" d="M476,235 h14" stroke="#9198a1" stroke-width="1.4" fill="none"/></g>
<text class="ntitle" x="506" y="233" font-size="11.5" font-weight="600" fill="#e6edf3">Claude Code</text>
<text class="nsub" x="506" y="251" font-size="9.5" fill="#9198a1" font-family="ui-monospace, SFMono-Regular, &quot;SF Mono&quot;, Menlo, Consolas, monospace">managed settings</text>
<g class="bdg bdg-added"><rect x="588.45" y="198" width="40.55" height="16" rx="8" fill="rgba(46,160,67,.15)" stroke="rgba(63,185,80,.4)" stroke-width="1"/><text x="608.73" y="209" text-anchor="middle" font-size="8.5" font-weight="700" letter-spacing=".06em" fill="#3fb950">NEW</text></g></g>
<g class="cardsh" filter="drop-shadow(0 1px 2px rgba(0,0,0,.28))"><rect class="card card-added" x="648" y="206" width="180" height="62" rx="10" fill="#1c2128" stroke-width="1" stroke="#3fb950" stroke-opacity="0.55"/>
<rect class="chip" x="662" y="224" width="26" height="26" rx="7" fill="rgba(110,118,129,.18)"/><g><rect class="glyph-stroke" x="668" y="231" width="14" height="12" rx="2" stroke="#9198a1" stroke-width="1.4" fill="none"/>
<path class="glyph-stroke" d="M668,235 h14" stroke="#9198a1" stroke-width="1.4" fill="none"/></g>
<text class="ntitle" x="698" y="233" font-size="11.5" font-weight="600" fill="#e6edf3">Codex</text>
<text class="nsub" x="698" y="251" font-size="9.5" fill="#9198a1" font-family="ui-monospace, SFMono-Regular, &quot;SF Mono&quot;, Menlo, Consolas, monospace">managed hooks dir</text>
<g class="bdg bdg-added"><rect x="780.45" y="198" width="40.55" height="16" rx="8" fill="rgba(46,160,67,.15)" stroke="rgba(63,185,80,.4)" stroke-width="1"/><text x="800.73" y="209" text-anchor="middle" font-size="8.5" font-weight="700" letter-spacing=".06em" fill="#3fb950">NEW</text></g></g>
<g class="cardsh" filter="drop-shadow(0 1px 2px rgba(0,0,0,.28))"><rect class="card card-added" x="456" y="320" width="180" height="62" rx="10" fill="#1c2128" stroke-width="1" stroke="#3fb950" stroke-opacity="0.55"/>
<rect class="chip" x="470" y="338" width="26" height="26" rx="7" fill="rgba(110,118,129,.18)"/><g><rect class="glyph-stroke" x="476" y="345" width="14" height="12" rx="2" stroke="#9198a1" stroke-width="1.4" fill="none"/>
<path class="glyph-stroke" d="M476,349 h14" stroke="#9198a1" stroke-width="1.4" fill="none"/></g>
<text class="ntitle" x="506" y="347" font-size="11.5" font-weight="600" fill="#e6edf3">opencode</text>
<text class="nsub" x="506" y="365" font-size="9.5" fill="#9198a1" font-family="ui-monospace, SFMono-Regular, &quot;SF Mono&quot;, Menlo, Consolas, monospace">system config plugin</text>
<g class="bdg bdg-added"><rect x="588.45" y="312" width="40.55" height="16" rx="8" fill="rgba(46,160,67,.15)" stroke="rgba(63,185,80,.4)" stroke-width="1"/><text x="608.73" y="323" text-anchor="middle" font-size="8.5" font-weight="700" letter-spacing=".06em" fill="#3fb950">NEW</text></g></g>
<g class="cardsh" filter="drop-shadow(0 1px 2px rgba(0,0,0,.28))"><rect class="card card-added" x="648" y="320" width="180" height="62" rx="10" fill="#1c2128" stroke-width="1" stroke="#3fb950" stroke-opacity="0.55"/>
<rect class="chip" x="662" y="338" width="26" height="26" rx="7" fill="rgba(110,118,129,.18)"/><g><rect class="glyph-stroke" x="668" y="345" width="14" height="12" rx="2" stroke="#9198a1" stroke-width="1.4" fill="none"/>
<path class="glyph-stroke" d="M668,349 h14" stroke="#9198a1" stroke-width="1.4" fill="none"/></g>
<text class="ntitle" x="698" y="347" font-size="11.5" font-weight="600" fill="#e6edf3">omp</text>
<text class="nsub" x="698" y="365" font-size="9.5" fill="#9198a1" font-family="ui-monospace, SFMono-Regular, &quot;SF Mono&quot;, Menlo, Consolas, monospace">global extension</text>
<g class="bdg bdg-added"><rect x="780.45" y="312" width="40.55" height="16" rx="8" fill="rgba(46,160,67,.15)" stroke="rgba(63,185,80,.4)" stroke-width="1"/><text x="800.73" y="323" text-anchor="middle" font-size="8.5" font-weight="700" letter-spacing=".06em" fill="#3fb950">NEW</text></g></g>
<g class="cardsh" filter="drop-shadow(0 1px 2px rgba(0,0,0,.28))"><rect class="card card-added" x="456" y="434" width="372" height="62" rx="10" fill="#1c2128" stroke-width="1" stroke="#3fb950" stroke-opacity="0.55"/>
<rect class="chip" x="470" y="452" width="26" height="26" rx="7" fill="rgba(110,118,129,.18)"/><g><rect class="glyph-stroke" x="476" y="459" width="14" height="12" rx="2" stroke="#9198a1" stroke-width="1.4" fill="none"/>
<path class="glyph-stroke" d="M476,463 h14" stroke="#9198a1" stroke-width="1.4" fill="none"/></g>
<text class="ntitle" x="506" y="461" font-size="13" font-weight="600" fill="#e6edf3">dsh</text>
<text class="nsub" x="506" y="479" font-size="9.5" fill="#9198a1" font-family="ui-monospace, SFMono-Regular, &quot;SF Mono&quot;, Menlo, Consolas, monospace">default builder</text>
<g class="bdg bdg-neutral"><rect x="692.21" y="426" width="82.24" height="16" rx="8" fill="rgba(110,118,129,.18)" stroke="#3d444d" stroke-width="1"/><text x="733.33" y="437" text-anchor="middle" font-size="8.5" font-weight="700" letter-spacing=".06em" fill="#9198a1">default builder</text></g>
<g class="bdg bdg-added"><rect x="780.45" y="426" width="40.55" height="16" rx="8" fill="rgba(46,160,67,.15)" stroke="rgba(63,185,80,.4)" stroke-width="1"/><text x="800.73" y="437" text-anchor="middle" font-size="8.5" font-weight="700" letter-spacing=".06em" fill="#3fb950">NEW</text></g></g>
<g class="cardsh" filter="drop-shadow(0 1px 2px rgba(0,0,0,.28))"><rect class="card card-modified" x="927.9" y="320" width="372" height="62" rx="10" fill="#1c2128" stroke-width="1" stroke="#d29922" stroke-opacity="0.5"/>
<rect class="chip" x="941.9" y="338" width="26" height="26" rx="7" fill="rgba(110,118,129,.18)"/><g><rect class="glyph-stroke" x="947.9" y="345" width="14" height="12" rx="2" stroke="#9198a1" stroke-width="1.4" fill="none"/>
<path class="glyph-stroke" d="M947.9,349 h14" stroke="#9198a1" stroke-width="1.4" fill="none"/></g>
<text class="ntitle" x="977.9" y="347" font-size="13" font-weight="600" fill="#e6edf3">osf</text>
<text class="nsub" x="977.9" y="365" font-size="9.5" fill="#9198a1" font-family="ui-monospace, SFMono-Regular, &quot;SF Mono&quot;, Menlo, Consolas, monospace">/opt/factory/bin/osf</text>
<g class="bdg bdg-modified"><rect x="1226.28" y="312" width="66.62" height="16" rx="8" fill="rgba(187,128,9,.15)" stroke="rgba(210,153,34,.4)" stroke-width="1"/><text x="1259.59" y="323" text-anchor="middle" font-size="8.5" font-weight="700" letter-spacing=".06em" fill="#d29922">CHANGED</text></g></g>
<g class="cardsh" filter="drop-shadow(0 1px 2px rgba(0,0,0,.28))"><rect class="card card-added" x="1351.9" y="320" width="180" height="62" rx="10" fill="#1c2128" stroke-width="1" stroke="#3fb950" stroke-opacity="0.55"/>
<rect class="chip" x="1365.9" y="338" width="26" height="26" rx="7" fill="rgba(110,118,129,.18)"/><g><path class="glyph-stroke" d="M1371.9,347 h14" stroke="#9198a1" stroke-width="1.4" fill="none"/>
<path class="glyph-stroke" d="M1371.9,355 h14" stroke="#9198a1" stroke-width="1.4" fill="none"/>
<circle class="glyph" fill="#9198a1" cx="1376.9" cy="347" r="2.2"/>
<circle class="glyph" fill="#9198a1" cx="1381.9" cy="355" r="2.2"/></g>
<text class="ntitle" x="1401.9" y="347" font-size="11.5" font-weight="600" fill="#e6edf3">.claude/hooks.json</text>
<text class="nsub" x="1401.9" y="365" font-size="9.5" fill="#9198a1" font-family="ui-monospace, SFMono-Regular, &quot;SF Mono&quot;, Menlo, Consolas, monospace">dsh prompt bridge t…</text>
<g class="bdg bdg-added"><rect x="1484.35" y="312" width="40.55" height="16" rx="8" fill="rgba(46,160,67,.15)" stroke="rgba(63,185,80,.4)" stroke-width="1"/><text x="1504.63" y="323" text-anchor="middle" font-size="8.5" font-weight="700" letter-spacing=".06em" fill="#3fb950">NEW</text></g></g>
<g class="cardsh" filter="drop-shadow(0 1px 2px rgba(0,0,0,.28))"><rect class="card card-modified" x="1543.9" y="320" width="180" height="62" rx="10" fill="#1c2128" stroke-width="1" stroke="#d29922" stroke-opacity="0.5"/>
<rect class="chip" x="1557.9" y="338" width="26" height="26" rx="7" fill="rgba(110,118,129,.18)"/><g><path class="glyph-stroke" d="M1570.9,344 l6.5,3.5 v7 l-6.5,3.5 l-6.5,-3.5 v-7 Z" stroke="#9198a1" stroke-width="1.4" fill="none"/>
<path class="glyph-stroke" d="M1564.4,347.5 l6.5,3.5 l6.5,-3.5" stroke="#9198a1" stroke-width="1.4" fill="none"/>
<path class="glyph-stroke" d="M1570.9,351 v7" stroke="#9198a1" stroke-width="1.4" fill="none"/></g>
<text class="ntitle" x="1593.9" y="347" font-size="11.5" font-weight="600" fill="#e6edf3">integrations/dsh</text>
<text class="nsub" x="1593.9" y="365" font-size="9.5" fill="#9198a1" font-family="ui-monospace, SFMono-Regular, &quot;SF Mono&quot;, Menlo, Consolas, monospace">writing-check plugin</text>
<g class="bdg bdg-modified"><rect x="1650.28" y="312" width="66.62" height="16" rx="8" fill="rgba(187,128,9,.15)" stroke="rgba(210,153,34,.4)" stroke-width="1"/><text x="1683.59" y="323" text-anchor="middle" font-size="8.5" font-weight="700" letter-spacing=".06em" fill="#d29922">CHANGED</text></g></g></g>
<g><g><rect class="lpill" x="804.79" y="394" width="115.63" height="15" rx="7.5" fill="#0d1117" stroke="#21262d" stroke-width="1"/><text class="ltext ltext-added" x="862.6" y="405" text-anchor="middle" font-size="9.5" font-weight="600" fill="#3fb950">osf hook stop / prompt</text></g>
<g><rect class="lpill" x="641" y="294.5" width="115.63" height="15" rx="7.5" fill="#0d1117" stroke="#21262d" stroke-width="1"/><text class="ltext ltext-added" x="698.82" y="305.5" text-anchor="middle" font-size="9.5" font-weight="600" fill="#3fb950">osf hook stop / prompt</text></g>
<g><rect class="lpill" x="789.9" y="280" width="88.2" height="15" rx="7.5" fill="#0d1117" stroke="#21262d" stroke-width="1"/><text class="ltext ltext-added" x="834" y="291" text-anchor="middle" font-size="9.5" font-weight="600" fill="#3fb950">osf hook prompt</text></g>
<g><rect class="lpill" x="668.4" y="391" width="75.9" height="15" rx="7.5" fill="#0d1117" stroke="#21262d" stroke-width="1"/><text class="ltext ltext-added" x="706.35" y="402" text-anchor="middle" font-size="9.5" font-weight="600" fill="#3fb950">osf hook stop</text></g>
<g><rect class="lpill" x="840" y="343.5" width="75.9" height="15" rx="7.5" fill="#0d1117" stroke="#21262d" stroke-width="1"/><text class="ltext ltext-added" x="877.95" y="354.5" text-anchor="middle" font-size="9.5" font-weight="600" fill="#3fb950">osf hook stop</text></g>
<g><rect class="lpill" x="1059.66" y="393.83" width="128.5" height="15" rx="7.5" fill="#0d1117" stroke="#21262d" stroke-width="1"/><text class="ltext ltext-added" x="1123.91" y="404.83" text-anchor="middle" font-size="9.5" font-weight="600" fill="#3fb950">prompt bridge configPath</text></g>
<g><rect class="lpill" x="1198.16" y="407.17" width="106.11" height="15" rx="7.5" fill="#0d1117" stroke="#21262d" stroke-width="1"/><text class="ltext ltext-added" x="1251.21" y="418.17" text-anchor="middle" font-size="9.5" font-weight="600" fill="#3fb950">factory profile plugin</text></g>
<g><rect class="lpill" x="387.14" y="394" width="125.72" height="15" rx="7.5" fill="#0d1117" stroke="#21262d" stroke-width="1"/><text class="ltext ltext-added" x="450" y="405" text-anchor="middle" font-size="9.5" font-weight="600" fill="#3fb950">hook_events, hook_path</text></g>
<g><rect class="lpill" x="304.28" y="181" width="125.72" height="15" rx="7.5" fill="#0d1117" stroke="#21262d" stroke-width="1"/><text class="ltext ltext-added" x="367.14" y="192" text-anchor="middle" font-size="9.5" font-weight="600" fill="#3fb950">hook_events, hook_path</text></g>
<g><rect class="lpill" x="510.44" y="172.5" width="148.12" height="15" rx="7.5" fill="#0d1117" stroke="#21262d" stroke-width="1"/><text class="ltext ltext-added" x="584.5" y="183.5" text-anchor="middle" font-size="9.5" font-weight="600" fill="#3fb950">hook_events, hook_path, gap</text></g>
<g><rect class="lpill" x="324.28" y="287" width="125.72" height="15" rx="7.5" fill="#0d1117" stroke="#21262d" stroke-width="1"/><text class="ltext ltext-added" x="387.14" y="298" text-anchor="middle" font-size="9.5" font-weight="600" fill="#3fb950">hook_events, hook_path</text></g>
<g><rect class="lpill" x="314.28" y="244.5" width="125.72" height="15" rx="7.5" fill="#0d1117" stroke="#21262d" stroke-width="1"/><text class="ltext ltext-added" x="377.14" y="255.5" text-anchor="middle" font-size="9.5" font-weight="600" fill="#3fb950">hook_events, hook_path</text></g></g>
</svg>