<svg xmlns="http://www.w3.org/2000/svg" viewBox="0 0 436 418" width="436" height="418" role="img" aria-label="Schema construction internals" font-family="-apple-system, BlinkMacSystemFont, &quot;Segoe UI&quot;, &quot;Noto Sans&quot;, Helvetica, Arial, sans-serif">
<title>Schema construction internals</title>
<desc>How schema_for turns a lens into the document handed to the reviewer.</desc>
<defs><pattern id="dots" width="18" height="18" patternUnits="userSpaceOnUse"><circle cx="1.5" cy="1.5" r="1" fill="rgba(140,149,159,.5)"/></pattern><marker id="mk-added" viewBox="0 0 10 10" refX="8" refY="5" markerWidth="6.5" markerHeight="6.5" orient="auto-start-reverse"><path d="M0,0 L10,5 L0,10 z" fill="#1f883d"/></marker><marker id="mko-added" viewBox="0 0 10 10" refX="10" refY="5" markerWidth="6.5" markerHeight="6.5" orient="auto-start-reverse"><path d="M2,1 L10,5 L2,9" fill="none" stroke="#1f883d" stroke-width="1.6" stroke-linecap="round" stroke-linejoin="round"/></marker><marker id="mk-modified" viewBox="0 0 10 10" refX="8" refY="5" markerWidth="6.5" markerHeight="6.5" orient="auto-start-reverse"><path d="M0,0 L10,5 L0,10 z" fill="#bf8700"/></marker><marker id="mko-modified" viewBox="0 0 10 10" refX="10" refY="5" markerWidth="6.5" markerHeight="6.5" orient="auto-start-reverse"><path d="M2,1 L10,5 L2,9" fill="none" stroke="#bf8700" stroke-width="1.6" stroke-linecap="round" stroke-linejoin="round"/></marker><marker id="mk-removed" viewBox="0 0 10 10" refX="8" refY="5" markerWidth="6.5" markerHeight="6.5" orient="auto-start-reverse"><path d="M0,0 L10,5 L0,10 z" fill="#cf222e"/></marker><marker id="mko-removed" viewBox="0 0 10 10" refX="10" refY="5" markerWidth="6.5" markerHeight="6.5" orient="auto-start-reverse"><path d="M2,1 L10,5 L2,9" fill="none" stroke="#cf222e" stroke-width="1.6" stroke-linecap="round" stroke-linejoin="round"/></marker><marker id="mk-neutral" viewBox="0 0 10 10" refX="8" refY="5" markerWidth="6.5" markerHeight="6.5" orient="auto-start-reverse"><path d="M0,0 L10,5 L0,10 z" fill="#8c959f"/></marker><marker id="mko-neutral" viewBox="0 0 10 10" refX="10" refY="5" markerWidth="6.5" markerHeight="6.5" orient="auto-start-reverse"><path d="M2,1 L10,5 L2,9" fill="none" stroke="#8c959f" stroke-width="1.6" stroke-linecap="round" stroke-linejoin="round"/></marker></defs>
<rect x="0" y="0" width="436" height="418" rx="12" fill="#f4f5f7"/>
<rect x="0" y="0" width="436" height="418" rx="12" fill="url(#dots)"/>
<g><rect class="lanebox" x="16" y="44" width="404" height="358" rx="12" fill="rgba(255,255,255,.55)"/>
<text class="lanelabel" x="32" y="68" font-size="10" font-weight="700" letter-spacing=".12em" fill="#59636e">REVIEW CORE · CRATES/OSF/SRC</text></g>
<g><path class="glow" stroke="#1f883d" d="M218,154 L218,206" fill="none" stroke-width="7" opacity="0.14"/>
<path class="edge edge-added hero" d="M218,154 L218,206" marker-end="url(#mk-added)" fill="none" stroke="#1f883d" stroke-width="2.25"/>
<circle r="3" fill="#1f883d"><animateMotion dur="2.1s" repeatCount="indefinite" path="M218,154 L218,206"/></circle>
<circle r="3" fill="#1f883d"><animateMotion dur="2.1s" begin="-1.4s" repeatCount="indefinite" path="M218,154 L218,206"/></circle>
<circle r="3" fill="#1f883d"><animateMotion dur="2.1s" begin="-0.7s" repeatCount="indefinite" path="M218,154 L218,206"/></circle>
<path class="edge edge-added" d="M218,268 L218,277 C218,281.97 222.03,286 227,286 L297,286 C306.39,286 314,293.61 314,303 L314,320" marker-end="url(#mk-added)" fill="none" stroke="#1f883d" stroke-width="1.5"/>
<path class="edge edge-added" d="M218,268 L218,285 C218,294.39 210.39,302 201,302 L131,302 C126.03,302 122,306.03 122,311 L122,320" marker-end="url(#mk-added)" fill="none" stroke="#1f883d" stroke-width="1.5"/></g>
<g><g class="cardsh" filter="drop-shadow(0 1px 2px rgba(31,35,40,.14))"><rect class="card card-modified" x="32" y="92" width="372" height="62" rx="10" fill="#ffffff" stroke-width="1" stroke="#bf8700" stroke-opacity="0.5"/>
<rect class="chip" x="46" y="110" width="26" height="26" rx="7" fill="#f1f3f5"/><g><text class="glyph" x="59" y="127.5" text-anchor="middle" fill="#59636e" font-size="14" font-style="italic" font-family="Georgia,serif">ƒ</text></g>
<text class="ntitle" x="82" y="119" font-size="13" font-weight="600" fill="#1f2328">run_with_retry</text>
<text class="nsub" x="82" y="137" font-size="9.5" fill="#59636e" font-family="ui-monospace, SFMono-Regular, &quot;SF Mono&quot;, Menlo, Consolas, monospace">fn run_with_retry(...)</text>
<g class="bdg bdg-modified"><rect x="330.38" y="84" width="66.62" height="16" rx="8" fill="#fae17d" stroke="rgba(154,103,0,.55)" stroke-width="1"/><text x="363.69" y="95" text-anchor="middle" font-size="8.5" font-weight="700" letter-spacing=".06em" fill="#7d4e00">CHANGED</text></g></g>
<g class="cardsh" filter="drop-shadow(0 1px 2px rgba(31,35,40,.14))"><rect class="card card-added" x="32" y="206" width="372" height="62" rx="10" fill="#ffffff" stroke-width="1" stroke="#1f883d" stroke-opacity="0.55"/>
<rect class="chip" x="46" y="224" width="26" height="26" rx="7" fill="#f1f3f5"/><g><text class="glyph" x="59" y="241.5" text-anchor="middle" fill="#59636e" font-size="14" font-style="italic" font-family="Georgia,serif">ƒ</text></g>
<text class="ntitle" x="82" y="233" font-size="13" font-weight="600" fill="#1f2328">answer::schema_for</text>
<text class="nsub" x="82" y="251" font-size="9.5" fill="#59636e" font-family="ui-monospace, SFMono-Regular, &quot;SF Mono&quot;, Menlo, Consolas, monospace">fn schema_for(lens: &amp;Lens) -&gt; String</text>
<g class="bdg bdg-added"><rect x="356.45" y="198" width="40.55" height="16" rx="8" fill="#b9f0c4" stroke="rgba(31,136,61,.55)" stroke-width="1"/><text x="376.73" y="209" text-anchor="middle" font-size="8.5" font-weight="700" letter-spacing=".06em" fill="#116329">NEW</text></g></g>
<g class="cardsh context" filter="drop-shadow(0 1px 2px rgba(31,35,40,.14))" opacity="0.82"><rect class="card" x="32" y="320" width="180" height="62" rx="10" fill="#ffffff" stroke-width="1" stroke="#d1d9e0"/>
<rect class="chip" x="46" y="338" width="26" height="26" rx="7" fill="#f1f3f5"/><g><text class="glyph" x="59" y="355.5" text-anchor="middle" fill="#59636e" font-size="11" font-family="ui-monospace, SFMono-Regular, &quot;SF Mono&quot;, Menlo, Consolas, monospace">{ }</text></g>
<text class="ntitle" x="82" y="347" font-size="11.5" font-weight="600" fill="#1f2328">Lens registry</text>
<text class="nsub" x="82" y="365" font-size="9.5" fill="#59636e" font-family="ui-monospace, SFMono-Regular, &quot;SF Mono&quot;, Menlo, Consolas, monospace">crate::lenses::load</text></g>
<g class="cardsh context" filter="drop-shadow(0 1px 2px rgba(31,35,40,.14))" opacity="0.82"><rect class="card" x="224" y="320" width="180" height="62" rx="10" fill="#ffffff" stroke-width="1" stroke="#d1d9e0"/>
<rect class="chip" x="238" y="338" width="26" height="26" rx="7" fill="#f1f3f5"/><g><path class="glyph-stroke" d="M244,347 h14" stroke="#59636e" stroke-width="1.4" fill="none"/>
<path class="glyph-stroke" d="M244,355 h14" stroke="#59636e" stroke-width="1.4" fill="none"/>
<circle class="glyph" fill="#59636e" cx="249" cy="347" r="2.2"/>
<circle class="glyph" fill="#59636e" cx="254" cy="355" r="2.2"/></g>
<text class="ntitle" x="274" y="347" font-size="10.5" font-weight="600" fill="#1f2328">review-answer.schem…</text>
<text class="nsub" x="274" y="365" font-size="9.5" fill="#59636e" font-family="ui-monospace, SFMono-Regular, &quot;SF Mono&quot;, Menlo, Consolas, monospace">include_str! SCHEMA</text></g></g>
<g><g><rect class="lpill" x="171.11" y="172.5" width="93.78" height="15" rx="7.5" fill="#ffffff" stroke="#d8dee4" stroke-width="1"/><text class="ltext ltext-added" x="218" y="183.5" text-anchor="middle" font-size="9.5" font-weight="600" fill="#116329">schema_for(lens)</text></g>
<g><rect class="lpill" x="219" y="278.5" width="114.21" height="15" rx="7.5" fill="#ffffff" stroke="#d8dee4" stroke-width="1"/><text class="ltext ltext-added" x="276.11" y="289.5" text-anchor="middle" font-size="9.5" font-weight="600" fill="#116329">clone + rewrite scores</text></g>
<g><rect class="lpill" x="141.52" y="294.5" width="67.48" height="15" rx="7.5" fill="#ffffff" stroke="#d8dee4" stroke-width="1"/><text class="ltext ltext-added" x="175.26" y="305.5" text-anchor="middle" font-size="9.5" font-weight="600" fill="#116329">lens.criteria</text></g></g>
</svg>