<svg xmlns="http://www.w3.org/2000/svg" viewBox="0 0 860 418" width="860" height="418" role="img" aria-label="osf reviewer internals" font-family="-apple-system, BlinkMacSystemFont, &quot;Segoe UI&quot;, &quot;Noto Sans&quot;, Helvetica, Arial, sans-serif">
<title>osf reviewer internals</title>
<desc>Inside the osf runner: how a reviewer is built from the agent table, how its home is prepared and kept, and how the login is stripped before the home is left behind.</desc>
<defs><pattern id="dots" width="18" height="18" patternUnits="userSpaceOnUse"><circle cx="1.5" cy="1.5" r="1" fill="rgba(110,118,129,.22)"/></pattern><marker id="mk-added" viewBox="0 0 10 10" refX="8" refY="5" markerWidth="6.5" markerHeight="6.5" orient="auto-start-reverse"><path d="M0,0 L10,5 L0,10 z" fill="#3fb950"/></marker><marker id="mko-added" viewBox="0 0 10 10" refX="10" refY="5" markerWidth="6.5" markerHeight="6.5" orient="auto-start-reverse"><path d="M2,1 L10,5 L2,9" fill="none" stroke="#3fb950" stroke-width="1.6" stroke-linecap="round" stroke-linejoin="round"/></marker><marker id="mk-modified" viewBox="0 0 10 10" refX="8" refY="5" markerWidth="6.5" markerHeight="6.5" orient="auto-start-reverse"><path d="M0,0 L10,5 L0,10 z" fill="#d29922"/></marker><marker id="mko-modified" viewBox="0 0 10 10" refX="10" refY="5" markerWidth="6.5" markerHeight="6.5" orient="auto-start-reverse"><path d="M2,1 L10,5 L2,9" fill="none" stroke="#d29922" stroke-width="1.6" stroke-linecap="round" stroke-linejoin="round"/></marker><marker id="mk-removed" viewBox="0 0 10 10" refX="8" refY="5" markerWidth="6.5" markerHeight="6.5" orient="auto-start-reverse"><path d="M0,0 L10,5 L0,10 z" fill="#f85149"/></marker><marker id="mko-removed" viewBox="0 0 10 10" refX="10" refY="5" markerWidth="6.5" markerHeight="6.5" orient="auto-start-reverse"><path d="M2,1 L10,5 L2,9" fill="none" stroke="#f85149" stroke-width="1.6" stroke-linecap="round" stroke-linejoin="round"/></marker><marker id="mk-neutral" viewBox="0 0 10 10" refX="8" refY="5" markerWidth="6.5" markerHeight="6.5" orient="auto-start-reverse"><path d="M0,0 L10,5 L0,10 z" fill="#6e7681"/></marker><marker id="mko-neutral" viewBox="0 0 10 10" refX="10" refY="5" markerWidth="6.5" markerHeight="6.5" orient="auto-start-reverse"><path d="M2,1 L10,5 L2,9" fill="none" stroke="#6e7681" stroke-width="1.6" stroke-linecap="round" stroke-linejoin="round"/></marker></defs>
<rect x="0" y="0" width="860" height="418" rx="12" fill="#0d1117"/>
<rect x="0" y="0" width="860" height="418" rx="12" fill="url(#dots)"/>
<g><rect class="lanebox" x="16" y="44" width="404" height="358" rx="12" fill="rgba(110,118,129,.07)"/>
<text class="lanelabel" x="32" y="68" font-size="10" font-weight="700" letter-spacing=".12em" fill="#9198a1">OSF CLI · CRATES/OSF</text>
<rect class="lanebox" x="440" y="44" width="404" height="358" rx="12" fill="rgba(110,118,129,.07)"/>
<text class="lanelabel" x="456" y="68" font-size="10" font-weight="700" letter-spacing=".12em" fill="#9198a1">REVIEWER AGENT · CODEX / CLAUDE / OPENCODE</text></g>
<g><path class="edge edge-modified" d="M218,154 L218,171 C218,180.39 210.39,188 201,188 L131,188 C126.03,188 122,192.03 122,197 L122,206" marker-end="url(#mk-modified)" fill="none" stroke="#d29922" stroke-width="1.5"/>
<path class="edge edge-modified" d="M122,268 L122,320" marker-end="url(#mk-modified)" fill="none" stroke="#d29922" stroke-width="1.5"/>
<path class="edge edge-modified" d="M218,154 L218,163 C218,167.97 222.03,172 227,172 L297,172 C306.39,172 314,179.61 314,189 L314,206" marker-end="url(#mk-modified)" fill="none" stroke="#d29922" stroke-width="1.5"/>
<path class="glow" stroke="#d29922" d="M404,123 L417,123 C424.18,123 430,128.82 430,136 L430,224 C430,231.18 435.82,237 443,237 L456,237" fill="none" stroke-width="7" opacity="0.14"/>
<path class="edge edge-modified hero" d="M404,123 L417,123 C424.18,123 430,128.82 430,136 L430,224 C430,231.18 435.82,237 443,237 L456,237" marker-end="url(#mk-modified)" fill="none" stroke="#d29922" stroke-width="2.25"/>
<circle r="3" fill="#d29922"><animateMotion dur="2.1s" repeatCount="indefinite" path="M404,123 L417,123 C424.18,123 430,128.82 430,136 L430,224 C430,231.18 435.82,237 443,237 L456,237"/></circle>
<circle r="3" fill="#d29922"><animateMotion dur="2.1s" begin="-1.4s" repeatCount="indefinite" path="M404,123 L417,123 C424.18,123 430,128.82 430,136 L430,224 C430,231.18 435.82,237 443,237 L456,237"/></circle>
<circle r="3" fill="#d29922"><animateMotion dur="2.1s" begin="-0.7s" repeatCount="indefinite" path="M404,123 L417,123 C424.18,123 430,128.82 430,136 L430,224 C430,231.18 435.82,237 443,237 L456,237"/></circle>
<path class="edge edge-added" d="M314,268 L314,320" marker-end="url(#mk-added)" fill="none" stroke="#3fb950" stroke-width="1.5"/></g>
<g><g class="cardsh" filter="drop-shadow(0 1px 2px rgba(0,0,0,.28))"><rect class="card card-modified" x="32" y="92" width="372" height="62" rx="10" fill="#1c2128" stroke-width="1" stroke="#d29922" stroke-opacity="0.5"/>
<rect class="chip" x="46" y="110" width="26" height="26" rx="7" fill="rgba(110,118,129,.18)"/><g><circle class="glyph-stroke" stroke="#9198a1" stroke-width="1.4" fill="none" cx="59" cy="123" r="6.5"/>
<path class="glyph-stroke" d="M59,119.5 V123 H62" stroke="#9198a1" stroke-width="1.4" fill="none"/></g>
<text class="ntitle" x="82" y="119" font-size="13" font-weight="600" fill="#e6edf3">osf review run</text>
<text class="nsub" x="82" y="137" font-size="9.5" fill="#9198a1" font-family="ui-monospace, SFMono-Regular, &quot;SF Mono&quot;, Menlo, Consolas, monospace">reviewers::run_one</text>
<g class="bdg bdg-modified"><rect x="330.38" y="84" width="66.62" height="16" rx="8" fill="rgba(187,128,9,.15)" stroke="rgba(210,153,34,.4)" stroke-width="1"/><text x="363.69" y="95" text-anchor="middle" font-size="8.5" font-weight="700" letter-spacing=".06em" fill="#d29922">CHANGED</text></g></g>
<g class="cardsh" filter="drop-shadow(0 1px 2px rgba(0,0,0,.28))"><rect class="card card-modified" x="32" y="206" width="180" height="62" rx="10" fill="#1c2128" stroke-width="1" stroke="#d29922" stroke-opacity="0.5"/>
<rect class="chip" x="46" y="224" width="26" height="26" rx="7" fill="rgba(110,118,129,.18)"/><g><text class="glyph" x="59" y="241.5" text-anchor="middle" fill="#9198a1" font-size="14" font-style="italic" font-family="Georgia,serif">ƒ</text></g>
<text class="ntitle" x="82" y="233" font-size="11.5" font-weight="600" fill="#e6edf3">Reviewer roster</text>
<text class="nsub" x="82" y="251" font-size="9.5" fill="#9198a1" font-family="ui-monospace, SFMono-Regular, &quot;SF Mono&quot;, Menlo, Consolas, monospace">roster / Reviewer::…</text>
<g class="bdg bdg-modified"><rect x="138.38" y="198" width="66.62" height="16" rx="8" fill="rgba(187,128,9,.15)" stroke="rgba(210,153,34,.4)" stroke-width="1"/><text x="171.69" y="209" text-anchor="middle" font-size="8.5" font-weight="700" letter-spacing=".06em" fill="#d29922">CHANGED</text></g></g>
<g class="cardsh" filter="drop-shadow(0 1px 2px rgba(0,0,0,.28))"><rect class="card card-modified" x="224" y="206" width="180" height="62" rx="10" fill="#1c2128" stroke-width="1" stroke="#d29922" stroke-opacity="0.5"/>
<rect class="chip" x="238" y="224" width="26" height="26" rx="7" fill="rgba(110,118,129,.18)"/><g><text class="glyph" x="251" y="241.5" text-anchor="middle" fill="#9198a1" font-size="11" font-family="ui-monospace, SFMono-Regular, &quot;SF Mono&quot;, Menlo, Consolas, monospace">{ }</text></g>
<text class="ntitle" x="274" y="233" font-size="11.5" font-weight="600" fill="#e6edf3">RunHome</text>
<text class="nsub" x="274" y="251" font-size="9.5" fill="#9198a1" font-family="ui-monospace, SFMono-Regular, &quot;SF Mono&quot;, Menlo, Consolas, monospace">fresh home + Drop</text>
<g class="bdg bdg-modified"><rect x="330.38" y="198" width="66.62" height="16" rx="8" fill="rgba(187,128,9,.15)" stroke="rgba(210,153,34,.4)" stroke-width="1"/><text x="363.69" y="209" text-anchor="middle" font-size="8.5" font-weight="700" letter-spacing=".06em" fill="#d29922">CHANGED</text></g></g>
<g class="cardsh" filter="drop-shadow(0 1px 2px rgba(0,0,0,.28))"><rect class="card card-modified" x="32" y="320" width="180" height="62" rx="10" fill="#1c2128" stroke-width="1" stroke="#d29922" stroke-opacity="0.5"/>
<rect class="chip" x="46" y="338" width="26" height="26" rx="7" fill="rgba(110,118,129,.18)"/><g><path class="glyph-stroke" d="M52,347 h14" stroke="#9198a1" stroke-width="1.4" fill="none"/>
<path class="glyph-stroke" d="M52,355 h14" stroke="#9198a1" stroke-width="1.4" fill="none"/>
<circle class="glyph" fill="#9198a1" cx="57" cy="347" r="2.2"/>
<circle class="glyph" fill="#9198a1" cx="62" cy="355" r="2.2"/></g>
<text class="ntitle" x="82" y="347" font-size="11.5" font-weight="600" fill="#e6edf3">AGENTS table</text>
<text class="nsub" x="82" y="365" font-size="9.5" fill="#9198a1" font-family="ui-monospace, SFMono-Regular, &quot;SF Mono&quot;, Menlo, Consolas, monospace">crates/osf/src/agen…</text>
<g class="bdg bdg-modified"><rect x="138.38" y="312" width="66.62" height="16" rx="8" fill="rgba(187,128,9,.15)" stroke="rgba(210,153,34,.4)" stroke-width="1"/><text x="171.69" y="323" text-anchor="middle" font-size="8.5" font-weight="700" letter-spacing=".06em" fill="#d29922">CHANGED</text></g></g>
<g class="cardsh" filter="drop-shadow(0 1px 2px rgba(0,0,0,.28))"><rect class="card card-added" x="224" y="320" width="180" height="62" rx="10" fill="#1c2128" stroke-width="1" stroke="#3fb950" stroke-opacity="0.55"/>
<rect class="chip" x="238" y="338" width="26" height="26" rx="7" fill="rgba(110,118,129,.18)"/><g><text class="glyph" x="251" y="355.5" text-anchor="middle" fill="#9198a1" font-size="14" font-style="italic" font-family="Georgia,serif">ƒ</text></g>
<text class="ntitle" x="274" y="347" font-size="11.5" font-weight="600" fill="#e6edf3">forget_login</text>
<text class="nsub" x="274" y="365" font-size="9.5" fill="#9198a1" font-family="ui-monospace, SFMono-Regular, &quot;SF Mono&quot;, Menlo, Consolas, monospace">removes seeded logi…</text>
<g class="bdg bdg-added"><rect x="356.45" y="312" width="40.55" height="16" rx="8" fill="rgba(46,160,67,.15)" stroke="rgba(63,185,80,.4)" stroke-width="1"/><text x="376.73" y="323" text-anchor="middle" font-size="8.5" font-weight="700" letter-spacing=".06em" fill="#3fb950">NEW</text></g></g>
<g class="cardsh" filter="drop-shadow(0 1px 2px rgba(0,0,0,.28))"><rect class="card card-modified" x="456" y="206" width="372" height="62" rx="10" fill="#1c2128" stroke-width="1" stroke="#d29922" stroke-opacity="0.5"/>
<rect class="chip" x="470" y="224" width="26" height="26" rx="7" fill="rgba(110,118,129,.18)"/><g><rect class="glyph-stroke" x="475" y="231" width="16" height="12" rx="2" stroke="#9198a1" stroke-width="1.4" fill="none"/>
<path class="glyph-stroke" d="M475,233 l8,6 8,-6" stroke="#9198a1" stroke-width="1.4" fill="none"/></g>
<text class="ntitle" x="506" y="233" font-size="13" font-weight="600" fill="#e6edf3">codex</text>
<text class="nsub" x="506" y="251" font-size="9.5" fill="#9198a1" font-family="ui-monospace, SFMono-Regular, &quot;SF Mono&quot;, Menlo, Consolas, monospace">--dangerously-bypass-approvals-and-sandbox</text>
<g class="bdg bdg-modified"><rect x="754.38" y="198" width="66.62" height="16" rx="8" fill="rgba(187,128,9,.15)" stroke="rgba(210,153,34,.4)" stroke-width="1"/><text x="787.69" y="209" text-anchor="middle" font-size="8.5" font-weight="700" letter-spacing=".06em" fill="#d29922">CHANGED</text></g></g></g>
<g><g><rect class="lpill" x="364.63" y="171" width="130.74" height="15" rx="7.5" fill="#0d1117" stroke="#21262d" stroke-width="1"/><text class="ltext ltext-modified" x="430" y="182" text-anchor="middle" font-size="9.5" font-weight="600" fill="#d29922">bypass flag, no pre-check</text></g></g>
</svg>