<svg xmlns="http://www.w3.org/2000/svg" viewBox="0 0 446 532" width="446" height="532" role="img" aria-label="Neutral seam and its doubles" font-family="-apple-system, BlinkMacSystemFont, &quot;Segoe UI&quot;, &quot;Noto Sans&quot;, Helvetica, Arial, sans-serif">
<title>Neutral seam and its doubles</title>
<desc>The provider-neutral module: the two traits, the prompt and QUESTION helpers, the serializable result types, and the in-memory fakes that let tests run without a process.</desc>
<defs><pattern id="dots" width="18" height="18" patternUnits="userSpaceOnUse"><circle cx="1.5" cy="1.5" r="1" fill="rgba(110,118,129,.22)"/></pattern><marker id="mk-added" viewBox="0 0 10 10" refX="8" refY="5" markerWidth="6.5" markerHeight="6.5" orient="auto-start-reverse"><path d="M0,0 L10,5 L0,10 z" fill="#3fb950"/></marker><marker id="mko-added" viewBox="0 0 10 10" refX="10" refY="5" markerWidth="6.5" markerHeight="6.5" orient="auto-start-reverse"><path d="M2,1 L10,5 L2,9" fill="none" stroke="#3fb950" stroke-width="1.6" stroke-linecap="round" stroke-linejoin="round"/></marker><marker id="mk-modified" viewBox="0 0 10 10" refX="8" refY="5" markerWidth="6.5" markerHeight="6.5" orient="auto-start-reverse"><path d="M0,0 L10,5 L0,10 z" fill="#d29922"/></marker><marker id="mko-modified" viewBox="0 0 10 10" refX="10" refY="5" markerWidth="6.5" markerHeight="6.5" orient="auto-start-reverse"><path d="M2,1 L10,5 L2,9" fill="none" stroke="#d29922" stroke-width="1.6" stroke-linecap="round" stroke-linejoin="round"/></marker><marker id="mk-removed" viewBox="0 0 10 10" refX="8" refY="5" markerWidth="6.5" markerHeight="6.5" orient="auto-start-reverse"><path d="M0,0 L10,5 L0,10 z" fill="#f85149"/></marker><marker id="mko-removed" viewBox="0 0 10 10" refX="10" refY="5" markerWidth="6.5" markerHeight="6.5" orient="auto-start-reverse"><path d="M2,1 L10,5 L2,9" fill="none" stroke="#f85149" stroke-width="1.6" stroke-linecap="round" stroke-linejoin="round"/></marker><marker id="mk-neutral" viewBox="0 0 10 10" refX="8" refY="5" markerWidth="6.5" markerHeight="6.5" orient="auto-start-reverse"><path d="M0,0 L10,5 L0,10 z" fill="#6e7681"/></marker><marker id="mko-neutral" viewBox="0 0 10 10" refX="10" refY="5" markerWidth="6.5" markerHeight="6.5" orient="auto-start-reverse"><path d="M2,1 L10,5 L2,9" fill="none" stroke="#6e7681" stroke-width="1.6" stroke-linecap="round" stroke-linejoin="round"/></marker></defs>
<rect x="0" y="0" width="446" height="532" rx="12" fill="#0d1117"/>
<rect x="0" y="0" width="446" height="532" rx="12" fill="url(#dots)"/>
<g transform="translate(10,0)"><g><rect class="lanebox" x="16" y="44" width="404" height="472" rx="12" fill="rgba(110,118,129,.07)"/>
<text class="lanelabel" x="32" y="68" font-size="10" font-weight="700" letter-spacing=".12em" fill="#9198a1">NEUTRAL HARNESS SEAM · CRATES/OSF/SRC/HARNESS</text></g>
<g><path class="edge edge-added" d="M32,237 L19,237 C11.82,237 6,242.82 6,250 L6,366 C6,384.78 21.22,400 40,400 L297,400 C306.39,400 314,407.61 314,417 L314,434" marker-end="url(#mk-added)" fill="none" stroke="#3fb950" stroke-width="1.5"/>
<path class="edge edge-added" d="M170,382 L170,434" marker-end="url(#mk-added)" fill="none" stroke="#3fb950" stroke-width="1.5"/></g>
<g><g class="cardsh" filter="drop-shadow(0 1px 2px rgba(0,0,0,.28))"><rect class="card card-added" x="32" y="92" width="180" height="62" rx="10" fill="#1c2128" stroke-width="1" stroke="#3fb950" stroke-opacity="0.55"/>
<rect class="chip" x="46" y="110" width="26" height="26" rx="7" fill="rgba(110,118,129,.18)"/><g><text class="glyph" x="59" y="127.5" text-anchor="middle" fill="#9198a1" font-size="14" font-style="italic" font-family="Georgia,serif">ƒ</text></g>
<text class="ntitle" x="82" y="119" font-size="10.5" font-weight="600" fill="#e6edf3">Prompt and QUESTI…</text>
<text class="nsub" x="82" y="137" font-size="9.5" fill="#9198a1" font-family="ui-monospace, SFMono-Regular, &quot;SF Mono&quot;, Menlo, Consolas, monospace">build_prompt, quest…</text>
<g class="bdg bdg-added"><rect x="164.45" y="84" width="40.55" height="16" rx="8" fill="rgba(46,160,67,.15)" stroke="rgba(63,185,80,.4)" stroke-width="1"/><text x="184.73" y="95" text-anchor="middle" font-size="8.5" font-weight="700" letter-spacing=".06em" fill="#3fb950">NEW</text></g></g>
<g class="cardsh" filter="drop-shadow(0 1px 2px rgba(0,0,0,.28))"><rect class="card card-added" x="224" y="92" width="180" height="62" rx="10" fill="#1c2128" stroke-width="1" stroke="#3fb950" stroke-opacity="0.55"/>
<rect class="chip" x="238" y="110" width="26" height="26" rx="7" fill="rgba(110,118,129,.18)"/><g><text class="glyph" x="251" y="127.5" text-anchor="middle" fill="#9198a1" font-size="11" font-family="ui-monospace, SFMono-Regular, &quot;SF Mono&quot;, Menlo, Consolas, monospace">{ }</text></g>
<text class="ntitle" x="274" y="119" font-size="10.5" font-weight="600" fill="#e6edf3">HarnessResult / Capa…</text>
<text class="nsub" x="274" y="137" font-size="9.5" fill="#9198a1" font-family="ui-monospace, SFMono-Regular, &quot;SF Mono&quot;, Menlo, Consolas, monospace">plain data for the…</text>
<g class="bdg bdg-added"><rect x="356.45" y="84" width="40.55" height="16" rx="8" fill="rgba(46,160,67,.15)" stroke="rgba(63,185,80,.4)" stroke-width="1"/><text x="376.73" y="95" text-anchor="middle" font-size="8.5" font-weight="700" letter-spacing=".06em" fill="#3fb950">NEW</text></g></g>
<g class="cardsh" filter="drop-shadow(0 1px 2px rgba(0,0,0,.28))"><rect class="card card-added" x="32" y="206" width="180" height="62" rx="10" fill="#1c2128" stroke-width="1" stroke="#3fb950" stroke-opacity="0.55"/>
<rect class="chip" x="46" y="224" width="26" height="26" rx="7" fill="rgba(110,118,129,.18)"/><g><path class="glyph-stroke" d="M53,237 l4,4 l8,-8" stroke="#9198a1" stroke-width="1.4" fill="none"/></g>
<text class="ntitle" x="82" y="233" font-size="10.5" font-weight="600" fill="#e6edf3">FakeRunner / FakeH…</text>
<text class="nsub" x="82" y="251" font-size="9.5" fill="#9198a1" font-family="ui-monospace, SFMono-Regular, &quot;SF Mono&quot;, Menlo, Consolas, monospace">in-memory doubles</text>
<g class="bdg bdg-added"><rect x="164.45" y="198" width="40.55" height="16" rx="8" fill="rgba(46,160,67,.15)" stroke="rgba(63,185,80,.4)" stroke-width="1"/><text x="184.73" y="209" text-anchor="middle" font-size="8.5" font-weight="700" letter-spacing=".06em" fill="#3fb950">NEW</text></g></g>
<g class="cardsh" filter="drop-shadow(0 1px 2px rgba(0,0,0,.28))"><rect class="card card-added" x="224" y="206" width="180" height="62" rx="10" fill="#1c2128" stroke-width="1" stroke="#3fb950" stroke-opacity="0.55"/>
<rect class="chip" x="238" y="224" width="26" height="26" rx="7" fill="rgba(110,118,129,.18)"/><g><path class="glyph-stroke" d="M245,237 l4,4 l8,-8" stroke="#9198a1" stroke-width="1.4" fill="none"/></g>
<text class="ntitle" x="274" y="233" font-size="11" font-weight="600" fill="#e6edf3">harness_fake_run test</text>
<text class="nsub" x="274" y="251" font-size="9.5" fill="#9198a1" font-family="ui-monospace, SFMono-Regular, &quot;SF Mono&quot;, Menlo, Consolas, monospace">full run through th…</text>
<g class="bdg bdg-added"><rect x="356.45" y="198" width="40.55" height="16" rx="8" fill="rgba(46,160,67,.15)" stroke="rgba(63,185,80,.4)" stroke-width="1"/><text x="376.73" y="209" text-anchor="middle" font-size="8.5" font-weight="700" letter-spacing=".06em" fill="#3fb950">NEW</text></g></g>
<g class="cardsh" filter="drop-shadow(0 1px 2px rgba(0,0,0,.28))"><rect class="card card-added" x="32" y="320" width="372" height="62" rx="10" fill="#1c2128" stroke-width="1" stroke="#3fb950" stroke-opacity="0.55"/>
<rect class="chip" x="46" y="338" width="26" height="26" rx="7" fill="rgba(110,118,129,.18)"/><g><path class="glyph-stroke" d="M53,351 l4,4 l8,-8" stroke="#9198a1" stroke-width="1.4" fill="none"/></g>
<text class="ntitle" x="82" y="347" font-size="13" font-weight="600" fill="#e6edf3">harness_neutral test</text>
<text class="nsub" x="82" y="365" font-size="9.5" fill="#9198a1" font-family="ui-monospace, SFMono-Regular, &quot;SF Mono&quot;, Menlo, Consolas, monospace">scans the folder for vendor names</text>
<g class="bdg bdg-added"><rect x="356.45" y="312" width="40.55" height="16" rx="8" fill="rgba(46,160,67,.15)" stroke="rgba(63,185,80,.4)" stroke-width="1"/><text x="376.73" y="323" text-anchor="middle" font-size="8.5" font-weight="700" letter-spacing=".06em" fill="#3fb950">NEW</text></g></g>
<g class="cardsh" filter="drop-shadow(0 1px 2px rgba(0,0,0,.28))"><rect class="card card-added" x="32" y="434" width="180" height="62" rx="10" fill="#1c2128" stroke-width="1" stroke="#3fb950" stroke-opacity="0.55"/>
<rect class="chip" x="46" y="452" width="26" height="26" rx="7" fill="rgba(110,118,129,.18)"/><g><text class="glyph" x="59" y="469.5" text-anchor="middle" fill="#9198a1" font-size="11" font-family="ui-monospace, SFMono-Regular, &quot;SF Mono&quot;, Menlo, Consolas, monospace">{ }</text></g>
<text class="ntitle" x="82" y="461" font-size="11.5" font-weight="600" fill="#e6edf3">Harness trait</text>
<text class="nsub" x="82" y="479" font-size="9.5" fill="#9198a1" font-family="ui-monospace, SFMono-Regular, &quot;SF Mono&quot;, Menlo, Consolas, monospace">run + capabilities</text>
<g class="bdg bdg-neutral"><rect x="90.77" y="426" width="67.68" height="16" rx="8" fill="rgba(110,118,129,.18)" stroke="#3d444d" stroke-width="1"/><text x="124.61" y="437" text-anchor="middle" font-size="8.5" font-weight="700" letter-spacing=".06em" fill="#9198a1">object-safe</text></g>
<g class="bdg bdg-added"><rect x="164.45" y="426" width="40.55" height="16" rx="8" fill="rgba(46,160,67,.15)" stroke="rgba(63,185,80,.4)" stroke-width="1"/><text x="184.73" y="437" text-anchor="middle" font-size="8.5" font-weight="700" letter-spacing=".06em" fill="#3fb950">NEW</text></g></g>
<g class="cardsh" filter="drop-shadow(0 1px 2px rgba(0,0,0,.28))"><rect class="card card-added" x="224" y="434" width="180" height="62" rx="10" fill="#1c2128" stroke-width="1" stroke="#3fb950" stroke-opacity="0.55"/>
<rect class="chip" x="238" y="452" width="26" height="26" rx="7" fill="rgba(110,118,129,.18)"/><g><text class="glyph" x="251" y="469.5" text-anchor="middle" fill="#9198a1" font-size="11" font-family="ui-monospace, SFMono-Regular, &quot;SF Mono&quot;, Menlo, Consolas, monospace">{ }</text></g>
<text class="ntitle" x="274" y="461" font-size="11" font-weight="600" fill="#e6edf3">CommandRunner trait</text>
<text class="nsub" x="274" y="479" font-size="9.5" fill="#9198a1" font-family="ui-monospace, SFMono-Regular, &quot;SF Mono&quot;, Menlo, Consolas, monospace">run(&amp;CommandSpec) -…</text>
<g class="bdg bdg-added"><rect x="356.45" y="426" width="40.55" height="16" rx="8" fill="rgba(46,160,67,.15)" stroke="rgba(63,185,80,.4)" stroke-width="1"/><text x="376.73" y="437" text-anchor="middle" font-size="8.5" font-weight="700" letter-spacing=".06em" fill="#3fb950">NEW</text></g></g></g>
<g><g><rect class="lpill" x="52.28" y="392.5" width="116.72" height="15" rx="7.5" fill="#0d1117" stroke="#21262d" stroke-width="1"/><text class="ltext ltext-added" x="110.64" y="403.5" text-anchor="middle" font-size="9.5" font-weight="600" fill="#3fb950">impl CommandRunner</text></g>
<g><rect class="lpill" x="173" y="399" width="87.08" height="15" rx="7.5" fill="#0d1117" stroke="#21262d" stroke-width="1"/><text class="ltext ltext-added" x="216.54" y="410" text-anchor="middle" font-size="9.5" font-weight="600" fill="#3fb950">scans the folder</text></g></g></g>
</svg>